<?xml version="1.0" standalone="no"?>
<!DOCTYPE svg PUBLIC "-//W3C//DTD SVG 1.1//EN" "http://www.w3.org/Graphics/SVG/1.1/DTD/svg11.dtd" >
<svg>
<metadata>
Created by FontForge 20090914 at Tue Aug 23 17:42:25 2022
 By www-data
Copyright 2020 The Plus Jakarta Sans Project Authors (https://github.com/tokotype/PlusJakartaSans)
</metadata>
<defs>
<font id="PlusJakartaSans-Regular" horiz-adv-x="573" >
  <font-face 
    font-family="Plus Jakarta Sans"
    font-weight="400"
    font-stretch="normal"
    units-per-em="1000"
    panose-1="0 0 0 0 0 0 0 0 0 0"
    ascent="800"
    descent="-200"
    x-height="536"
    cap-height="745"
    bbox="-157 -240.002 1360 1189"
    underline-thickness="40"
    underline-position="-135"
    unicode-range="U+000D-U+FB02"
  />
<missing-glyph horiz-adv-x="640" 
d="M60 675h520v70h-520v-70zM60 450h520v70h-520v-70zM60 225h520v70h-520v-70zM60 0h520v70h-520v-70z" />
    <glyph glyph-name="fi" unicode="fi" horiz-adv-x="582" 
d="M132 0l75 -0.000976562v461h238v-461h75v536h-313v48c0 38 10.667 64.667 32 80s48 23 80 23c3.33301 0 9 -0.166992 17 -0.5s14.333 -1.16602 19 -2.49902v68c-5.33301 1.33301 -12.333 2.5 -21 3.5s-16.334 1.5 -23.001 1.5c-31.333 0 -60.666 -6.66699 -87.999 -20
s-49.333 -32.833 -66 -58.5s-25 -57.167 -25 -94.5v-48h-107v-75h107v-461z" />
    <glyph glyph-name="fl" unicode="fl" horiz-adv-x="622" 
d="M132 0l75 -0.000976562v461h263v-461h75v757h-75v-221h-263v48c0 38 10.667 64.667 32 80s48 23 80 23c3.33301 0 9 -0.166992 17 -0.5s14.333 -1.16602 19 -2.49902v68c-5.33301 1.33301 -12.333 2.5 -21 3.5s-16.334 1.5 -23.001 1.5
c-31.333 0 -60.666 -6.66699 -87.999 -20s-49.333 -32.833 -66 -58.5s-25 -57.167 -25 -94.5v-48h-107v-75h107v-461z" />
    <glyph glyph-name="f_f" unicode="ff" horiz-adv-x="776" 
d="M132 0l75 -0.00195312v461h308v-461h75v461h131v75h-131v48c0 38 10.667 64.667 32 80s48 23 80 23c3.33301 0 9 -0.166992 17 -0.5s14.333 -1.16602 19 -2.49902v68c-5.33301 1.33301 -12.333 2.5 -21 3.5s-16.334 1.5 -23.001 1.5
c-31.333 0 -60.666 -6.66699 -87.999 -20s-49.333 -32.833 -66 -58.5s-25 -57.167 -25 -94.5v-48h-308v48c0 38 10.667 64.667 32 80s48 23 80 23c3.33301 0 9 -0.166992 17 -0.5s14.333 -1.16602 19 -2.49902v68c-5.33301 1.33301 -12.333 2.5 -21 3.5
s-16.334 1.5 -23.001 1.5c-31.333 0 -60.666 -6.66699 -87.999 -20s-49.333 -32.833 -66 -58.5s-25 -57.167 -25 -94.5v-48h-107v-75h107v-461z" />
    <glyph glyph-name="f_f_i" unicode="ffi" horiz-adv-x="965" 
d="M132 0l75 -0.00195312v461h308v-461h75v461h238v-461h75v536h-313v48c0 38 10.667 64.667 32 80s48 23 80 23c3.33301 0 9 -0.166992 17 -0.5s14.333 -1.16602 19 -2.49902v68c-5.33301 1.33301 -12.333 2.5 -21 3.5s-16.334 1.5 -23.001 1.5
c-31.333 0 -60.666 -6.66699 -87.999 -20s-49.333 -32.833 -66 -58.5s-25 -57.167 -25 -94.5v-48h-308v48c0 38 10.667 64.667 32 80s48 23 80 23c3.33301 0 9 -0.166992 17 -0.5s14.333 -1.16602 19 -2.49902v68c-5.33301 1.33301 -12.333 2.5 -21 3.5
s-16.334 1.5 -23.001 1.5c-31.333 0 -60.666 -6.66699 -87.999 -20s-49.333 -32.833 -66 -58.5s-25 -57.167 -25 -94.5v-48h-107v-75h107v-461z" />
    <glyph glyph-name="f_f_l" unicode="ffl" horiz-adv-x="1005" 
d="M132 0l75 -0.00195312v461h308v-461h75v461h263v-461h75v757h-75v-221h-263v48c0 38 10.667 64.667 32 80s48 23 80 23c3.33301 0 9 -0.166992 17 -0.5s14.333 -1.16602 19 -2.49902v68c-5.33301 1.33301 -12.333 2.5 -21 3.5s-16.334 1.5 -23.001 1.5
c-31.333 0 -60.666 -6.66699 -87.999 -20s-49.333 -32.833 -66 -58.5s-25 -57.167 -25 -94.5v-48h-308v48c0 38 10.667 64.667 32 80s48 23 80 23c3.33301 0 9 -0.166992 17 -0.5s14.333 -1.16602 19 -2.49902v68c-5.33301 1.33301 -12.333 2.5 -21 3.5
s-16.334 1.5 -23.001 1.5c-31.333 0 -60.666 -6.66699 -87.999 -20s-49.333 -32.833 -66 -58.5s-25 -57.167 -25 -94.5v-48h-107v-75h107v-461z" />
    <glyph glyph-name=".notdef" horiz-adv-x="640" 
d="M60 675h520v70h-520v-70zM60 450h520v70h-520v-70zM60 225h520v70h-520v-70zM60 0h520v70h-520v-70z" />
    <glyph glyph-name="CR" unicode="&#xd;" horiz-adv-x="170" 
 />
    <glyph glyph-name="space" unicode=" " horiz-adv-x="170" 
 />
    <glyph glyph-name="exclam" unicode="!" horiz-adv-x="282" 
d="M106 214h70l5 531h-80zM101 0h80v110h-80v-110z" />
    <glyph glyph-name="quotedbl" unicode="&#x22;" horiz-adv-x="395" 
d="M95 527h55l12 218h-80zM245 527h55l12 218h-80z" />
    <glyph glyph-name="numbersign" unicode="#" horiz-adv-x="790" 
d="M103 0h80l56 195h210l-56 -195h80l56 195h140v70h-120l62 215h140v70h-120l56 195h-80l-56 -195h-210l56 195h-80l-56 -195h-140v-70h120l-62 -215h-140v-70h120zM259 265l62 215h210l-62 -215h-210z" />
    <glyph glyph-name="dollar" unicode="$" horiz-adv-x="646" 
d="M296 -100l70 0.000976562v89c42.667 3.33301 80 13.833 112 31.5s57 41.167 75 70.5s27 62.666 27 99.999c0 49.333 -15 90.333 -45 123s-74.333 57.667 -133 75l-36 11v279c32 -8 59.667 -22.667 83 -44s41.333 -49.333 54 -84l70 28
c-13.333 41.333 -38.166 78 -74.499 110s-80.5 53 -132.5 63v93h-70v-88c-40.667 -2 -76.834 -11.833 -108.501 -29.5s-56.5 -41.334 -74.5 -71.001s-27 -63.5 -27 -101.5c0 -46 14.167 -87 42.5 -123s68.833 -61.667 121.5 -77l46 -14v-278
c-40 6.66699 -74.5 22.834 -103.5 48.501s-50.833 60.167 -65.5 103.5l-72 -27c10 -32.667 26.333 -63 49 -91s50.167 -51.333 82.5 -70s68.833 -30.667 109.5 -36v-91zM284 424.001c-40 12 -69.667 30.167 -89 54.5s-29 51.833 -29 82.5c0 36 11.833 65 35.5 87
s55.167 34.333 94.5 37v-265zM384 315.001c37.333 -10.667 66 -25.999 86 -45.999s30 -48.333 30 -85c0 -34 -12.167 -61.833 -36.5 -83.5s-56.833 -34.834 -97.5 -39.501v259z" />
    <glyph glyph-name="percent" unicode="%" horiz-adv-x="974" 
d="M247 367c36 0 68.667 8.83301 98 26.5s52.666 41.167 69.999 70.5s26 62 26 98s-8.66699 68.833 -26 98.5s-40.666 53.167 -69.999 70.5s-62 26 -98 26s-68.667 -8.66699 -98 -26s-52.833 -40.833 -70.5 -70.5s-26.5 -62.5 -26.5 -98.5s8.83301 -68.667 26.5 -98
s41.167 -52.833 70.5 -70.5s62 -26.5 98 -26.5zM138 0h97l610 745h-97zM247 439c-22.667 0 -43.167 5.83301 -61.5 17.5s-32.666 27 -42.999 46s-15.5 38.833 -15.5 59.5c0 21.333 5.16699 41.333 15.5 60s24.666 33.834 42.999 45.501s38.833 17.5 61.5 17.5
c23.333 0 43.833 -5.83301 61.5 -17.5s31.667 -26.834 42 -45.501s15.5 -38.667 15.5 -60c0 -20.667 -5.16699 -40.5 -15.5 -59.5s-24.333 -34.333 -42 -46s-38.167 -17.5 -61.5 -17.5zM727 -12c36 0 68.667 8.83301 98 26.5s52.666 41.167 69.999 70.5s26 62 26 98
s-8.66699 68.833 -26 98.5s-40.666 53.167 -69.999 70.5s-62 26 -98 26s-68.667 -8.66699 -98 -26s-52.833 -40.833 -70.5 -70.5s-26.5 -62.5 -26.5 -98.5s8.83301 -68.667 26.5 -98s41.167 -52.833 70.5 -70.5s62 -26.5 98 -26.5zM727 60
c-22.667 0 -43.167 5.83301 -61.5 17.5s-32.666 27 -42.999 46s-15.5 38.833 -15.5 59.5c0 21.333 5.16699 41.333 15.5 60s24.666 33.834 42.999 45.501s38.833 17.5 61.5 17.5c23.333 0 43.833 -5.83301 61.5 -17.5s31.667 -26.834 42 -45.501s15.5 -38.667 15.5 -60
c0 -20.667 -5.16699 -40.5 -15.5 -59.5s-24.333 -34.333 -42 -46s-38.167 -17.5 -61.5 -17.5z" />
    <glyph glyph-name="ampersand" unicode="&#x26;" horiz-adv-x="734" 
d="M264 -12c36 0 67.666 5.83301 94.999 17.5s51.333 26.5 72 44.5s38.667 36.667 54 56l103 -106h107l-164 172l129 197h-91l-93 -139l-147 154c20 12.667 40.833 28.167 62.5 46.5s40 40.333 55 66s22.5 55.167 22.5 88.5s-8 63 -24 89s-37.333 46.333 -64 61
s-56 22 -88 22c-32.667 0 -62.5 -7.5 -89.5 -22.5s-48.5 -35.667 -64.5 -62s-24 -56.833 -24 -91.5c0 -39.333 9.83301 -74.5 29.5 -105.5s40.5 -58.167 62.5 -81.5c-13.333 -8.66699 -28.666 -19.5 -45.999 -32.5s-34 -28.333 -50 -46s-29.167 -38.167 -39.5 -61.5
s-15.5 -50 -15.5 -80c0 -37.333 9 -70 27 -98s42.667 -49.667 74 -65s67 -23 107 -23zM194.999 584c0 28.667 9.16602 52.334 27.499 71.001s41.833 28 70.5 28c28 0 51.333 -9.33301 70 -28s28 -42 28 -70c0 -22.667 -5.66699 -43.167 -17 -61.5
s-25.666 -34.5 -42.999 -48.5s-35 -26.667 -53 -38c-20.667 22 -39.667 45.167 -57 69.5s-26 50.166 -26 77.499zM140.998 176c0 27.333 6.16699 51.001 18.5 71.001s27.5 37.667 45.5 53s36 28.666 54 39.999l171 -177c-19.333 -26.667 -41.5 -50.167 -66.5 -70.5
s-57.5 -30.5 -97.5 -30.5c-36.667 0 -66.667 10 -90 30s-35 48 -35 84z" />
    <glyph glyph-name="quotesingle" unicode="'" horiz-adv-x="245" 
d="M95 527h55l12 218h-80z" />
    <glyph glyph-name="parenleft" unicode="(" horiz-adv-x="295" 
d="M210 -140l65 0.00292969c-48 67.333 -84.5 138.666 -109.5 213.999s-37.5 151.666 -37.5 228.999s12.5 153.666 37.5 228.999s61.5 146.333 109.5 213h-65c-52.667 -59.333 -92.834 -126.5 -120.501 -201.5s-41.5 -155.167 -41.5 -240.5
c0 -84.667 13.833 -164.667 41.5 -240s67.834 -143 120.501 -203z" />
    <glyph glyph-name="parenright" unicode=")" horiz-adv-x="295" 
d="M20 -140l65 -0.00292969c53.333 60 93.666 127.667 120.999 203s41 155.333 41 240c0 85.333 -13.667 165.5 -41 240.5s-67.666 142.167 -120.999 201.5h-65c48 -66.667 84.5 -137.667 109.5 -213s37.5 -151.666 37.5 -228.999s-12.5 -153.666 -37.5 -228.999
s-61.5 -146.666 -109.5 -213.999z" />
    <glyph glyph-name="asterisk" unicode="*" horiz-adv-x="479" 
d="M152 383l87 114l87 -114l58 42l-86 114l127 43l-22 68l-128 -42v137h-72v-137l-128 42l-22 -68l127 -43l-86 -114z" />
    <glyph glyph-name="plus" unicode="+" horiz-adv-x="606" 
d="M266 0h75v213h212v75h-212v212h-75v-212h-213v-75h213v-213z" />
    <glyph glyph-name="comma" unicode="," horiz-adv-x="270" 
d="M80 -130c66.667 16 100 68.001 100 156.001v84h-80v-110h38c0 -52.667 -19.333 -84.334 -58 -95.001v-35z" />
    <glyph glyph-name="hyphen" unicode="-" horiz-adv-x="498" 
d="M74 233h350v70h-350v-70z" />
    <glyph glyph-name="period" unicode="." horiz-adv-x="286" 
d="M103 0h80v110h-80v-110z" />
    <glyph glyph-name="slash" unicode="/" horiz-adv-x="429" 
d="M2 -120h87l338 824h-87z" />
    <glyph glyph-name="zero" unicode="0" horiz-adv-x="732" 
d="M367 -12c58.667 0 110 16.001 154 48.001s78.167 77 102.5 135s36.5 125.333 36.5 202s-12.333 143.834 -37 201.501s-59 102.5 -103 134.5s-95.333 48 -154 48s-110 -16 -154 -48s-78.333 -76.833 -103 -134.5s-37 -124.834 -37 -201.501s12.333 -143.834 37 -201.501
s59.167 -102.667 103.5 -135s95.833 -48.5 154.5 -48.5zM367 63.001c-42.667 0 -80.167 13 -112.5 39s-57.5 62.333 -75.5 109s-27 100.667 -27 162c0 62 9 116.167 27 162.5s43 82.333 75 108s69.333 38.5 112 38.5c43.333 0 81 -12.833 113 -38.5s57 -61.667 75 -108
s27 -100.5 27 -162.5s-9 -116.167 -27 -162.5s-43 -82.5 -75 -108.5s-69.333 -39 -112 -39z" />
    <glyph glyph-name="one" unicode="1" horiz-adv-x="371" 
d="M181 0h80v745h-220v-70h140v-675z" />
    <glyph glyph-name="two" unicode="2" horiz-adv-x="600" 
d="M58 0l484.001 0.00195312v70h-369l189 208c36.667 40 66.667 75 90 105s40.833 58 52.5 84s17.5 53 17.5 81c0 40.667 -9.5 76.667 -28.5 108s-45.167 56 -78.5 74s-72.333 27 -117 27c-62.667 0 -116 -17.833 -160 -53.5s-72.667 -83.834 -86 -144.501l73 -16
c10.667 45.333 31.167 80.666 61.5 105.999s67.833 38 112.5 38c43.333 0 78 -12 104 -36s39 -58.333 39 -103c0 -28 -6.33301 -54 -19 -78s-31.834 -50.667 -57.501 -80l-99.5 -111l-208 -229v-50z" />
    <glyph glyph-name="three" unicode="3" horiz-adv-x="609" 
d="M294 -12c49.333 0 93 10.4971 131 31.4971s67.667 49.333 89 85s32 75.5 32 119.5c0 42 -9 79.167 -27 111.5s-42.833 58.333 -74.5 78s-68.167 31.834 -109.5 36.501l179 225v70h-433v-70h343l-201 -255l16 -35c6.66699 1.33301 15.167 2.33301 25.5 3s19.833 1 28.5 1
c49.333 0 90.5 -14.167 123.5 -42.5s49.5 -69.166 49.5 -122.499c0 -52.667 -16.167 -93.5 -48.5 -122.5s-73.5 -43.5 -123.5 -43.5c-42 0 -79.333 11.167 -112 33.5s-56.667 52.833 -72 91.5l-64 -30c19.333 -51.333 51 -91.666 95 -120.999s95 -44 153 -44z" />
    <glyph glyph-name="four" unicode="4" horiz-adv-x="630" 
d="M425 0h70v176h91v65h-91v504h-70l-379 -504v-65h379v-176zM425 241h-296l296 395v-395z" />
    <glyph glyph-name="five" unicode="5" horiz-adv-x="616" 
d="M302 -12c48 0 90.832 10.667 128.499 32s67.334 50.5 89.001 87.5s32.5 78.5 32.5 124.5c0 45.333 -10.5 86.5 -31.5 123.5s-49.833 66.667 -86.5 89s-79 33.5 -127 33.5c-24.667 0 -49 -3.5 -73 -10.5s-46.333 -17.833 -67 -32.5l34 240h321v70h-377l-56 -404l63 -12
c12.667 21.333 32.834 39.5 60.501 54.5s57.834 22.5 90.501 22.5c32 0 60.667 -7.5 86 -22.5s45.5 -35.5 60.5 -61.5s22.5 -56 22.5 -90c0 -32.667 -7.33301 -62.167 -22 -88.5s-34.834 -47.166 -60.501 -62.499s-54.834 -23 -87.501 -23
c-40.667 0 -78.5 11.167 -113.5 33.5s-60.167 52.833 -75.5 91.5l-61 -30c19.333 -50.667 51.333 -90.834 96 -120.501s96 -44.5 154 -44.5z" />
    <glyph glyph-name="six" unicode="6" horiz-adv-x="597" 
d="M300 -12c46 0 87 10.332 123 30.999s64.5 48.834 85.5 84.501s31.5 75.834 31.5 120.501c0 46.667 -10.167 87.667 -30.5 123s-47.833 63.166 -82.5 83.499s-73.667 30.5 -117 30.5c-18 0 -34.667 -1.66699 -50 -5s-29.333 -9 -42 -17l234 306h-96l-210 -279
c-57.333 -76.667 -86 -154 -86 -232c0 -48 10.333 -90.5 31 -127.5s49 -66 85 -87s77.333 -31.5 124 -31.5zM300 57.999c-30.667 0 -58 7.16699 -82 21.5s-43 34.166 -57 59.499s-21 53.666 -21 84.999c0 32 6.83301 60.333 20.5 85s32.667 44.167 57 58.5
s51.833 21.5 82.5 21.5c31.333 0 59 -7.16699 83 -21.5s42.833 -33.833 56.5 -58.5s20.5 -53 20.5 -85c0 -31.333 -7 -59.666 -21 -84.999s-33 -45.166 -57 -59.499s-51.333 -21.5 -82 -21.5z" />
    <glyph glyph-name="seven" unicode="7" horiz-adv-x="543" 
d="M79 0h84l335 675v70h-455v-70h372z" />
    <glyph glyph-name="eight" unicode="8" horiz-adv-x="628" 
d="M314 -12c48 0 90.8301 9.83398 128.497 29.501s67.334 46.667 89.001 81s32.5 73.166 32.5 116.499c0 42.667 -11.333 81.667 -34 117s-53.667 61.666 -93 78.999c26.667 16.667 47.834 38.167 63.501 64.5s23.5 56.166 23.5 89.499c0 37.333 -9.16699 70.5 -27.5 99.5
s-43.166 51.667 -74.499 68s-67.333 24.5 -108 24.5c-40 0 -75.833 -8.5 -107.5 -25.5s-56.834 -39.833 -75.501 -68.5s-28 -61.334 -28 -98.001c0 -30.667 7.5 -59.667 22.5 -87s36.833 -49.666 65.5 -66.999c-39.333 -17.333 -70.333 -43.666 -93 -78.999
s-34 -74.333 -34 -117c0 -43.333 10.833 -82.166 32.5 -116.499s51.334 -61.333 89.001 -81s80.5 -29.5 128.5 -29.5zM313.997 442.001c-36.667 0 -67.667 11.333 -93 34s-38 52.334 -38 89.001s12.667 66.167 38 88.5s56.333 33.5 93 33.5s67.5 -11.167 92.5 -33.5
s37.5 -51.833 37.5 -88.5s-12.5 -66.334 -37.5 -89.001s-55.833 -34 -92.5 -34zM313.997 58.001c-50.667 0 -91.667 14.5 -123 43.5s-47 66.833 -47 113.5c0 47.333 15.667 85.333 47 114s72.333 43 123 43c51.333 0 92.5 -14.333 123.5 -43s46.5 -66.667 46.5 -114
c0 -46.667 -15.5 -84.5 -46.5 -113.5s-72.167 -43.5 -123.5 -43.5z" />
    <glyph glyph-name="nine" unicode="9" horiz-adv-x="597" 
d="M145 0l95.999 -0.000976562l210 279c57.333 76.667 86 154 86 232c0 48 -10.333 90.5 -31 127.5s-49 66 -85 87s-77.333 31.5 -124 31.5c-45.333 0 -86.166 -10.333 -122.499 -31s-65 -48.667 -86 -84s-31.5 -75.666 -31.5 -120.999c0 -46 10.167 -86.833 30.5 -122.5
s47.833 -63.667 82.5 -84s73.667 -30.5 117 -30.5c18 0 34.667 1.66699 50 5s29.333 9 42 17zM296.999 355.999c-30.667 0 -58.167 7.16699 -82.5 21.5s-43.333 34 -57 59s-20.5 53.167 -20.5 84.5c0 32 7 60.5 21 85.5s33 44.667 57 59s51.333 21.5 82 21.5
s58 -7.16699 82 -21.5s43 -34 57 -59s21 -53.5 21 -85.5c0 -31.333 -6.83301 -59.5 -20.5 -84.5s-32.5 -44.667 -56.5 -59s-51.667 -21.5 -83 -21.5z" />
    <glyph glyph-name="colon" unicode=":" horiz-adv-x="286" 
d="M103 426h80v110h-80v-110zM103 0h80v110h-80v-110z" />
    <glyph glyph-name="semicolon" unicode=";" horiz-adv-x="306" 
d="M123 426h80v110h-80v-110zM103 -130c66.667 16 100 68 100 156v84h-80v-110h43c-2 -56 -23 -89.333 -63 -100v-30z" />
    <glyph glyph-name="less" unicode="&#x3c;" horiz-adv-x="606" 
d="M534 39v81l-323 148l323 148v81l-410 -195v-68z" />
    <glyph glyph-name="equal" unicode="=" horiz-adv-x="606" 
d="M78 331h450v75h-450v-75zM78 96h450v75h-450v-75z" />
    <glyph glyph-name="greater" unicode="&#x3e;" horiz-adv-x="606" 
d="M72 39l410 195v68l-410 195v-81l323 -148l-323 -148v-81z" />
    <glyph glyph-name="question" unicode="?" horiz-adv-x="499" 
d="M167 214l80.001 -0.000976562v10c0 31.333 8.33301 58.833 25 82.5s36 46.5 58 68.5l58 58.5c19.333 19.667 35.333 41.167 48 64.5s19 50 19 80c0 32 -8.5 61.5 -25.5 88.5s-40.667 48.833 -71 65.5s-65.5 25 -105.5 25c-56.667 0 -104.834 -16.667 -144.501 -50
s-64.167 -77.666 -73.5 -132.999l71 -15c7.33301 38.667 24.333 69.667 51 93s58.667 35 96 35c39.333 0 69.5 -11.167 90.5 -33.5s31.5 -47.5 31.5 -75.5c0 -32.667 -10 -61.167 -30 -85.5s-42.667 -48.5 -68 -72.5c-18 -16.667 -35.333 -34.5 -52 -53.5
s-30.5 -40 -41.5 -63s-16.5 -49.5 -16.5 -79.5v-10zM170.001 -0.000976562h80v110h-80v-110z" />
    <glyph glyph-name="at" unicode="@" horiz-adv-x="929" 
d="M482 -207c74.667 0 140.331 16 196.998 48l-32 60c-46.667 -25.333 -101 -38 -163 -38c-51.333 0 -98 9 -140 27s-78.167 42.833 -108.5 74.5s-53.666 68.334 -69.999 110.001s-24.5 86.5 -24.5 134.5c0 49.333 8.5 94.666 25.5 135.999s40.833 77.333 71.5 108
s66.834 54.5 108.501 71.5s86.834 25.5 135.501 25.5c50 0 95.667 -8.66699 137 -26s77 -41.333 107 -72s53.333 -66.667 70 -108s25 -86 25 -134c0 -46.667 -7.83301 -81.667 -23.5 -105s-37.5 -35 -65.5 -35c-18.667 0 -33.5 5.66699 -44.5 17s-16.5 29.333 -16.5 54v276
h-65v-56c-16.667 20.667 -37.834 36.834 -63.501 48.501s-53.5 17.5 -83.5 17.5c-38.667 0 -73.5 -9.5 -104.5 -28.5s-55.5 -44.5 -73.5 -76.5s-27 -68.333 -27 -109s9 -77 27 -109s42.5 -57.333 73.5 -76s65.833 -28 104.5 -28c30.667 0 58.834 6 84.501 18
s46.5 29.667 62.5 53c10.667 -22 27.5 -39.333 50.5 -52s47.833 -19 74.5 -19c52 0 92.5 19.667 121.5 59s43.5 90.333 43.5 153c0 53.333 -10.167 104.333 -30.5 153s-49 92.167 -86 130.5s-80.833 68.666 -131.5 90.999s-106 33.5 -166 33.5
c-58 0 -112.333 -10.5 -163 -31.5s-94.834 -50.167 -132.501 -87.5s-67.167 -81 -88.5 -131s-32 -104 -32 -162s10.5 -112.167 31.5 -162.5s50.5 -94.5 88.5 -132.5s82.167 -67.5 132.5 -88.5s104.833 -31.5 163.5 -31.5zM461.997 70c-25.333 0 -48 6.33105 -68 18.998
s-35.833 29.834 -47.5 51.501s-17.5 45.834 -17.5 72.501c0 41.333 12.5 75.333 37.5 102s56.833 40 95.5 40s70.667 -13.167 96 -39.5s38 -60.166 38 -101.499c0 -27.333 -5.83301 -51.833 -17.5 -73.5s-27.5 -38.834 -47.5 -51.501s-43 -19 -69 -19z" />
    <glyph glyph-name="A" unicode="A" horiz-adv-x="652" 
d="M11 0h84l65 182h333l64 -182h84l-272 745h-86zM186 257l140 394l139 -394h-279z" />
    <glyph glyph-name="B" unicode="B" horiz-adv-x="693" 
d="M88 0h313.999c72.667 0 130.167 19.5 172.5 58.5s63.5 91.833 63.5 158.5c0 39.333 -10.167 75.333 -30.5 108s-48.5 58 -84.5 76c56.667 34 85 86.333 85 157c0 56 -18.667 101.167 -56 135.5s-87.666 51.5 -150.999 51.5h-313v-745zM167.999 430v240h227
c40 0 72.167 -9.83301 96.5 -29.5s36.5 -48.167 36.5 -85.5c0 -36.667 -12.167 -66.667 -36.5 -90s-56.5 -35 -96.5 -35h-227zM167.999 75v283h234c47.333 0 85.166 -12.833 113.499 -38.5s42.5 -60.167 42.5 -103.5c0 -44 -14.167 -78.5 -42.5 -103.5
s-66.166 -37.5 -113.499 -37.5h-234z" />
    <glyph glyph-name="C" unicode="C" horiz-adv-x="781" 
d="M428 -12c50.667 0 96.167 9 136.5 27s74.333 41.167 102 69.5s47.5 57.833 59.5 88.5l-75 33c-18.667 -43.333 -47.167 -78 -85.5 -104s-84.166 -39 -137.499 -39c-54.667 0 -103.334 12.833 -146.001 38.5s-76 61.834 -100 108.501s-36 100.667 -36 162
c0 62 12 116.167 36 162.5s57.333 82.5 100 108.5s91.334 39 146.001 39c53.333 0 99.166 -13.167 137.499 -39.5s66.833 -61.166 85.5 -104.499l75 33c-12 31.333 -31.833 61.166 -59.5 89.499s-61.667 51.5 -102 69.5s-85.833 27 -136.5 27
c-52.667 0 -101 -9.5 -145 -28.5s-82.167 -45.833 -114.5 -80.5s-57.5 -75.334 -75.5 -122.001s-27 -98 -27 -154s9 -107.333 27 -154s43.167 -87.167 75.5 -121.5s70.5 -61 114.5 -80s92.333 -28.5 145 -28.5z" />
    <glyph glyph-name="D" unicode="D" horiz-adv-x="742" 
d="M88 0h245c74 -0 138.333 15.333 193 46s97 74 127 130s45 121.667 45 197c0 76 -15 141.833 -45 197.5s-72.333 98.667 -127 129s-119 45.5 -193 45.5h-245v-745zM168 75v595h165c56.667 0 106 -12.167 148 -36.5s74.667 -58.666 98 -102.999s35 -96.833 35 -157.5
s-11.5 -113.334 -34.5 -158.001s-55.5 -79.167 -97.5 -103.5s-91.667 -36.5 -149 -36.5h-165z" />
    <glyph glyph-name="E" unicode="E" horiz-adv-x="612" 
d="M88 0h480v75h-400v261h380v75h-380v259h400v75h-480v-745z" />
    <glyph glyph-name="F" unicode="F" horiz-adv-x="581" 
d="M88 0h80v336h350v75h-350v259h380v75h-460v-745z" />
    <glyph glyph-name="G" unicode="G" horiz-adv-x="821" 
d="M428 -12c47.333 0 91.498 8.16797 132.498 24.501s76.833 39.5 107.5 69.5s54.667 65.5 72 106.5s26 85.833 26 134.5v62h-338v-70h258v-5c0 -48 -11.333 -90.5 -34 -127.5s-53.5 -66.167 -92.5 -87.5s-82.833 -32 -131.5 -32c-54.667 0 -103.334 12.833 -146.001 38.5
s-76 61.834 -100 108.501s-36 100.667 -36 162c0 62 12 116.167 36 162.5s57.333 82.5 100 108.5s91.334 39 146.001 39s101.334 -13 140.001 -39s67.334 -61.667 86.001 -107l72 35c-12 31.333 -31.833 61.166 -59.5 89.499s-61.667 51.5 -102 69.5s-85.833 27 -136.5 27
c-52.667 0 -101 -9.5 -145 -28.5s-82.167 -45.833 -114.5 -80.5s-57.5 -75.334 -75.5 -122.001s-27 -98 -27 -154s9 -107.333 27 -154s43.167 -87.167 75.5 -121.5s70.5 -61 114.5 -80s92.333 -28.5 145 -28.5z" />
    <glyph glyph-name="H" unicode="H" horiz-adv-x="736" 
d="M88 0h80v335h400v-335h80v745h-80v-335h-400v335h-80v-745z" />
    <glyph glyph-name="I" unicode="I" horiz-adv-x="256" 
d="M88 0h80v745h-80v-745z" />
    <glyph glyph-name="J" unicode="J" horiz-adv-x="383" 
d="M55 0h39.999c61.333 0 110 18.5 146 55.5s54 86.833 54 149.5v540h-80v-540c0 -38.667 -10.667 -69.167 -32 -91.5s-50.666 -33.5 -87.999 -33.5h-40v-80z" />
    <glyph glyph-name="K" unicode="K" horiz-adv-x="654" 
d="M88 0h80v225l125 142l254 -367h96l-295 430l277 315h-100l-357 -406v406h-80v-745z" />
    <glyph glyph-name="L" unicode="L" horiz-adv-x="531" 
d="M88 0h410v75h-330v670h-80v-745z" />
    <glyph glyph-name="M" unicode="M" horiz-adv-x="836" 
d="M88 0h80v591l248 -361h4l248 359v-589h80v745h-70l-260 -378l-260 378h-70v-745z" />
    <glyph glyph-name="N" unicode="N" horiz-adv-x="736" 
d="M88 0h80v592l410 -592h70v745h-80v-588l-410 588h-70v-745z" />
    <glyph glyph-name="O" unicode="O" horiz-adv-x="878" 
d="M439 -12c52 0 100.5 9.5 145.5 28.5s84.5 45.667 118.5 80s60.667 75 80 122s29 98.5 29 154.5s-9.66699 107.333 -29 154s-46 87.167 -80 121.5s-73.5 61 -118.5 80s-93.5 28.5 -145.5 28.5s-100.5 -9.33301 -145.5 -28s-84.5 -45.167 -118.5 -79.5
s-60.667 -75 -80 -122s-29 -98.5 -29 -154.5s9.66699 -107.5 29 -154.5s46 -87.667 80 -122s73.5 -61 118.5 -80s93.5 -28.5 145.5 -28.5zM439 63c-57.333 0 -108 14 -152 42s-78.5 65.5 -103.5 112.5s-37.5 98.833 -37.5 155.5c0 42 7.16699 81.667 21.5 119
s34.5 70.333 60.5 99s56.833 51 92.5 67s75.167 24 118.5 24s82.833 -8 118.5 -24s66.5 -38.333 92.5 -67s46.167 -61.667 60.5 -99s21.5 -77 21.5 -119c0 -56.667 -12.5 -108.5 -37.5 -155.5s-59.5 -84.5 -103.5 -112.5s-94.667 -42 -152 -42z" />
    <glyph glyph-name="P" unicode="P" horiz-adv-x="643" 
d="M88 0l80.0029 0.000976562v290h176c49.333 0 92.166 9.5 128.499 28.5s64.666 45.5 84.999 79.5s30.5 73.667 30.5 119s-10.167 85.166 -30.5 119.499s-48.833 61 -85.5 80s-79.334 28.5 -128.001 28.5h-256v-745zM168.003 365.001v304.999h180
c48 0 86.667 -13.5 116 -40.5s44 -64.167 44 -111.5s-14.667 -84.666 -44 -111.999s-68 -41 -116 -41h-180z" />
    <glyph glyph-name="Q" unicode="Q" horiz-adv-x="878" 
d="M439 -12c50 0 97.667 9.33301 143 28l72 -106h91l-96 141c49.333 33.333 88.833 77.833 118.5 133.5s44.5 118.5 44.5 188.5c0 56 -9.66699 107.333 -29 154s-46 87.167 -80 121.5s-73.5 61 -118.5 80s-93.5 28.5 -145.5 28.5s-100.5 -9.33301 -145.5 -28
s-84.5 -45.167 -118.5 -79.5s-60.667 -75 -80 -122s-29 -98.5 -29 -154.5s9.66699 -107.5 29 -154.5s46 -87.667 80 -122s73.5 -61 118.5 -80s93.5 -28.5 145.5 -28.5zM439 63c-57.333 0 -108 13.999 -152 41.999s-78.5 65.5 -103.5 112.5s-37.5 98.833 -37.5 155.5
c0 42 7.16699 81.667 21.5 119s34.5 70.333 60.5 99s56.833 51 92.5 67s75.167 24 118.5 24s82.833 -8 118.5 -24s66.5 -38.333 92.5 -67s46.167 -61.667 60.5 -99s21.5 -77 21.5 -119c0 -54 -11.333 -103.667 -34 -149s-53.667 -81.666 -93 -108.999l-125 183h-91l149 -218
c-31.333 -11.333 -64.333 -17 -99 -17z" />
    <glyph glyph-name="R" unicode="R" horiz-adv-x="641" 
d="M88 0l80.001 0.00195312v290h182l164 -290h94l-174 303c47.333 15.333 84.833 41.666 112.5 78.999s41.5 82.333 41.5 135c0 45.333 -10.167 85.166 -30.5 119.499s-48.833 61 -85.5 80s-79.334 28.5 -128.001 28.5h-256v-745zM168.001 365.002v304.999h180
c48 0 86.667 -13.5 116 -40.5s44 -64.167 44 -111.5s-14.667 -84.666 -44 -111.999s-68 -41 -116 -41h-180z" />
    <glyph glyph-name="S" unicode="S" horiz-adv-x="646" 
d="M339 -12c47.333 0 89.1709 8.66504 125.504 25.998s64.666 41.166 84.999 71.499s30.5 65.5 30.5 105.5c0 49.333 -15 90.333 -45 123s-74.333 57.667 -133 75l-118 35c-40 12 -69.667 30.167 -89 54.5s-29 51.833 -29 82.5c0 38 13.333 68.167 40 90.5
s61.334 33.5 104.001 33.5c45.333 0 84.833 -11.333 118.5 -34s58.5 -56 74.5 -100l70 28c-10.667 32.667 -28.334 62.334 -53.001 89.001s-54.834 48.167 -90.501 64.5s-75.834 24.5 -120.501 24.5c-42.667 0 -80.834 -8.66699 -114.501 -26s-60.167 -41.166 -79.5 -71.499
s-29 -65.166 -29 -104.499c0 -46 14.167 -87 42.5 -123s68.833 -61.667 121.5 -77l134 -40c37.333 -10.667 66 -26 86 -46s30 -48.333 30 -85c0 -37.333 -14.833 -67.333 -44.5 -90s-68.5 -34 -116.5 -34c-50.667 0 -94.334 13.167 -131.001 39.5s-63.667 64.833 -81 115.5
l-72 -27c11.333 -36.667 30.333 -70.167 57 -100.5s59.334 -54.5 98.001 -72.5s81.667 -27 129 -27z" />
    <glyph glyph-name="T" unicode="T" horiz-adv-x="512" 
d="M217 0h80v670h204v75h-490v-75h206v-670z" />
    <glyph glyph-name="U" unicode="U" horiz-adv-x="700" 
d="M350 -12c53.333 0 99.833 11 139.5 33s70.5 52.167 92.5 90.5s33 82.166 33 131.499v502h-80v-502c0 -54 -17 -97.5 -51 -130.5s-78.667 -49.5 -134 -49.5c-54.667 0 -99.167 16.5 -133.5 49.5s-51.5 76.5 -51.5 130.5v502h-80v-502c0 -49.333 11 -93.166 33 -131.499
s53 -68.5 93 -90.5s86.333 -33 139 -33z" />
    <glyph glyph-name="V" unicode="V" horiz-adv-x="652" 
d="M284 0h84l273 745h-84l-231 -651l-232 651h-83z" />
    <glyph glyph-name="W" unicode="W" horiz-adv-x="984" 
d="M225 0h85l182 638l182 -638h85l214 745h-81l-177 -635l-180 635h-85l-181 -637l-177 637h-81z" />
    <glyph glyph-name="X" unicode="X" horiz-adv-x="597" 
d="M11 0h88l199 311l198 -311h90l-243 380l234 365h-90l-189 -297l-189 297h-90l234 -365z" />
    <glyph glyph-name="Y" unicode="Y" horiz-adv-x="623" 
d="M272 0h80v346l260 399h-89l-211 -323l-212 323h-89l261 -399v-346z" />
    <glyph glyph-name="Z" unicode="Z" horiz-adv-x="584" 
d="M22 0h540v75h-434l425 616v54h-506v-75h401l-426 -616v-54z" />
    <glyph glyph-name="bracketleft" unicode="[" horiz-adv-x="315" 
d="M88 -140h200v70h-120v745h120v70h-200v-885z" />
    <glyph glyph-name="backslash" unicode="\" horiz-adv-x="429" 
d="M340 -120h87l-338 825h-87z" />
    <glyph glyph-name="bracketright" unicode="]" horiz-adv-x="315" 
d="M27 -140h200v885h-200v-70h120v-745h-120v-70z" />
    <glyph glyph-name="asciicircum" unicode="^" horiz-adv-x="606" 
d="M99 425h86l119 227l117 -227h86l-169 320h-70z" />
    <glyph glyph-name="underscore" unicode="_" horiz-adv-x="598" 
d="M74 -70h450v70h-450v-70z" />
    <glyph glyph-name="grave" unicode="`" horiz-adv-x="352" 
d="M217 640h76l-87 150h-103z" />
    <glyph glyph-name="a" unicode="a" horiz-adv-x="572" 
d="M232 -12c41.333 0 78.666 8.33398 111.999 25.001s58.666 38 75.999 64v-77h75v368c0 35.333 -8.5 66.5 -25.5 93.5s-40.667 48.167 -71 63.5s-65.166 23 -104.499 23c-30 0 -59 -5.5 -87 -16.5s-52.833 -25.833 -74.5 -44.5s-37.5 -39.334 -47.5 -62.001l68 -37
c12 26 30.333 47.167 55 63.5s53.334 24.5 86.001 24.5c37.333 0 67.666 -10 90.999 -30s35 -46 35 -78v-28l-194 -32c-59.333 -10 -102.666 -30.333 -129.999 -61s-41 -66.667 -41 -108c0 -29.333 7.66699 -55.333 23 -78s36.333 -40.5 63 -53.5s57 -19.5 91 -19.5z
M135 142.001c0 24.667 8.49902 46.002 25.499 64.002s44.833 30.333 83.5 37l176 29v-40c0 -32.667 -7.66699 -62.334 -23 -89.001s-36.666 -47.834 -63.999 -63.501s-59.333 -23.5 -96 -23.5c-30 0 -54.5 8.33301 -73.5 25s-28.5 37 -28.5 61z" />
    <glyph glyph-name="b" unicode="b" horiz-adv-x="667" 
d="M348 -12c50.667 0 95.834 12.1689 135.501 36.502s71 57.666 94 99.999s34.5 90.166 34.5 143.499c0 54 -11.5 102 -34.5 144s-54.333 75.167 -94 99.5s-84.834 36.5 -135.501 36.5c-42 0 -79.667 -8.33301 -113 -25s-61 -39.334 -83 -68.001v302h-75v-757h75v87
c20 -31.333 47.333 -55.666 82 -72.999s72.667 -26 114 -26zM344 63.002c-36 0 -68.5 9 -97.5 27s-52 42.5 -69 73.5s-25.5 65.833 -25.5 104.5s8.5 73.5 25.5 104.5s40 55.5 69 73.5s61.5 27 97.5 27s68.167 -9 96.5 -27s50.666 -42.333 66.999 -73s24.5 -65.667 24.5 -105
c0 -38.667 -8.16699 -73.5 -24.5 -104.5s-38.666 -55.5 -66.999 -73.5s-60.5 -27 -96.5 -27z" />
    <glyph glyph-name="c" unicode="c" horiz-adv-x="600" 
d="M322 -12c33.333 0 64.668 5.99902 94.001 17.999s55.333 28.333 78 49s39.667 44 51 70l-68 37c-14 -30 -34.5 -54 -61.5 -72s-58.167 -27 -93.5 -27s-67.166 9 -95.499 27s-50.666 42.5 -66.999 73.5s-24.5 65.833 -24.5 104.5c0 39.333 8.16699 74.5 24.5 105.5
s38.666 55.333 66.999 73s60.166 26.5 95.499 26.5s66.666 -9 93.999 -27s47.666 -41.333 60.999 -70l68 35c-11.333 26.667 -28.333 50.167 -51 70.5s-48.667 36.5 -78 48.5s-60.666 18 -93.999 18c-52.667 0 -99 -12.167 -139 -36.5s-71.333 -57.5 -94 -99.5
s-34 -89.667 -34 -143s11.333 -101.166 34 -143.499s54 -75.833 94 -100.5s86.333 -37 139 -37z" />
    <glyph glyph-name="d" unicode="d" horiz-adv-x="667" 
d="M319 -12c41.333 0 79.334 8.66504 114.001 25.998s62 41.666 82 72.999v-87h75v757h-75v-302c-22 28.667 -49.667 51.334 -83 68.001s-71 25 -113 25c-50.667 0 -95.834 -12.167 -135.501 -36.5s-71 -57.5 -94 -99.5s-34.5 -90 -34.5 -144
c0 -53.333 11.5 -101.166 34.5 -143.499s54.5 -75.666 94.5 -99.999s85 -36.5 135 -36.5zM323.001 62.998c-36 0 -68.168 9 -96.501 27s-50.666 42.5 -66.999 73.5s-24.5 65.833 -24.5 104.5c0 39.333 8.16699 74.333 24.5 105s38.833 55 67.5 73s60.667 27 96 27
c36 0 68.5 -9 97.5 -27s52 -42.5 69 -73.5s25.5 -65.833 25.5 -104.5s-8.5 -73.5 -25.5 -104.5s-40 -55.5 -69 -73.5s-61.5 -27 -97.5 -27z" />
    <glyph glyph-name="e" unicode="e" horiz-adv-x="615" 
d="M321 -12c36.667 0 70.167 6.16895 100.5 18.502s56.5 28.666 78.5 48.999s38.333 42.5 49 66.5l-64 34c-16.667 -28 -38.334 -51.333 -65.001 -70s-59.667 -28 -99 -28c-32 0 -62 7.66699 -90 23s-50.833 36.833 -68.5 64.5s-27.167 60.834 -28.5 99.501h422
c1.33301 8.66699 2.33301 17.167 3 25.5s1 15.833 1 22.5c0 32 -5.66699 63.167 -17 93.5s-27.666 57.666 -48.999 81.999s-47.166 43.666 -77.499 57.999s-64.833 21.5 -103.5 21.5c-48.667 0 -92.5 -12 -131.5 -36s-69.833 -56.833 -92.5 -98.5s-34 -89.5 -34 -143.5
s11.667 -102.333 35 -145s55.166 -76.167 95.499 -100.5s85.5 -36.5 135.5 -36.5zM313 478.002c30 0 57.501 -6.99805 82.501 -20.998s45 -33.167 60 -57.5s22.833 -52.5 23.5 -84.5h-343c4 33.333 14.5 62.166 31.5 86.499s38.167 43.166 63.5 56.499s52.666 20 81.999 20z
" />
    <glyph glyph-name="f" unicode="f" horiz-adv-x="393" 
d="M132 0l75 -0.000976562v461h131v75h-131v48c0 38 10.667 64.667 32 80s48 23 80 23c3.33301 0 9 -0.166992 17 -0.5s14.333 -1.16602 19 -2.49902v68c-5.33301 1.33301 -12.333 2.5 -21 3.5s-16.334 1.5 -23.001 1.5c-31.333 0 -60.666 -6.66699 -87.999 -20
s-49.333 -32.833 -66 -58.5s-25 -57.167 -25 -94.5v-48h-107v-75h107v-461z" />
    <glyph glyph-name="g" unicode="g" horiz-adv-x="662" 
d="M331 -220c49.333 0 93.166 10.5029 131.499 31.5029s68.333 49.667 90 86s32.5 77.5 32.5 123.5v515h-75v-81c-21.333 28.667 -48.666 51.334 -81.999 68.001s-69.666 25 -108.999 25c-50.667 0 -95.834 -12 -135.501 -36s-71 -56.333 -94 -97
s-34.5 -86.334 -34.5 -137.001c0 -50 11.5 -95.5 34.5 -136.5s54.5 -73.5 94.5 -97.5s85 -36 135 -36c39.333 0 76 8.66699 110 26s61 41.666 81 72.999v-86c0 -36 -8.33301 -66.333 -25 -91s-38.667 -43.334 -66 -56.001s-57.333 -19 -90 -19
c-42.667 0 -77.667 9.33301 -105 28s-46.333 40.667 -57 66l-69 -37c18 -38.667 47.5 -70.334 88.5 -95.001s89.167 -37 144.5 -37zM323 83.0029c-36 0 -68.168 8.83398 -96.501 26.501s-50.666 41.334 -66.999 71.001s-24.5 62.167 -24.5 97.5c0 36 8.16699 68.667 24.5 98
s38.833 52.833 67.5 70.5s60.667 26.5 96 26.5c34.667 0 66 -8.83301 94 -26.5s50.5 -41.334 67.5 -71.001s25.5 -62.167 25.5 -97.5s-8.5 -67.833 -25.5 -97.5s-39.5 -53.334 -67.5 -71.001s-59.333 -26.5 -94 -26.5z" />
    <glyph glyph-name="h" unicode="h" 
d="M77 0l75 0.000976562v319c0 48 13.5 85.667 40.5 113s60.5 41 100.5 41s73.167 -13.5 99.5 -40.5s39.5 -64.833 39.5 -113.5v-319h75v348c0 38 -8.83301 72.167 -26.5 102.5s-41.667 54.166 -72 71.499s-64.5 26 -102.5 26c-33.333 0 -63.333 -7 -90 -21s-48 -33 -64 -57
v287h-75v-757z" />
    <glyph glyph-name="i" unicode="i" horiz-adv-x="229" 
d="M77 635h75v110h-75v-110zM77 0h75v536h-75v-536z" />
    <glyph glyph-name="j" unicode="j" horiz-adv-x="229" 
d="M77 635h75v110h-75v-110zM-23 -220c32 0 61.168 6.5 87.501 19.5s47.5 32.167 63.5 57.5s24 56.333 24 93v586h-75v-586c0 -33.333 -9.5 -58.333 -28.5 -75s-42.167 -25 -69.5 -25c-14 0 -28 1 -42 3v-69c5.33301 -1.33301 12.166 -2.33301 20.499 -3s14.833 -1 19.5 -1z
" />
    <glyph glyph-name="k" unicode="k" horiz-adv-x="548" 
d="M77 0h75v161l102 105l193 -266h90l-229 321l210 215h-97l-269 -272v493h-75v-757z" />
    <glyph glyph-name="l" unicode="l" horiz-adv-x="229" 
d="M77 0h75v757h-75v-757z" />
    <glyph glyph-name="m" unicode="m" horiz-adv-x="908" 
d="M77 0h75.001v319c0 48 13 85.667 39 113s58.333 41 97 41s70.667 -13.5 96 -40.5s38 -64.833 38 -113.5v-319h75v319c0 48 13 85.667 39 113s58.333 41 97 41s70.667 -13.5 96 -40.5s38 -64.833 38 -113.5v-319h75v348c0 38 -9.16699 72.167 -27.5 102.5
s-42.666 54.166 -72.999 71.499s-63.5 26 -99.5 26s-69.167 -8.66699 -99.5 -26s-53.5 -42.666 -69.5 -75.999c-16.667 30.667 -40.334 55.334 -71.001 74.001s-64.334 28 -101.001 28c-30.667 0 -59.167 -6.83301 -85.5 -20.5s-47.5 -32.834 -63.5 -57.501v66h-75v-536z
" />
    <glyph glyph-name="n" unicode="n" 
d="M77 0l74.999 0.000976562v319c0 48 13.333 85.667 40 113s60.334 41 101.001 41c41.333 0 74.833 -13.5 100.5 -40.5s38.5 -64.833 38.5 -113.5v-319h75v348c0 38 -8.83301 72.167 -26.5 102.5s-41.667 54.166 -72 71.499s-64.5 26 -102.5 26
c-33.333 0 -63.333 -7 -90 -21s-48 -33 -64 -57v66h-75v-536z" />
    <glyph glyph-name="o" unicode="o" horiz-adv-x="655" 
d="M328 -12c50 0 95.501 11.999 136.501 35.999s73.833 57.167 98.5 99.5s37 90.833 37 145.5c0 54 -11.833 102 -35.5 144s-56 75 -97 99s-87.5 36 -139.5 36s-98.5 -12.167 -139.5 -36.5s-73.5 -57.5 -97.5 -99.5s-36 -89.667 -36 -143c0 -54 12.167 -102.167 36.5 -144.5
s57.166 -75.666 98.499 -99.999s87.333 -36.5 138 -36.5zM328.001 62.999c-36 0 -68.5 9 -97.5 27s-52.167 42.667 -69.5 74s-26 66.333 -26 105s8.66699 73.334 26 104.001s40.5 55 69.5 73s61.5 27 97.5 27s68.5 -9 97.5 -27s52 -42.333 69 -73
s25.5 -65.334 25.5 -104.001s-8.5 -73.667 -25.5 -105s-40 -56 -69 -74s-61.5 -27 -97.5 -27z" />
    <glyph glyph-name="p" unicode="p" horiz-adv-x="667" 
d="M77 -200l75 0.00195312v287c20 -31.333 47.333 -55.666 82 -72.999s72.667 -26 114 -26c50.667 0 95.834 12.167 135.501 36.5s71 57.666 94 99.999s34.5 90.166 34.5 143.499c0 54 -11.5 102 -34.5 144s-54.333 75.167 -94 99.5s-84.834 36.5 -135.501 36.5
c-42 0 -79.667 -8.33301 -113 -25s-61 -39.334 -83 -68.001v81h-75v-736zM344 63.002c-36 0 -68.5 9 -97.5 27s-52 42.5 -69 73.5s-25.5 65.833 -25.5 104.5s8.5 73.5 25.5 104.5s40 55.5 69 73.5s61.5 27 97.5 27s68.167 -9 96.5 -27s50.666 -42.333 66.999 -73
s24.5 -65.667 24.5 -105c0 -38.667 -8.16699 -73.5 -24.5 -104.5s-38.666 -55.5 -66.999 -73.5s-60.5 -27 -96.5 -27z" />
    <glyph glyph-name="q" unicode="q" horiz-adv-x="667" 
d="M515 -200l75.001 -0.00195312v736h-75v-81c-22 28.667 -49.667 51.334 -83 68.001s-71 25 -113 25c-50.667 0 -95.834 -12.167 -135.501 -36.5s-71 -57.5 -94 -99.5s-34.5 -90 -34.5 -144c0 -53.333 11.5 -101.166 34.5 -143.499s54.5 -75.666 94.5 -99.999
s85 -36.5 135 -36.5c41.333 0 79.333 8.66699 114 26s62 41.666 82 72.999v-287zM323.001 62.998c-36 0 -68.168 9 -96.501 27s-50.666 42.5 -66.999 73.5s-24.5 65.833 -24.5 104.5c0 39.333 8.16699 74.333 24.5 105s38.833 55 67.5 73s60.667 27 96 27
c36 0 68.5 -9 97.5 -27s52 -42.5 69 -73.5s25.5 -65.833 25.5 -104.5s-8.5 -73.5 -25.5 -104.5s-40 -55.5 -69 -73.5s-61.5 -27 -97.5 -27z" />
    <glyph glyph-name="r" unicode="r" horiz-adv-x="338" 
d="M77 0h75.001v330c0 44 11.667 78 35 102s54.333 36 93 36h47v75h-34c-32.667 0 -60.834 -5.66699 -84.501 -17s-42.5 -27.333 -56.5 -48v58h-75v-536z" />
    <glyph glyph-name="s" unicode="s" horiz-adv-x="509" 
d="M263 -12c37.333 0 70.3291 6.49902 98.9961 19.499s51.167 31.167 67.5 54.5s24.5 49.666 24.5 78.999c0 36 -12.167 67.333 -36.5 94s-58.166 46.334 -101.499 59.001l-89 26c-9.33301 2.66699 -20.166 6.66699 -32.499 12s-23.166 13.333 -32.499 24s-14 25 -14 43
c0 23.333 9 42.666 27 57.999s42 23 72 23c30.667 0 58.5 -8.5 83.5 -25.5s44.167 -40.5 57.5 -70.5l64 30c-15.333 42 -41.5 74.833 -78.5 98.5s-78.167 35.5 -123.5 35.5c-33.333 0 -63.666 -6.33301 -90.999 -19s-49 -30.667 -65 -54s-24 -50.666 -24 -81.999
c0 -33.333 11 -62.666 33 -87.999s57.667 -45 107 -59l77 -22c10.667 -2.66699 23 -7 37 -13s26.333 -14.5 37 -25.5s16 -25.833 16 -44.5c0 -25.333 -11 -45.833 -33 -61.5s-49 -23.5 -81 -23.5c-33.333 0 -63.833 9.66699 -91.5 29s-49.167 45.333 -64.5 78l-63 -30
c17.333 -44.667 45.333 -80 84 -106s83.667 -39 135 -39z" />
    <glyph glyph-name="t" unicode="t" horiz-adv-x="388" 
d="M282 -6c6 0 13.998 0.500977 23.998 1.50098s19 2.5 27 4.5v67c-5.33301 -0.666992 -11.666 -1.33398 -18.999 -2.00098s-13.666 -1 -18.999 -1c-33.333 0 -56.333 8.66699 -69 26s-19 39.333 -19 66v305h118v75h-118v124h-75v-45c0 -22.667 -6.66699 -41.5 -20 -56.5
s-31.333 -22.5 -54 -22.5h-25v-75h99v-305c0 -52 13 -92 39 -120s63 -42 111 -42z" />
    <glyph glyph-name="u" unicode="u" 
d="M267 -12c33.333 0 63.3311 7.00195 89.998 21.002s48 33 64 57v-66h75v536h-75v-319c0 -48 -13.167 -85.667 -39.5 -113s-60.166 -41 -101.499 -41c-40.667 0 -74 13.167 -100 39.5s-39 61.166 -39 104.499v329h-75v-338c0 -41.333 8.83301 -77.833 26.5 -109.5
s41.834 -56.334 72.501 -74.001s64.667 -26.5 102 -26.5z" />
    <glyph glyph-name="v" unicode="v" horiz-adv-x="517" 
d="M220 0h75l211 536h-85l-163 -434l-163 434h-84z" />
    <glyph glyph-name="w" unicode="w" horiz-adv-x="797" 
d="M195 0h75l129 424l128 -424h75l184 536h-84l-137 -421l-129 421h-75l-128 -421l-137 421h-85z" />
    <glyph glyph-name="x" unicode="x" horiz-adv-x="487" 
d="M11 0h93l140 204l140 -204h92l-187 268l187 268h-92l-140 -204l-140 204h-92l187 -268z" />
    <glyph glyph-name="y" unicode="y" horiz-adv-x="536" 
d="M88 -220c35.333 0 65.333 7.16797 90 21.501s45.167 33.166 61.5 56.499s29.833 48 40.5 74l245 604h-83l-175 -442l-175 442h-81l214 -536l-19 -46c-16.667 -38.667 -33.667 -64.834 -51 -78.501s-42.333 -20.5 -75 -20.5c-10.667 0 -21.167 0.833008 -31.5 2.5
s-18.833 2.83398 -25.5 3.50098v-70c10.667 -4 21.5 -6.83301 32.5 -8.5s21.833 -2.5 32.5 -2.5z" />
    <glyph glyph-name="z" unicode="z" horiz-adv-x="449" 
d="M22 0h405v75h-302l300 396v65h-386v-75h284l-301 -396v-65z" />
    <glyph glyph-name="braceleft" unicode="{" horiz-adv-x="317" 
d="M256 -140l34 0.00195312v70h-34c-20 0 -35.833 6.66699 -47.5 20s-17.167 30.333 -16.5 51v191c2 45.333 -14 82 -48 110c35.333 30 51.333 67.333 48 112v190c-0.666992 21.333 4.83301 38.5 16.5 51.5s27.5 19.5 47.5 19.5h34v70h-34
c-42.667 0 -77.334 -12.833 -104.001 -38.5s-40 -59.834 -40 -102.501v-194c0 -22 -5.16699 -39.667 -15.5 -53s-26.5 -20 -48.5 -20h-28v-70h28c22 0 38.167 -6.66699 48.5 -20s15.5 -31 15.5 -53v-193c0 -42.667 13.333 -76.834 40 -102.501s61.334 -38.5 104.001 -38.5z
" />
    <glyph glyph-name="bar" unicode="|" horiz-adv-x="300" 
d="M110 -190h80v1035h-80v-1035z" />
    <glyph glyph-name="braceright" unicode="}" horiz-adv-x="317" 
d="M27 -140l34 -0.00195312c43.333 0 78.166 12.833 104.499 38.5s39.5 59.834 39.5 102.501v193c0 22 5.16699 39.667 15.5 53s26.5 20 48.5 20h28v70h-28c-22 0 -38.167 6.66699 -48.5 20s-15.5 31 -15.5 53v194c0 42.667 -13.167 76.834 -39.5 102.501
s-61.166 38.5 -104.499 38.5h-34v-70h34c20 0 36 -6.5 48 -19.5s17.333 -30.167 16 -51.5v-190c-3.33301 -44.667 12.667 -82 48 -112c-34 -28 -50 -64.667 -48 -110v-191c1.33301 -20.667 -4 -37.667 -16 -51s-28 -20 -48 -20h-34v-70z" />
    <glyph glyph-name="asciitilde" unicode="~" horiz-adv-x="606" 
d="M402 220c36 0 64.666 11.667 85.999 35s34 57.333 38 102h-67c-4 -23.333 -11.667 -40.333 -23 -51s-25.666 -16 -42.999 -16c-16 0 -30.5 3.5 -43.5 10.5s-26 15.167 -39 24.5s-27.333 17.5 -43 24.5s-34.5 10.5 -56.5 10.5c-36 0 -65.667 -11.5 -89 -34.5
s-37 -57.167 -41 -102.5h67c7.33301 44.667 31.333 67 72 67c16 0 30.5 -3.5 43.5 -10.5s26 -15.167 39 -24.5s27.333 -17.5 43 -24.5s34.5 -10.5 56.5 -10.5z" />
    <glyph glyph-name="uni00A0" unicode="&#xa0;" horiz-adv-x="170" 
 />
    <glyph glyph-name="exclamdown" unicode="&#xa1;" horiz-adv-x="282" 
d="M101 426h80v110h-80v-110zM101 -209h80l-5 531h-70z" />
    <glyph glyph-name="cent" unicode="&#xa2;" horiz-adv-x="600" 
d="M280 0l70 -0.000976562v95c44 4.66699 83.5 19.5 118.5 44.5s60.5 55.167 76.5 90.5l-68 37c-12 -26 -29 -47.5 -51 -64.5s-47.333 -27.833 -76 -32.5v406c28.667 -4.66699 54 -15.5 76 -32.5s39 -37.833 51 -62.5l68 35c-16 36 -41.5 66.333 -76.5 91
s-74.5 39.334 -118.5 44.001v94h-70v-95c-44.667 -6 -84 -21.667 -118 -47s-60.333 -57.666 -79 -96.999s-28 -83.333 -28 -132s9.33301 -92.667 28 -132s45 -71.833 79 -97.5s73.333 -41.834 118 -48.501v-96zM135 372.999c0 50.667 13.5 94.167 40.5 130.5
s61.833 59.5 104.5 69.5v-400c-42.667 10 -77.5 33.167 -104.5 69.5s-40.5 79.833 -40.5 130.5z" />
    <glyph glyph-name="sterling" unicode="&#xa3;" horiz-adv-x="643" 
d="M44 0l518.998 -0.00195312v70h-339v276h169v65h-169v129c0 46 13.167 82 39.5 108s62.833 39 109.5 39c42 0 76.833 -12 104.5 -36s43.834 -58.667 48.501 -104l73 16c-7.33301 60.667 -31.666 108.167 -72.999 142.5s-92.333 51.5 -153 51.5
c-45.333 0 -85.333 -9.16699 -120 -27.5s-61.5 -43.666 -80.5 -75.999s-28.5 -70.166 -28.5 -113.499v-129h-100v-65h100v-276h-100v-70z" />
    <glyph glyph-name="currency" unicode="&#xa4;" horiz-adv-x="588" 
d="M104 30l76.001 76.002c17.333 -12.667 35.833 -22 55.5 -28s39.167 -9 58.5 -9c21.333 0 41.666 3.33301 60.999 10s37 15.667 53 27l76 -76l49 49l-76 76c11.333 16 20.333 33.667 27 53s10 39.666 10 60.999s-3.33301 41.5 -10 60.5s-15.667 36.833 -27 53.5l76 76
l-49 49l-76 -76c-34.667 24.667 -72.667 37 -114 37c-20.667 0 -40.667 -3.33301 -60 -10s-37.333 -15.667 -54 -27l-76 76l-49 -49l76 -76c-11.333 -16.667 -20.333 -34.667 -27 -54s-10 -39.333 -10 -60s3.33301 -40.834 10 -60.501s15.667 -37.5 27 -53.5l-76 -76z
M294.001 145.002c-22.667 0 -43.5 5.5 -62.5 16.5s-34.167 26 -45.5 45s-17 39.833 -17 62.5c0 23.333 5.66699 44.333 17 63s26.5 33.667 45.5 45s39.833 17 62.5 17s43.334 -5.66699 62.001 -17s33.667 -26.333 45 -45s17 -39.667 17 -63
c0 -22.667 -5.66699 -43.5 -17 -62.5s-26.333 -34 -45 -45s-39.334 -16.5 -62.001 -16.5z" />
    <glyph glyph-name="yen" unicode="&#xa5;" horiz-adv-x="623" 
d="M137 153h135v-153h80v153h134v65h-134v90h134v65h-116l242 372h-89l-211 -323l-212 323h-89l243 -372h-117v-65h135v-90h-135v-65z" />
    <glyph glyph-name="brokenbar" unicode="&#xa6;" horiz-adv-x="300" 
d="M110 428h80v417h-80v-417zM110 -190h80v418h-80v-418z" />
    <glyph glyph-name="section" unicode="&#xa7;" horiz-adv-x="529" 
d="M274 -105c39.333 0 74.002 6.99902 104.002 20.999s53.5 33.167 70.5 57.5s25.5 51.833 25.5 82.5c0 28.667 -7.5 54.667 -22.5 78s-36.167 42.666 -63.5 57.999c26.667 14 47.667 32.667 63 56s23 49.666 23 78.999c0 38 -12.833 71 -38.5 99s-61.167 48.667 -106.5 62
l-94 28c-10.667 3.33301 -22.5 7.83301 -35.5 13.5s-24.333 14.167 -34 25.5s-14.5 26.333 -14.5 45c0 25.333 9.66699 46.166 29 62.499s45 24.5 77 24.5s61.167 -9 87.5 -27s46.833 -42.667 61.5 -74l65 31c-16 43.333 -43.333 77.5 -82 102.5s-81.667 37.5 -129 37.5
c-34.667 0 -66.334 -6.83301 -95.001 -20.5s-51.5 -32.667 -68.5 -57s-25.5 -52.833 -25.5 -85.5c0 -27.333 7 -52.166 21 -74.499s36.333 -41.166 67 -56.499c-26.667 -13.333 -48 -32.166 -64 -56.499s-24 -52.166 -24 -83.499c0 -34.667 11.667 -65.167 35 -91.5
s60.666 -47.166 111.999 -62.499l82 -24c12 -3.33301 25.5 -8.33301 40.5 -15s27.833 -15.834 38.5 -27.501s16 -27.167 16 -46.5c0 -26.667 -11.667 -48.5 -35 -65.5s-52 -25.5 -86 -25.5c-35.333 0 -67.5 10.167 -96.5 30.5s-51.833 47.833 -68.5 82.5l-65 -31
c18 -46.667 47.167 -83.667 87.5 -111s87.833 -41 142.5 -41zM235.002 244.999c-10.667 3.33301 -22.5 8.33105 -35.5 14.998s-24.333 16.334 -34 29.001s-14.5 29.334 -14.5 50.001c0 24.667 7.66699 45.834 23 63.501s36.333 28.5 63 32.5l63 -19
c12 -3.33301 25.5 -8.83301 40.5 -16.5s27.833 -18 38.5 -31s16 -30.167 16 -51.5c0 -24 -7.5 -44.333 -22.5 -61s-34.167 -28.334 -57.5 -35.001z" />
    <glyph glyph-name="dieresis" unicode="&#xa8;" horiz-adv-x="436" 
d="M103 640h100v100h-100v-100zM283 640h100v100h-100v-100z" />
    <glyph glyph-name="copyright" unicode="&#xa9;" horiz-adv-x="895" 
d="M448 -12c52.667 0 102.165 9.83398 148.498 29.501s87.166 47.167 122.499 82.5s63 76.166 83 122.499s30 96.5 30 150.5c0 52.667 -9.83301 102.167 -29.5 148.5s-47.167 87.166 -82.5 122.499s-76.166 63 -122.499 83s-96.166 30 -149.499 30
c-54 0 -104.167 -10 -150.5 -30s-87.166 -47.667 -122.499 -83s-62.833 -76.166 -82.5 -122.499s-29.5 -95.833 -29.5 -148.5c0 -53.333 9.83301 -103.333 29.5 -150s47.167 -87.667 82.5 -123s76.333 -62.833 123 -82.5s96.667 -29.5 150 -29.5zM447.998 58.001
c-44 0 -85.167 8 -123.5 24s-71.833 38.333 -100.5 67s-51 62.167 -67 100.5s-24 79.5 -24 123.5s8 85 24 123s38.333 71.333 67 100s62.167 51 100.5 67s79.5 24 123.5 24s85 -8.16699 123 -24.5s71.333 -38.833 100 -67.5s51 -62 67 -100s24 -78.667 24 -122
c0 -44 -8 -85.167 -24 -123.5s-38.333 -71.833 -67 -100.5s-62 -51 -100 -67s-79 -24 -123 -24zM453.998 163.001c42.667 0 79.002 10.5 109.002 31.5s50.333 45.5 61 73.5l-62 30c-8.66699 -20.667 -22.334 -37.667 -41.001 -51s-41 -20 -67 -20
c-38.667 0 -70.334 13.5 -95.001 40.5s-37 62.167 -37 105.5s12.333 78.333 37 105s56.334 40 95.001 40c27.333 0 50.166 -7 68.499 -21s31.5 -30.667 39.5 -50l62 30c-10.667 28 -31 52.5 -61 73.5s-66.333 31.5 -109 31.5c-38.667 0 -73.167 -9 -103.5 -27
s-54.333 -42.667 -72 -74s-26.5 -67.333 -26.5 -108c0 -40 8.83301 -75.833 26.5 -107.5s41.667 -56.667 72 -75s64.833 -27.5 103.5 -27.5z" />
    <glyph glyph-name="ordfeminine" unicode="&#xaa;" horiz-adv-x="455" 
d="M183 361c27.333 0 51.667 4.83203 73 14.499s38.666 22.834 51.999 39.501v-46h70v255c0 38.667 -13.833 70.167 -41.5 94.5s-63.834 36.5 -108.501 36.5c-33.333 0 -64.666 -8.33301 -93.999 -25s-49.666 -39.334 -60.999 -68.001l62 -31
c7.33301 17.333 19.166 31.5 35.499 42.5s34.833 16.5 55.5 16.5c23.333 0 42.333 -6.16699 57 -18.5s22 -28.166 22 -47.499v-15l-124 -21c-41.333 -6.66699 -72.666 -20.5 -93.999 -41.5s-32 -47.167 -32 -78.5c0 -32 11.833 -57.833 35.5 -77.5s54.5 -29.5 92.5 -29.5z
M132.001 470.999c0 15.333 5 28.166 15 38.499s26.333 17.5 49 21.5l109 18v-22c0 -30 -10.333 -55.333 -31 -76s-47.667 -31 -81 -31c-17.333 0 -31.833 4.83301 -43.5 14.5s-17.5 21.834 -17.5 36.501z" />
    <glyph glyph-name="guillemotleft" unicode="&#xab;" horiz-adv-x="540" 
d="M181 79h90l-152 190l152 190h-90l-152 -190zM421 79h90l-152 190l152 190h-90l-152 -190z" />
    <glyph glyph-name="logicalnot" unicode="&#xac;" horiz-adv-x="606" 
d="M478 40h75v248h-500v-75h425v-173z" />
    <glyph glyph-name="uni00AD" unicode="&#xad;" horiz-adv-x="498" 
d="M74 233h350v70h-350v-70z" />
    <glyph glyph-name="registered" unicode="&#xae;" horiz-adv-x="639" 
d="M320 272c47.333 0 90.333 11.5 129 34.5s69.5 54 92.5 93s34.5 81.833 34.5 128.5c0 47.333 -11.5 90.333 -34.5 129s-53.833 69.5 -92.5 92.5s-81.667 34.5 -129 34.5s-90.5 -11.5 -129.5 -34.5s-70 -53.833 -93 -92.5s-34.5 -81.667 -34.5 -129
c0 -46.667 11.5 -89.5 34.5 -128.5s54 -70 93 -93s82.167 -34.5 129.5 -34.5zM320 330c-37.333 0 -71 8.83301 -101 26.5s-53.833 41.5 -71.5 71.5s-26.5 63.333 -26.5 100s8.83301 70 26.5 100s41.5 53.833 71.5 71.5s63.667 26.5 101 26.5
c36.667 0 69.834 -8.83301 99.501 -26.5s53.5 -41.5 71.5 -71.5s27 -63.333 27 -100c0 -37.333 -9 -71 -27 -101s-41.833 -53.667 -71.5 -71s-62.834 -26 -99.501 -26zM222 394h58v95h45l54 -95h65l-63 106c30.667 15.333 46 41 46 77c0 28 -9 49.5 -27 64.5
s-41 22.5 -69 22.5h-109v-270zM280 541v71h51c11.333 0 20.333 -3.33301 27 -10s10 -15 10 -25s-3.33301 -18.5 -10 -25.5s-15.667 -10.5 -27 -10.5h-51z" />
    <glyph glyph-name="macron" unicode="&#xaf;" horiz-adv-x="440" 
d="M103 660h270v70h-270v-70z" />
    <glyph glyph-name="degree" unicode="&#xb0;" horiz-adv-x="482" 
d="M241 440c30.667 0 58 6.83301 82 20.5s43 32.5 57 56.5s21 51 21 81s-7 57 -21 81s-33 43 -57 57s-51.333 21 -82 21c-30 0 -57.167 -7 -81.5 -21s-43.5 -33 -57.5 -57s-21 -51 -21 -81s7 -57 21 -81s33.167 -42.833 57.5 -56.5s51.5 -20.5 81.5 -20.5zM240 502
c-26.667 0 -49.334 8.83301 -68.001 26.5s-28 40.834 -28 69.501c0 29.333 9.33301 52.833 28 70.5s41.334 26.5 68.001 26.5s49.667 -8.83301 69 -26.5s29 -41.167 29 -70.5c0 -28.667 -9.66699 -51.834 -29 -69.501s-42.333 -26.5 -69 -26.5z" />
    <glyph glyph-name="plusminus" unicode="&#xb1;" horiz-adv-x="606" 
d="M266 145h75v173h212v75h-212v172h-75v-172h-213v-75h213v-173zM53 0h500v75h-500v-75z" />
    <glyph glyph-name="uni00B2" unicode="&#xb2;" horiz-adv-x="427" 
d="M40 223l344.998 0.000976562v66h-242l128 137c31.333 33.333 56.333 63.666 75 90.999s28 57.333 28 90c0 42.667 -15 77.667 -45 105s-69.333 41 -118 41c-42.667 0 -80.167 -12.167 -112.5 -36.5s-53.166 -57.833 -62.499 -100.5l68 -19
c7.33301 28 20.333 49.5 39 64.5s41.334 22.5 68.001 22.5c25.333 0 46 -7.16699 62 -21.5s24 -34.833 24 -61.5c0 -16 -3.66699 -31.167 -11 -45.5s-19.333 -31 -36 -50l-67 -73.5l-143 -154v-55z" />
    <glyph glyph-name="uni00B3" unicode="&#xb3;" horiz-adv-x="436" 
d="M213 215c35.333 0 66.8311 7.49805 94.498 22.498s49.334 35.333 65.001 61s23.5 54.834 23.5 87.501c0 42.667 -12.667 77.834 -38 105.501s-58.666 44.167 -99.999 49.5l116 141v63h-312v-66h226l-138 -166l17 -35c14 4.66699 29.333 7 46 7
c31.333 0 56.833 -8.83301 76.5 -26.5s29.5 -42.167 29.5 -73.5c0 -32 -9.83301 -57 -29.5 -75s-45.167 -27 -76.5 -27c-26 0 -49 7.16699 -69 21.5s-34.667 33.833 -44 58.5l-65 -26c11.333 -37.333 33.5 -67 66.5 -89s70.167 -33 111.5 -33z" />
    <glyph glyph-name="acute" unicode="&#xb4;" horiz-adv-x="352" 
d="M103 640h76l114 150h-103z" />
    <glyph glyph-name="uni00B5" unicode="&#xb5;" 
d="M66 -140l75 0.000976562v171c17.333 -13.333 36.666 -23.833 57.999 -31.5s44 -11.5 68 -11.5c33.333 0 63.333 6.83301 90 20.5s48 33.167 64 58.5v-67h75v536h-75v-319c0 -48 -13.167 -85.667 -39.5 -113s-60.166 -41 -101.499 -41c-40.667 0 -74 13.167 -100 39.5
s-39 61.166 -39 104.499v329h-75v-676z" />
    <glyph glyph-name="paragraph" unicode="&#xb6;" horiz-adv-x="398" 
d="M208 -100l80 -0.000976562v845h-80c-30 0 -57 -7.16699 -81 -21.5s-43.167 -33.666 -57.5 -57.999s-21.5 -51.5 -21.5 -81.5c0 -29.333 7.16699 -56.333 21.5 -81s33.5 -44.167 57.5 -58.5s51 -21.5 81 -21.5v-523z" />
    <glyph glyph-name="periodcentered" unicode="&#xb7;" horiz-adv-x="286" 
d="M103 213h80v110h-80v-110z" />
    <glyph glyph-name="cedilla" unicode="&#xb8;" horiz-adv-x="382" 
d="M207 -230c32 0 58.499 9 79.499 27s31.5 41 31.5 69c0 48.667 -35 80.667 -105 96l13 48h-54l-24 -84c34.667 -4 59.667 -10.333 75 -19s23 -20.667 23 -36c0 -12 -4.5 -21.833 -13.5 -29.5s-20.833 -11.5 -35.5 -11.5c-27.333 0 -51.666 10 -72.999 30l-21 -53
c12 -11.333 27.5 -20.333 46.5 -27s38.167 -10 57.5 -10z" />
    <glyph glyph-name="uni00B9" unicode="&#xb9;" horiz-adv-x="302" 
d="M120 223h77v522h-176v-67h99v-455z" />
    <glyph glyph-name="ordmasculine" unicode="&#xba;" horiz-adv-x="503" 
d="M252 361c36 0 68.835 8.5 98.502 25.5s53.334 40.167 71.001 69.5s26.5 63.333 26.5 102c0 38 -8.66699 71.833 -26 101.5s-40.833 53 -70.5 70s-62.834 25.5 -99.501 25.5s-69.834 -8.5 -99.501 -25.5s-53.334 -40.333 -71.001 -70s-26.5 -63.5 -26.5 -101.5
s8.83301 -71.833 26.5 -101.5s41.5 -53 71.5 -70s63 -25.5 99 -25.5zM252.002 430c-34.667 0 -63.334 12.333 -86.001 37s-34 55 -34 91c0 36.667 11.333 67.167 34 91.5s51.334 36.5 86.001 36.5c33.333 0 61.5 -12.167 84.5 -36.5s34.5 -54.833 34.5 -91.5
s-11.5 -67.167 -34.5 -91.5s-51.167 -36.5 -84.5 -36.5z" />
    <glyph glyph-name="guillemotright" unicode="&#xbb;" horiz-adv-x="540" 
d="M269 79h90l152 190l-152 190h-90l152 -190zM29 79h90l152 190l-152 190h-90l152 -190z" />
    <glyph glyph-name="onequarter" unicode="&#xbc;" horiz-adv-x="891" 
d="M101 328h72v417h-152v-62h80v-355zM121 0h82l446 745h-82zM722 0h70v93h60v60h-60v264h-74l-191 -264v-60h195v-93zM722 153h-124l124 174v-174z" />
    <glyph glyph-name="onehalf" unicode="&#xbd;" horiz-adv-x="852" 
d="M101 328h72v417h-152v-62h80v-355zM121 0h82l446 745h-82zM531 0l279.001 -0.00390625v62h-184l99 105c21.333 23.333 39.666 45.833 54.999 67.5s23 45.834 23 72.501c0 34 -12.333 62 -37 84s-57 33 -97 33c-33.333 0 -63.333 -9.66699 -90 -29
s-43.667 -45.666 -51 -78.999l64 -20c5.33301 20.667 15 36.334 29 47.001s30 16 48 16s32.833 -5.16699 44.5 -15.5s17.5 -24.833 17.5 -43.5c0 -17.333 -6.66699 -34.666 -20 -51.999s-35.333 -42 -66 -74l-114 -120v-54z" />
    <glyph glyph-name="threequarters" unicode="&#xbe;" horiz-adv-x="982" 
d="M180 321c28.667 0 54.168 6.16895 76.501 18.502s40 29.166 53 50.499s19.5 45 19.5 71c0 33.333 -9.5 61 -28.5 83s-44.167 35.333 -75.5 40l87 103v58h-254v-61h173l-108 -126l16 -34c12 5.33301 25.667 8 41 8c23.333 0 42 -6.33301 56 -19s21 -30.334 21 -53.001
s-7.16699 -40.667 -21.5 -54s-32.833 -20 -55.5 -20c-18.667 0 -35.334 5.16699 -50.001 15.5s-25.667 24.833 -33 43.5l-62 -23c8.66699 -30.667 26.5 -55.167 53.5 -73.5s57.5 -27.5 91.5 -27.5zM212.001 0.00195312h82l446 745h-82zM813.001 0.00195312h70v93h60v60h-60
v264h-74l-191 -264v-60h195v-93zM813.001 153.002h-124l124 174v-174z" />
    <glyph glyph-name="questiondown" unicode="&#xbf;" horiz-adv-x="499" 
d="M249 426h80v110h-80v-110zM246 -221c57.333 0 105.832 16.8311 145.499 50.498s63.834 77.834 72.501 132.501l-71 15c-7.33301 -38.667 -24.333 -69.667 -51 -93s-58.667 -35 -96 -35c-38.667 0 -68.667 11.167 -90 33.5s-32 47.5 -32 75.5c0 33.333 10.167 62 30.5 86
s42.833 48 67.5 72c18 17.333 35.5 35.333 52.5 54s30.833 39.5 41.5 62.5s16 49.5 16 79.5v10h-80v-10c0 -30.667 -8.33301 -58 -25 -82s-36 -47 -58 -69l-58 -58.5c-19.333 -19.667 -35.333 -41.167 -48 -64.5s-19 -50 -19 -80c0 -31.333 8.5 -60.666 25.5 -87.999
s40.667 -49.333 71 -66s65.5 -25 105.5 -25z" />
    <glyph glyph-name="Agrave" unicode="&#xc0;" horiz-adv-x="652" 
d="M11 0h84l65 182h333l64 -182h84l-272 745h-86zM186 257l140 394l139 -394h-279zM288 849h76l-87 150h-103z" />
    <glyph glyph-name="Aacute" unicode="&#xc1;" horiz-adv-x="652" 
d="M11 0h84l65 182h333l64 -182h84l-272 745h-86zM186 257l140 394l139 -394h-279zM288 849h76l114 150h-103z" />
    <glyph glyph-name="Acircumflex" unicode="&#xc2;" horiz-adv-x="652" 
d="M11 0h84l65 182h333l64 -182h84l-272 745h-86zM186 257l140 394l139 -394h-279zM164 849h88l74 91l75 -91h88l-121 150h-84z" />
    <glyph glyph-name="Atilde" unicode="&#xc3;" horiz-adv-x="652" 
d="M11 0h84l65 182h333l64 -182h84l-272 745h-86zM186 257l140 394l139 -394h-279zM385 849c30.667 0 54.999 11.332 72.999 33.999s27 52.334 27 89.001h-61c0 -39.333 -13 -59 -39 -59c-11.333 0 -20.833 3.16699 -28.5 9.5s-15.167 13.666 -22.5 21.999
s-16.333 15.666 -27 21.999s-24.667 9.5 -42 9.5c-30 0 -53.833 -10.5 -71.5 -31.5s-26.5 -51.5 -26.5 -91.5h62c0 22 3.33301 37.333 10 46s15.334 13 26.001 13c11.333 0 20.833 -3.16699 28.5 -9.5s15.167 -13.666 22.5 -21.999s16.333 -15.666 27 -21.999
s24.667 -9.5 42 -9.5z" />
    <glyph glyph-name="Adieresis" unicode="&#xc4;" horiz-adv-x="652" 
d="M11 0h84l65 182h333l64 -182h84l-272 745h-86zM186 257l140 394l139 -394h-279zM186 849h100v100h-100v-100zM366 849h100v100h-100v-100z" />
    <glyph glyph-name="Aring" unicode="&#xc5;" horiz-adv-x="652" 
d="M11 0h84l65 182h333l64 -182h84l-272 745h-86zM186 257l140 394l139 -394h-279zM326 829c29.333 0 55 9.66699 77 29s33 45.333 33 78c0 33.333 -11 59.666 -33 78.999s-47.667 29 -77 29c-30 0 -55.833 -9.66699 -77.5 -29s-32.5 -45.666 -32.5 -78.999
s11 -59.5 33 -78.5s47.667 -28.5 77 -28.5zM326 883c-14.667 0 -27 4.83301 -37 14.5s-15 22.5 -15 38.5c0 16.667 5.16699 29.667 15.5 39s22.5 14 36.5 14c14.667 0 27 -4.83301 37 -14.5s15 -22.5 15 -38.5s-5 -28.833 -15 -38.5s-22.333 -14.5 -37 -14.5z" />
    <glyph glyph-name="AE" unicode="&#xc6;" horiz-adv-x="985" 
d="M11 0h84l65 182h301v-182h480v75h-400v261h380v75h-380v259h400v75h-658zM186 257l147 413h128v-413h-275z" />
    <glyph glyph-name="Ccedilla" unicode="&#xc7;" horiz-adv-x="781" 
d="M428 -12c50.667 0 96.167 9 136.5 27s74.333 41.167 102 69.5s47.5 57.833 59.5 88.5l-75 33c-18.667 -43.333 -47.167 -78 -85.5 -104s-84.166 -39 -137.499 -39c-54.667 0 -103.334 12.833 -146.001 38.5s-76 61.834 -100 108.501s-36 100.667 -36 162
c0 62 12 116.167 36 162.5s57.333 82.5 100 108.5s91.334 39 146.001 39c53.333 0 99.166 -13.167 137.499 -39.5s66.833 -61.166 85.5 -104.499l75 33c-12 31.333 -31.833 61.166 -59.5 89.499s-61.667 51.5 -102 69.5s-85.833 27 -136.5 27
c-52.667 0 -101 -9.5 -145 -28.5s-82.167 -45.833 -114.5 -80.5s-57.5 -75.334 -75.5 -122.001s-27 -98 -27 -154s9 -107.333 27 -154s43.167 -87.167 75.5 -121.5s70.5 -61 114.5 -80s92.333 -28.5 145 -28.5zM440 -230c32 0 58.499 9 79.499 27s31.5 41 31.5 69
c0 48.667 -35 80.667 -105 96l13 48h-54l-24 -84c34.667 -4 59.667 -10.333 75 -19s23 -20.667 23 -36c0 -12 -4.5 -21.833 -13.5 -29.5s-20.833 -11.5 -35.5 -11.5c-27.333 0 -51.666 10 -72.999 30l-21 -53c12 -11.333 27.5 -20.333 46.5 -27s38.167 -10 57.5 -10z" />
    <glyph glyph-name="Egrave" unicode="&#xc8;" horiz-adv-x="612" 
d="M88 0h480v75h-400v261h380v75h-380v259h400v75h-480v-745zM290 849h76l-87 150h-103z" />
    <glyph glyph-name="Eacute" unicode="&#xc9;" horiz-adv-x="612" 
d="M88 0h480v75h-400v261h380v75h-380v259h400v75h-480v-745zM290 849h76l114 150h-103z" />
    <glyph glyph-name="Ecircumflex" unicode="&#xca;" horiz-adv-x="612" 
d="M88 0h480v75h-400v261h380v75h-380v259h400v75h-480v-745zM166 849h88l74 91l75 -91h88l-121 150h-84z" />
    <glyph glyph-name="Edieresis" unicode="&#xcb;" horiz-adv-x="612" 
d="M88 0h480v75h-400v261h380v75h-380v259h400v75h-480v-745zM188 849h100v100h-100v-100zM368 849h100v100h-100v-100z" />
    <glyph glyph-name="Igrave" unicode="&#xcc;" horiz-adv-x="256" 
d="M88 0h80v745h-80v-745zM90 849h76l-87 150h-103z" />
    <glyph glyph-name="Iacute" unicode="&#xcd;" horiz-adv-x="256" 
d="M88 0h80v745h-80v-745zM90 849h76l114 150h-103z" />
    <glyph glyph-name="Icircumflex" unicode="&#xce;" horiz-adv-x="256" 
d="M88 0h80v745h-80v-745zM-34 849h88l74 91l75 -91h88l-121 150h-84z" />
    <glyph glyph-name="Idieresis" unicode="&#xcf;" horiz-adv-x="256" 
d="M88 0h80v745h-80v-745zM-12 849h100v100h-100v-100zM168 849h100v100h-100v-100z" />
    <glyph glyph-name="Eth" unicode="&#xd0;" horiz-adv-x="742" 
d="M88 0h245c74 -0 138.333 15.333 193 46s97 74 127 130s45 121.667 45 197c0 76 -15 141.833 -45 197.5s-72.333 98.667 -127 129s-119 45.5 -193 45.5h-245v-337h-60v-70h60v-338zM168 75v263h160v70h-160v262h165c56.667 0 106 -12.167 148 -36.5
s74.667 -58.666 98 -102.999s35 -96.833 35 -157.5s-11.5 -113.334 -34.5 -158.001s-55.5 -79.167 -97.5 -103.5s-91.667 -36.5 -149 -36.5h-165z" />
    <glyph glyph-name="Ntilde" unicode="&#xd1;" horiz-adv-x="736" 
d="M88 0h80v592l410 -592h70v745h-80v-588l-410 588h-70v-745zM427 849c30.667 0 54.999 11.332 72.999 33.999s27 52.334 27 89.001h-61c0 -39.333 -13 -59 -39 -59c-11.333 0 -20.833 3.16699 -28.5 9.5s-15.167 13.666 -22.5 21.999s-16.333 15.666 -27 21.999
s-24.667 9.5 -42 9.5c-30 0 -53.833 -10.5 -71.5 -31.5s-26.5 -51.5 -26.5 -91.5h62c0 22 3.33301 37.333 10 46s15.334 13 26.001 13c11.333 0 20.833 -3.16699 28.5 -9.5s15.167 -13.666 22.5 -21.999s16.333 -15.666 27 -21.999s24.667 -9.5 42 -9.5z" />
    <glyph glyph-name="Ograve" unicode="&#xd2;" horiz-adv-x="878" 
d="M439 -12c52 0 100.5 9.5 145.5 28.5s84.5 45.667 118.5 80s60.667 75 80 122s29 98.5 29 154.5s-9.66699 107.333 -29 154s-46 87.167 -80 121.5s-73.5 61 -118.5 80s-93.5 28.5 -145.5 28.5s-100.5 -9.33301 -145.5 -28s-84.5 -45.167 -118.5 -79.5
s-60.667 -75 -80 -122s-29 -98.5 -29 -154.5s9.66699 -107.5 29 -154.5s46 -87.667 80 -122s73.5 -61 118.5 -80s93.5 -28.5 145.5 -28.5zM439 63c-57.333 0 -108 14 -152 42s-78.5 65.5 -103.5 112.5s-37.5 98.833 -37.5 155.5c0 42 7.16699 81.667 21.5 119
s34.5 70.333 60.5 99s56.833 51 92.5 67s75.167 24 118.5 24s82.833 -8 118.5 -24s66.5 -38.333 92.5 -67s46.167 -61.667 60.5 -99s21.5 -77 21.5 -119c0 -56.667 -12.5 -108.5 -37.5 -155.5s-59.5 -84.5 -103.5 -112.5s-94.667 -42 -152 -42zM401 849h76l-87 150h-103z
" />
    <glyph glyph-name="Oacute" unicode="&#xd3;" horiz-adv-x="878" 
d="M439 -12c52 0 100.5 9.5 145.5 28.5s84.5 45.667 118.5 80s60.667 75 80 122s29 98.5 29 154.5s-9.66699 107.333 -29 154s-46 87.167 -80 121.5s-73.5 61 -118.5 80s-93.5 28.5 -145.5 28.5s-100.5 -9.33301 -145.5 -28s-84.5 -45.167 -118.5 -79.5
s-60.667 -75 -80 -122s-29 -98.5 -29 -154.5s9.66699 -107.5 29 -154.5s46 -87.667 80 -122s73.5 -61 118.5 -80s93.5 -28.5 145.5 -28.5zM439 63c-57.333 0 -108 14 -152 42s-78.5 65.5 -103.5 112.5s-37.5 98.833 -37.5 155.5c0 42 7.16699 81.667 21.5 119
s34.5 70.333 60.5 99s56.833 51 92.5 67s75.167 24 118.5 24s82.833 -8 118.5 -24s66.5 -38.333 92.5 -67s46.167 -61.667 60.5 -99s21.5 -77 21.5 -119c0 -56.667 -12.5 -108.5 -37.5 -155.5s-59.5 -84.5 -103.5 -112.5s-94.667 -42 -152 -42zM401 849h76l114 150h-103z
" />
    <glyph glyph-name="Ocircumflex" unicode="&#xd4;" horiz-adv-x="878" 
d="M439 -12c52 0 100.5 9.5 145.5 28.5s84.5 45.667 118.5 80s60.667 75 80 122s29 98.5 29 154.5s-9.66699 107.333 -29 154s-46 87.167 -80 121.5s-73.5 61 -118.5 80s-93.5 28.5 -145.5 28.5s-100.5 -9.33301 -145.5 -28s-84.5 -45.167 -118.5 -79.5
s-60.667 -75 -80 -122s-29 -98.5 -29 -154.5s9.66699 -107.5 29 -154.5s46 -87.667 80 -122s73.5 -61 118.5 -80s93.5 -28.5 145.5 -28.5zM439 63c-57.333 0 -108 14 -152 42s-78.5 65.5 -103.5 112.5s-37.5 98.833 -37.5 155.5c0 42 7.16699 81.667 21.5 119
s34.5 70.333 60.5 99s56.833 51 92.5 67s75.167 24 118.5 24s82.833 -8 118.5 -24s66.5 -38.333 92.5 -67s46.167 -61.667 60.5 -99s21.5 -77 21.5 -119c0 -56.667 -12.5 -108.5 -37.5 -155.5s-59.5 -84.5 -103.5 -112.5s-94.667 -42 -152 -42zM277 849h88l74 91l75 -91h88
l-121 150h-84z" />
    <glyph glyph-name="Otilde" unicode="&#xd5;" horiz-adv-x="878" 
d="M439 -12c52 0 100.5 9.5 145.5 28.5s84.5 45.667 118.5 80s60.667 75 80 122s29 98.5 29 154.5s-9.66699 107.333 -29 154s-46 87.167 -80 121.5s-73.5 61 -118.5 80s-93.5 28.5 -145.5 28.5s-100.5 -9.33301 -145.5 -28s-84.5 -45.167 -118.5 -79.5
s-60.667 -75 -80 -122s-29 -98.5 -29 -154.5s9.66699 -107.5 29 -154.5s46 -87.667 80 -122s73.5 -61 118.5 -80s93.5 -28.5 145.5 -28.5zM439 63c-57.333 0 -108 14 -152 42s-78.5 65.5 -103.5 112.5s-37.5 98.833 -37.5 155.5c0 42 7.16699 81.667 21.5 119
s34.5 70.333 60.5 99s56.833 51 92.5 67s75.167 24 118.5 24s82.833 -8 118.5 -24s66.5 -38.333 92.5 -67s46.167 -61.667 60.5 -99s21.5 -77 21.5 -119c0 -56.667 -12.5 -108.5 -37.5 -155.5s-59.5 -84.5 -103.5 -112.5s-94.667 -42 -152 -42zM498 849
c30.667 0 54.999 11.332 72.999 33.999s27 52.334 27 89.001h-61c0 -39.333 -13 -59 -39 -59c-11.333 0 -20.833 3.16699 -28.5 9.5s-15.167 13.666 -22.5 21.999s-16.333 15.666 -27 21.999s-24.667 9.5 -42 9.5c-30 0 -53.833 -10.5 -71.5 -31.5s-26.5 -51.5 -26.5 -91.5
h62c0 22 3.33301 37.333 10 46s15.334 13 26.001 13c11.333 0 20.833 -3.16699 28.5 -9.5s15.167 -13.666 22.5 -21.999s16.333 -15.666 27 -21.999s24.667 -9.5 42 -9.5z" />
    <glyph glyph-name="Odieresis" unicode="&#xd6;" horiz-adv-x="878" 
d="M439 -12c52 0 100.5 9.5 145.5 28.5s84.5 45.667 118.5 80s60.667 75 80 122s29 98.5 29 154.5s-9.66699 107.333 -29 154s-46 87.167 -80 121.5s-73.5 61 -118.5 80s-93.5 28.5 -145.5 28.5s-100.5 -9.33301 -145.5 -28s-84.5 -45.167 -118.5 -79.5
s-60.667 -75 -80 -122s-29 -98.5 -29 -154.5s9.66699 -107.5 29 -154.5s46 -87.667 80 -122s73.5 -61 118.5 -80s93.5 -28.5 145.5 -28.5zM439 63c-57.333 0 -108 14 -152 42s-78.5 65.5 -103.5 112.5s-37.5 98.833 -37.5 155.5c0 42 7.16699 81.667 21.5 119
s34.5 70.333 60.5 99s56.833 51 92.5 67s75.167 24 118.5 24s82.833 -8 118.5 -24s66.5 -38.333 92.5 -67s46.167 -61.667 60.5 -99s21.5 -77 21.5 -119c0 -56.667 -12.5 -108.5 -37.5 -155.5s-59.5 -84.5 -103.5 -112.5s-94.667 -42 -152 -42zM299 849h100v100h-100v-100z
M479 849h100v100h-100v-100z" />
    <glyph glyph-name="multiply" unicode="&#xd7;" horiz-adv-x="606" 
d="M138 0l165 165l165 -165l53 53l-165 165l164 164l-53 53l-164 -164l-164 164l-53 -53l164 -164l-165 -165z" />
    <glyph glyph-name="Oslash" unicode="&#xd8;" horiz-adv-x="878" 
d="M82 0h104l42 52c30 -20.667 62.833 -36.5 98.5 -47.5s73.167 -16.5 112.5 -16.5c52 0 100.5 9.5 145.5 28.5s84.5 45.667 118.5 80s60.667 75 80 122s29 98.5 29 154.5c0 53.333 -9 102.833 -27 148.5s-42.667 85.5 -74 119.5l85 104h-104l-42 -52
c-30 20.667 -62.833 36.5 -98.5 47.5s-73.167 16.5 -112.5 16.5c-52 0 -100.5 -9.33301 -145.5 -28s-84.5 -45.167 -118.5 -79.5s-60.667 -75 -80 -122s-29 -98.5 -29 -154.5c0 -54 9 -103.833 27 -149.5s42.667 -85.5 74 -119.5zM146 373c0 42 7.16797 81.667 21.501 119
s34.5 70.333 60.5 99s56.833 51 92.5 67s75.167 24 118.5 24c30.667 0 59.667 -4.16699 87 -12.5s52.333 -20.166 75 -35.499l-383 -468c-22.667 27.333 -40.334 58.666 -53.001 93.999s-19 73 -19 113zM439.001 63c-30.667 0 -59.668 4.16602 -87.001 12.499
s-52.333 20.166 -75 35.499l383 468c22.667 -27.333 40.334 -58.666 53.001 -93.999s19 -72.666 19 -111.999c0 -56.667 -12.5 -108.5 -37.5 -155.5s-59.5 -84.5 -103.5 -112.5s-94.667 -42 -152 -42z" />
    <glyph glyph-name="Ugrave" unicode="&#xd9;" horiz-adv-x="700" 
d="M350 -12c53.333 0 99.833 11 139.5 33s70.5 52.167 92.5 90.5s33 82.166 33 131.499v502h-80v-502c0 -54 -17 -97.5 -51 -130.5s-78.667 -49.5 -134 -49.5c-54.667 0 -99.167 16.5 -133.5 49.5s-51.5 76.5 -51.5 130.5v502h-80v-502c0 -49.333 11 -93.166 33 -131.499
s53 -68.5 93 -90.5s86.333 -33 139 -33zM312 849h76l-87 150h-103z" />
    <glyph glyph-name="Uacute" unicode="&#xda;" horiz-adv-x="700" 
d="M350 -12c53.333 0 99.833 11 139.5 33s70.5 52.167 92.5 90.5s33 82.166 33 131.499v502h-80v-502c0 -54 -17 -97.5 -51 -130.5s-78.667 -49.5 -134 -49.5c-54.667 0 -99.167 16.5 -133.5 49.5s-51.5 76.5 -51.5 130.5v502h-80v-502c0 -49.333 11 -93.166 33 -131.499
s53 -68.5 93 -90.5s86.333 -33 139 -33zM312 849h76l114 150h-103z" />
    <glyph glyph-name="Ucircumflex" unicode="&#xdb;" horiz-adv-x="700" 
d="M350 -12c53.333 0 99.833 11 139.5 33s70.5 52.167 92.5 90.5s33 82.166 33 131.499v502h-80v-502c0 -54 -17 -97.5 -51 -130.5s-78.667 -49.5 -134 -49.5c-54.667 0 -99.167 16.5 -133.5 49.5s-51.5 76.5 -51.5 130.5v502h-80v-502c0 -49.333 11 -93.166 33 -131.499
s53 -68.5 93 -90.5s86.333 -33 139 -33zM188 849h88l74 91l75 -91h88l-121 150h-84z" />
    <glyph glyph-name="Udieresis" unicode="&#xdc;" horiz-adv-x="700" 
d="M350 -12c53.333 0 99.833 11 139.5 33s70.5 52.167 92.5 90.5s33 82.166 33 131.499v502h-80v-502c0 -54 -17 -97.5 -51 -130.5s-78.667 -49.5 -134 -49.5c-54.667 0 -99.167 16.5 -133.5 49.5s-51.5 76.5 -51.5 130.5v502h-80v-502c0 -49.333 11 -93.166 33 -131.499
s53 -68.5 93 -90.5s86.333 -33 139 -33zM210 849h100v100h-100v-100zM390 849h100v100h-100v-100z" />
    <glyph glyph-name="Yacute" unicode="&#xdd;" horiz-adv-x="623" 
d="M272 0h80v346l260 399h-89l-211 -323l-212 323h-89l261 -399v-346zM274 849h76l114 150h-103z" />
    <glyph glyph-name="Thorn" unicode="&#xde;" horiz-adv-x="635" 
d="M80 0l80.0029 0.000976562v145h176c49.333 0 92.166 9.5 128.499 28.5s64.666 45.5 84.999 79.5s30.5 73.667 30.5 119s-10.167 85.166 -30.5 119.499s-48.833 61 -85.5 80s-79.334 28.5 -128.001 28.5h-176v145h-80v-745zM160.003 220.001v304.999h180
c48 0 86.667 -13.5 116 -40.5s44 -64.167 44 -111.5s-14.667 -84.666 -44 -111.999s-68 -41 -116 -41h-180z" />
    <glyph glyph-name="germandbls" unicode="&#xdf;" horiz-adv-x="603" 
d="M88 -150h75.0039v690c0 45.333 13.5 81.166 40.5 107.499s61.167 39.5 102.5 39.5c39.333 0 71.166 -11.667 95.499 -35s36.5 -53.666 36.5 -90.999c0 -38 -12.333 -69.333 -37 -94s-56.334 -37 -95.001 -37h-53v-70h59c47.333 0 85.166 -13.333 113.499 -40
s42.5 -61.667 42.5 -105s-14.167 -78.333 -42.5 -105s-66.166 -40 -113.499 -40h-59v-70h59c48 -0 89.667 8.83301 125 26.5s62.666 42.667 81.999 75s29 70.166 29 113.499c0 84.667 -40.333 145.667 -121 183c28.667 14.667 51 36.834 67 66.501s24 63.5 24 101.5
c0 38.667 -8.83301 72.167 -26.5 100.5s-42.334 50.5 -74.001 66.5s-68.5 24 -110.5 24s-79.5 -8.83301 -112.5 -26.5s-59 -42.667 -78 -75s-28.5 -70.833 -28.5 -115.5v-690z" />
    <glyph glyph-name="agrave" unicode="&#xe0;" horiz-adv-x="572" 
d="M232 -12c41.333 0 78.666 8.33398 111.999 25.001s58.666 38 75.999 64v-77h75v368c0 35.333 -8.5 66.5 -25.5 93.5s-40.667 48.167 -71 63.5s-65.166 23 -104.499 23c-30 0 -59 -5.5 -87 -16.5s-52.833 -25.833 -74.5 -44.5s-37.5 -39.334 -47.5 -62.001l68 -37
c12 26 30.333 47.167 55 63.5s53.334 24.5 86.001 24.5c37.333 0 67.666 -10 90.999 -30s35 -46 35 -78v-28l-194 -32c-59.333 -10 -102.666 -30.333 -129.999 -61s-41 -66.667 -41 -108c0 -29.333 7.66699 -55.333 23 -78s36.333 -40.5 63 -53.5s57 -19.5 91 -19.5z
M135 142.001c0 24.667 8.49902 46.002 25.499 64.002s44.833 30.333 83.5 37l176 29v-40c0 -32.667 -7.66699 -62.334 -23 -89.001s-36.666 -47.834 -63.999 -63.501s-59.333 -23.5 -96 -23.5c-30 0 -54.5 8.33301 -73.5 25s-28.5 37 -28.5 61zM255.999 640.003h76l-87 150
h-103z" />
    <glyph glyph-name="aacute" unicode="&#xe1;" horiz-adv-x="572" 
d="M232 -12c41.333 0 78.666 8.33398 111.999 25.001s58.666 38 75.999 64v-77h75v368c0 35.333 -8.5 66.5 -25.5 93.5s-40.667 48.167 -71 63.5s-65.166 23 -104.499 23c-30 0 -59 -5.5 -87 -16.5s-52.833 -25.833 -74.5 -44.5s-37.5 -39.334 -47.5 -62.001l68 -37
c12 26 30.333 47.167 55 63.5s53.334 24.5 86.001 24.5c37.333 0 67.666 -10 90.999 -30s35 -46 35 -78v-28l-194 -32c-59.333 -10 -102.666 -30.333 -129.999 -61s-41 -66.667 -41 -108c0 -29.333 7.66699 -55.333 23 -78s36.333 -40.5 63 -53.5s57 -19.5 91 -19.5z
M135 142.001c0 24.667 8.49902 46.002 25.499 64.002s44.833 30.333 83.5 37l176 29v-40c0 -32.667 -7.66699 -62.334 -23 -89.001s-36.666 -47.834 -63.999 -63.501s-59.333 -23.5 -96 -23.5c-30 0 -54.5 8.33301 -73.5 25s-28.5 37 -28.5 61zM255.999 640.003h76l114 150
h-103z" />
    <glyph glyph-name="acircumflex" unicode="&#xe2;" horiz-adv-x="572" 
d="M232 -12c41.333 0 78.666 8.33398 111.999 25.001s58.666 38 75.999 64v-77h75v368c0 35.333 -8.5 66.5 -25.5 93.5s-40.667 48.167 -71 63.5s-65.166 23 -104.499 23c-30 0 -59 -5.5 -87 -16.5s-52.833 -25.833 -74.5 -44.5s-37.5 -39.334 -47.5 -62.001l68 -37
c12 26 30.333 47.167 55 63.5s53.334 24.5 86.001 24.5c37.333 0 67.666 -10 90.999 -30s35 -46 35 -78v-28l-194 -32c-59.333 -10 -102.666 -30.333 -129.999 -61s-41 -66.667 -41 -108c0 -29.333 7.66699 -55.333 23 -78s36.333 -40.5 63 -53.5s57 -19.5 91 -19.5z
M135 142.001c0 24.667 8.49902 46.002 25.499 64.002s44.833 30.333 83.5 37l176 29v-40c0 -32.667 -7.66699 -62.334 -23 -89.001s-36.666 -47.834 -63.999 -63.501s-59.333 -23.5 -96 -23.5c-30 0 -54.5 8.33301 -73.5 25s-28.5 37 -28.5 61zM131.999 640.003h88l74 91
l75 -91h88l-121 150h-84z" />
    <glyph glyph-name="atilde" unicode="&#xe3;" horiz-adv-x="572" 
d="M232 -12c41.333 0 78.666 8.33398 111.999 25.001s58.666 38 75.999 64v-77h75v368c0 35.333 -8.5 66.5 -25.5 93.5s-40.667 48.167 -71 63.5s-65.166 23 -104.499 23c-30 0 -59 -5.5 -87 -16.5s-52.833 -25.833 -74.5 -44.5s-37.5 -39.334 -47.5 -62.001l68 -37
c12 26 30.333 47.167 55 63.5s53.334 24.5 86.001 24.5c37.333 0 67.666 -10 90.999 -30s35 -46 35 -78v-28l-194 -32c-59.333 -10 -102.666 -30.333 -129.999 -61s-41 -66.667 -41 -108c0 -29.333 7.66699 -55.333 23 -78s36.333 -40.5 63 -53.5s57 -19.5 91 -19.5z
M135 142.001c0 24.667 8.49902 46.002 25.499 64.002s44.833 30.333 83.5 37l176 29v-40c0 -32.667 -7.66699 -62.334 -23 -89.001s-36.666 -47.834 -63.999 -63.501s-59.333 -23.5 -96 -23.5c-30 0 -54.5 8.33301 -73.5 25s-28.5 37 -28.5 61zM352.999 640.003
c30.667 0 54.999 11.332 72.999 33.999s27 52.334 27 89.001h-61c0 -39.333 -13 -59 -39 -59c-11.333 0 -20.833 3.16699 -28.5 9.5s-15.167 13.666 -22.5 21.999s-16.333 15.666 -27 21.999s-24.667 9.5 -42 9.5c-30 0 -53.833 -10.5 -71.5 -31.5s-26.5 -51.5 -26.5 -91.5
h62c0 22 3.33301 37.333 10 46s15.334 13 26.001 13c11.333 0 20.833 -3.16699 28.5 -9.5s15.167 -13.666 22.5 -21.999s16.333 -15.666 27 -21.999s24.667 -9.5 42 -9.5z" />
    <glyph glyph-name="adieresis" unicode="&#xe4;" horiz-adv-x="572" 
d="M232 -12c41.333 0 78.666 8.33398 111.999 25.001s58.666 38 75.999 64v-77h75v368c0 35.333 -8.5 66.5 -25.5 93.5s-40.667 48.167 -71 63.5s-65.166 23 -104.499 23c-30 0 -59 -5.5 -87 -16.5s-52.833 -25.833 -74.5 -44.5s-37.5 -39.334 -47.5 -62.001l68 -37
c12 26 30.333 47.167 55 63.5s53.334 24.5 86.001 24.5c37.333 0 67.666 -10 90.999 -30s35 -46 35 -78v-28l-194 -32c-59.333 -10 -102.666 -30.333 -129.999 -61s-41 -66.667 -41 -108c0 -29.333 7.66699 -55.333 23 -78s36.333 -40.5 63 -53.5s57 -19.5 91 -19.5z
M135 142.001c0 24.667 8.49902 46.002 25.499 64.002s44.833 30.333 83.5 37l176 29v-40c0 -32.667 -7.66699 -62.334 -23 -89.001s-36.666 -47.834 -63.999 -63.501s-59.333 -23.5 -96 -23.5c-30 0 -54.5 8.33301 -73.5 25s-28.5 37 -28.5 61zM153.999 640.003h100v100
h-100v-100zM333.999 640.003h100v100h-100v-100z" />
    <glyph glyph-name="aring" unicode="&#xe5;" horiz-adv-x="572" 
d="M232 -12c41.333 0 78.666 8.33398 111.999 25.001s58.666 38 75.999 64v-77h75v368c0 35.333 -8.5 66.5 -25.5 93.5s-40.667 48.167 -71 63.5s-65.166 23 -104.499 23c-30 0 -59 -5.5 -87 -16.5s-52.833 -25.833 -74.5 -44.5s-37.5 -39.334 -47.5 -62.001l68 -37
c12 26 30.333 47.167 55 63.5s53.334 24.5 86.001 24.5c37.333 0 67.666 -10 90.999 -30s35 -46 35 -78v-28l-194 -32c-59.333 -10 -102.666 -30.333 -129.999 -61s-41 -66.667 -41 -108c0 -29.333 7.66699 -55.333 23 -78s36.333 -40.5 63 -53.5s57 -19.5 91 -19.5z
M135 142.001c0 24.667 8.49902 46.002 25.499 64.002s44.833 30.333 83.5 37l176 29v-40c0 -32.667 -7.66699 -62.334 -23 -89.001s-36.666 -47.834 -63.999 -63.501s-59.333 -23.5 -96 -23.5c-30 0 -54.5 8.33301 -73.5 25s-28.5 37 -28.5 61zM293.999 620.003
c29.333 0 55 9.66699 77 29s33 45.333 33 78c0 33.333 -11 59.666 -33 78.999s-47.667 29 -77 29c-30 0 -55.833 -9.66699 -77.5 -29s-32.5 -45.666 -32.5 -78.999s11 -59.5 33 -78.5s47.667 -28.5 77 -28.5zM293.999 674.003c-14.667 0 -27 4.83301 -37 14.5
s-15 22.5 -15 38.5c0 16.667 5.16699 29.667 15.5 39s22.5 14 36.5 14c14.667 0 27 -4.83301 37 -14.5s15 -22.5 15 -38.5s-5 -28.833 -15 -38.5s-22.333 -14.5 -37 -14.5z" />
    <glyph glyph-name="ae" unicode="&#xe6;" horiz-adv-x="983" 
d="M232 -12c41.333 0 78.665 8.50488 111.998 25.5049s58.666 38.5 75.999 64.5v-78h75v76c24 -28 52.5 -49.667 85.5 -65s69.167 -23 108.5 -23c36.667 0 70.167 6.16699 100.5 18.5s56.5 28.666 78.5 48.999s38.333 42.5 49 66.5l-64 34
c-16.667 -28 -38.334 -51.333 -65.001 -70s-59.667 -28 -99 -28c-32 0 -62 7.66699 -90 23s-50.833 37 -68.5 65s-27.167 61 -28.5 99h422c1.33301 8.66699 2.33301 17.167 3 25.5s1 15.833 1 22.5c0 32 -5.66699 63.167 -17 93.5s-27.666 57.666 -48.999 81.999
s-47.166 43.666 -77.499 57.999s-64.833 21.5 -103.5 21.5c-42 0 -80.667 -9 -116 -27s-64.333 -43 -87 -75c-15.333 31.333 -39.166 56.166 -71.499 74.499s-69.833 27.5 -112.5 27.5c-30 0 -59 -5.5 -87 -16.5s-52.833 -25.833 -74.5 -44.5s-37.5 -39.334 -47.5 -62.001
l68 -37c12 26 30.333 47.167 55 63.5s53.334 24.5 86.001 24.5c37.333 0 67.666 -10 90.999 -30s35 -46 35 -78v-28l-194 -32c-59.333 -10 -102.666 -30.333 -129.999 -61s-41 -66.667 -41 -108c0 -29.333 7.66699 -55.333 23 -78s36.333 -40.5 63 -53.5s57 -19.5 91 -19.5z
M503.999 315.005c4 33.333 14.499 62.168 31.499 86.501s38.333 43.166 64 56.499s52.834 20 81.501 20c30 0 57.667 -7 83 -21s45.5 -33.167 60.5 -57.5s22.5 -52.5 22.5 -84.5h-343zM236.998 56.0068c-30 0 -54.501 8.33496 -73.501 25.002s-28.5 37 -28.5 61
c0 24.667 8.5 46 25.5 64s44.833 30.333 83.5 37l176 29v-40c0 -32.667 -7.66699 -62.334 -23 -89.001s-36.666 -47.834 -63.999 -63.501s-59.333 -23.5 -96 -23.5z" />
    <glyph glyph-name="ccedilla" unicode="&#xe7;" horiz-adv-x="600" 
d="M322 -12c33.333 0 64.668 5.99902 94.001 17.999s55.333 28.333 78 49s39.667 44 51 70l-68 37c-14 -30 -34.5 -54 -61.5 -72s-58.167 -27 -93.5 -27s-67.166 9 -95.499 27s-50.666 42.5 -66.999 73.5s-24.5 65.833 -24.5 104.5c0 39.333 8.16699 74.5 24.5 105.5
s38.666 55.333 66.999 73s60.166 26.5 95.499 26.5s66.666 -9 93.999 -27s47.666 -41.333 60.999 -70l68 35c-11.333 26.667 -28.333 50.167 -51 70.5s-48.667 36.5 -78 48.5s-60.666 18 -93.999 18c-52.667 0 -99 -12.167 -139 -36.5s-71.333 -57.5 -94 -99.5
s-34 -89.667 -34 -143s11.333 -101.166 34 -143.499s54 -75.833 94 -100.5s86.333 -37 139 -37zM334.002 -230.001c32 0 58.499 9 79.499 27s31.5 41 31.5 69c0 48.667 -35 80.667 -105 96l13 48h-54l-24 -84c34.667 -4 59.667 -10.333 75 -19s23 -20.667 23 -36
c0 -12 -4.5 -21.833 -13.5 -29.5s-20.833 -11.5 -35.5 -11.5c-27.333 0 -51.666 10 -72.999 30l-21 -53c12 -11.333 27.5 -20.333 46.5 -27s38.167 -10 57.5 -10z" />
    <glyph glyph-name="egrave" unicode="&#xe8;" horiz-adv-x="615" 
d="M321 -12c36.667 0 70.167 6.16895 100.5 18.502s56.5 28.666 78.5 48.999s38.333 42.5 49 66.5l-64 34c-16.667 -28 -38.334 -51.333 -65.001 -70s-59.667 -28 -99 -28c-32 0 -62 7.66699 -90 23s-50.833 36.833 -68.5 64.5s-27.167 60.834 -28.5 99.501h422
c1.33301 8.66699 2.33301 17.167 3 25.5s1 15.833 1 22.5c0 32 -5.66699 63.167 -17 93.5s-27.666 57.666 -48.999 81.999s-47.166 43.666 -77.499 57.999s-64.833 21.5 -103.5 21.5c-48.667 0 -92.5 -12 -131.5 -36s-69.833 -56.833 -92.5 -98.5s-34 -89.5 -34 -143.5
s11.667 -102.333 35 -145s55.166 -76.167 95.499 -100.5s85.5 -36.5 135.5 -36.5zM313 478.002c30 0 57.501 -6.99805 82.501 -20.998s45 -33.167 60 -57.5s22.833 -52.5 23.5 -84.5h-343c4 33.333 14.5 62.166 31.5 86.499s38.167 43.166 63.5 56.499s52.666 20 81.999 20z
M270.001 640.004h76l-87 150h-103z" />
    <glyph glyph-name="eacute" unicode="&#xe9;" horiz-adv-x="615" 
d="M321 -12c36.667 0 70.167 6.16895 100.5 18.502s56.5 28.666 78.5 48.999s38.333 42.5 49 66.5l-64 34c-16.667 -28 -38.334 -51.333 -65.001 -70s-59.667 -28 -99 -28c-32 0 -62 7.66699 -90 23s-50.833 36.833 -68.5 64.5s-27.167 60.834 -28.5 99.501h422
c1.33301 8.66699 2.33301 17.167 3 25.5s1 15.833 1 22.5c0 32 -5.66699 63.167 -17 93.5s-27.666 57.666 -48.999 81.999s-47.166 43.666 -77.499 57.999s-64.833 21.5 -103.5 21.5c-48.667 0 -92.5 -12 -131.5 -36s-69.833 -56.833 -92.5 -98.5s-34 -89.5 -34 -143.5
s11.667 -102.333 35 -145s55.166 -76.167 95.499 -100.5s85.5 -36.5 135.5 -36.5zM313 478.002c30 0 57.501 -6.99805 82.501 -20.998s45 -33.167 60 -57.5s22.833 -52.5 23.5 -84.5h-343c4 33.333 14.5 62.166 31.5 86.499s38.167 43.166 63.5 56.499s52.666 20 81.999 20z
M270.001 640.004h76l114 150h-103z" />
    <glyph glyph-name="ecircumflex" unicode="&#xea;" horiz-adv-x="615" 
d="M321 -12c36.667 0 70.167 6.16895 100.5 18.502s56.5 28.666 78.5 48.999s38.333 42.5 49 66.5l-64 34c-16.667 -28 -38.334 -51.333 -65.001 -70s-59.667 -28 -99 -28c-32 0 -62 7.66699 -90 23s-50.833 36.833 -68.5 64.5s-27.167 60.834 -28.5 99.501h422
c1.33301 8.66699 2.33301 17.167 3 25.5s1 15.833 1 22.5c0 32 -5.66699 63.167 -17 93.5s-27.666 57.666 -48.999 81.999s-47.166 43.666 -77.499 57.999s-64.833 21.5 -103.5 21.5c-48.667 0 -92.5 -12 -131.5 -36s-69.833 -56.833 -92.5 -98.5s-34 -89.5 -34 -143.5
s11.667 -102.333 35 -145s55.166 -76.167 95.499 -100.5s85.5 -36.5 135.5 -36.5zM313 478.002c30 0 57.501 -6.99805 82.501 -20.998s45 -33.167 60 -57.5s22.833 -52.5 23.5 -84.5h-343c4 33.333 14.5 62.166 31.5 86.499s38.167 43.166 63.5 56.499s52.666 20 81.999 20z
M146.001 640.004h88l74 91l75 -91h88l-121 150h-84z" />
    <glyph glyph-name="edieresis" unicode="&#xeb;" horiz-adv-x="615" 
d="M321 -12c36.667 0 70.167 6.16895 100.5 18.502s56.5 28.666 78.5 48.999s38.333 42.5 49 66.5l-64 34c-16.667 -28 -38.334 -51.333 -65.001 -70s-59.667 -28 -99 -28c-32 0 -62 7.66699 -90 23s-50.833 36.833 -68.5 64.5s-27.167 60.834 -28.5 99.501h422
c1.33301 8.66699 2.33301 17.167 3 25.5s1 15.833 1 22.5c0 32 -5.66699 63.167 -17 93.5s-27.666 57.666 -48.999 81.999s-47.166 43.666 -77.499 57.999s-64.833 21.5 -103.5 21.5c-48.667 0 -92.5 -12 -131.5 -36s-69.833 -56.833 -92.5 -98.5s-34 -89.5 -34 -143.5
s11.667 -102.333 35 -145s55.166 -76.167 95.499 -100.5s85.5 -36.5 135.5 -36.5zM313 478.002c30 0 57.501 -6.99805 82.501 -20.998s45 -33.167 60 -57.5s22.833 -52.5 23.5 -84.5h-343c4 33.333 14.5 62.166 31.5 86.499s38.167 43.166 63.5 56.499s52.666 20 81.999 20z
M168.001 640.004h100v100h-100v-100zM348.001 640.004h100v100h-100v-100z" />
    <glyph glyph-name="igrave" unicode="&#xec;" horiz-adv-x="199" 
d="M62 0h75v536h-75v-536zM61 640h76l-87 150h-103z" />
    <glyph glyph-name="iacute" unicode="&#xed;" horiz-adv-x="199" 
d="M62 0h75v536h-75v-536zM61 640h76l114 150h-103z" />
    <glyph glyph-name="icircumflex" unicode="&#xee;" horiz-adv-x="199" 
d="M62 0h75v536h-75v-536zM-63 640h88l74 91l75 -91h88l-121 150h-84z" />
    <glyph glyph-name="idieresis" unicode="&#xef;" horiz-adv-x="199" 
d="M62 0h75v536h-75v-536zM-41 640h100v100h-100v-100zM139 640h100v100h-100v-100z" />
    <glyph glyph-name="eth" unicode="&#xf0;" horiz-adv-x="655" 
d="M334 -12c48 0 92.168 11.001 132.501 33.001s72.666 57 96.999 105s36.5 110.667 36.5 188c0 66.667 -10.333 131.667 -31 195s-51.667 118 -93 164l64 23v60l-109 -40c-30.667 24.667 -65.5 44 -104.5 58s-81.833 21 -128.5 21c-44 0 -90 -8 -138 -24l16 -67
c40 14 79.667 21 119 21c27.333 0 53.833 -3.5 79.5 -10.5s49.5 -16.833 71.5 -29.5l-104 -38v-59l159 58c24.667 -22 45.5 -47.667 62.5 -77s29.167 -61 36.5 -95c-24 24 -51.667 40.667 -83 50s-61.333 14 -90 14c-52 0 -98.5 -11.833 -139.5 -35.5
s-73.333 -56.167 -97 -97.5s-35.5 -88 -35.5 -140c0 -52.667 12 -99.834 36 -141.501s57 -74.667 99 -99s90 -36.5 144 -36.5zM328.001 63.001c-34.667 0 -66.667 8.83496 -96 26.502s-52.833 41.667 -70.5 72s-26.5 64.5 -26.5 102.5c0 37.333 8.33301 71 25 101
s39.5 53.833 68.5 71.5s62.167 26.5 99.5 26.5c38 0 71.333 -8.83301 100 -26.5s51.167 -41.334 67.5 -71.001s24.5 -62.834 24.5 -99.501c0 -38 -8.5 -72.333 -25.5 -103s-40 -55 -69 -73s-61.5 -27 -97.5 -27z" />
    <glyph glyph-name="ntilde" unicode="&#xf1;" 
d="M77 0l74.999 0.000976562v319c0 48 13.333 85.667 40 113s60.334 41 101.001 41c41.333 0 74.833 -13.5 100.5 -40.5s38.5 -64.833 38.5 -113.5v-319h75v348c0 38 -8.83301 72.167 -26.5 102.5s-41.667 54.166 -72 71.499s-64.5 26 -102.5 26
c-33.333 0 -63.333 -7 -90 -21s-48 -33 -64 -57v66h-75v-536zM345.999 640.001c30.667 0 54.999 11.332 72.999 33.999s27 52.334 27 89.001h-61c0 -39.333 -13 -59 -39 -59c-11.333 0 -20.833 3.16699 -28.5 9.5s-15.167 13.666 -22.5 21.999s-16.333 15.666 -27 21.999
s-24.667 9.5 -42 9.5c-30 0 -53.833 -10.5 -71.5 -31.5s-26.5 -51.5 -26.5 -91.5h62c0 22 3.33301 37.333 10 46s15.334 13 26.001 13c11.333 0 20.833 -3.16699 28.5 -9.5s15.167 -13.666 22.5 -21.999s16.333 -15.666 27 -21.999s24.667 -9.5 42 -9.5z" />
    <glyph glyph-name="ograve" unicode="&#xf2;" horiz-adv-x="655" 
d="M328 -12c50 0 95.501 11.999 136.501 35.999s73.833 57.167 98.5 99.5s37 90.833 37 145.5c0 54 -11.833 102 -35.5 144s-56 75 -97 99s-87.5 36 -139.5 36s-98.5 -12.167 -139.5 -36.5s-73.5 -57.5 -97.5 -99.5s-36 -89.667 -36 -143c0 -54 12.167 -102.167 36.5 -144.5
s57.166 -75.666 98.499 -99.999s87.333 -36.5 138 -36.5zM328.001 62.999c-36 0 -68.5 9 -97.5 27s-52.167 42.667 -69.5 74s-26 66.333 -26 105s8.66699 73.334 26 104.001s40.5 55 69.5 73s61.5 27 97.5 27s68.5 -9 97.5 -27s52 -42.333 69 -73
s25.5 -65.334 25.5 -104.001s-8.5 -73.667 -25.5 -105s-40 -56 -69 -74s-61.5 -27 -97.5 -27zM290.001 639.999h76l-87 150h-103z" />
    <glyph glyph-name="oacute" unicode="&#xf3;" horiz-adv-x="655" 
d="M328 -12c50 0 95.501 11.999 136.501 35.999s73.833 57.167 98.5 99.5s37 90.833 37 145.5c0 54 -11.833 102 -35.5 144s-56 75 -97 99s-87.5 36 -139.5 36s-98.5 -12.167 -139.5 -36.5s-73.5 -57.5 -97.5 -99.5s-36 -89.667 -36 -143c0 -54 12.167 -102.167 36.5 -144.5
s57.166 -75.666 98.499 -99.999s87.333 -36.5 138 -36.5zM328.001 62.999c-36 0 -68.5 9 -97.5 27s-52.167 42.667 -69.5 74s-26 66.333 -26 105s8.66699 73.334 26 104.001s40.5 55 69.5 73s61.5 27 97.5 27s68.5 -9 97.5 -27s52 -42.333 69 -73
s25.5 -65.334 25.5 -104.001s-8.5 -73.667 -25.5 -105s-40 -56 -69 -74s-61.5 -27 -97.5 -27zM290.001 639.999h76l114 150h-103z" />
    <glyph glyph-name="ocircumflex" unicode="&#xf4;" horiz-adv-x="655" 
d="M328 -12c50 0 95.501 11.999 136.501 35.999s73.833 57.167 98.5 99.5s37 90.833 37 145.5c0 54 -11.833 102 -35.5 144s-56 75 -97 99s-87.5 36 -139.5 36s-98.5 -12.167 -139.5 -36.5s-73.5 -57.5 -97.5 -99.5s-36 -89.667 -36 -143c0 -54 12.167 -102.167 36.5 -144.5
s57.166 -75.666 98.499 -99.999s87.333 -36.5 138 -36.5zM328.001 62.999c-36 0 -68.5 9 -97.5 27s-52.167 42.667 -69.5 74s-26 66.333 -26 105s8.66699 73.334 26 104.001s40.5 55 69.5 73s61.5 27 97.5 27s68.5 -9 97.5 -27s52 -42.333 69 -73
s25.5 -65.334 25.5 -104.001s-8.5 -73.667 -25.5 -105s-40 -56 -69 -74s-61.5 -27 -97.5 -27zM166.001 639.999h88l74 91l75 -91h88l-121 150h-84z" />
    <glyph glyph-name="otilde" unicode="&#xf5;" horiz-adv-x="655" 
d="M328 -12c50 0 95.501 11.999 136.501 35.999s73.833 57.167 98.5 99.5s37 90.833 37 145.5c0 54 -11.833 102 -35.5 144s-56 75 -97 99s-87.5 36 -139.5 36s-98.5 -12.167 -139.5 -36.5s-73.5 -57.5 -97.5 -99.5s-36 -89.667 -36 -143c0 -54 12.167 -102.167 36.5 -144.5
s57.166 -75.666 98.499 -99.999s87.333 -36.5 138 -36.5zM328.001 62.999c-36 0 -68.5 9 -97.5 27s-52.167 42.667 -69.5 74s-26 66.333 -26 105s8.66699 73.334 26 104.001s40.5 55 69.5 73s61.5 27 97.5 27s68.5 -9 97.5 -27s52 -42.333 69 -73
s25.5 -65.334 25.5 -104.001s-8.5 -73.667 -25.5 -105s-40 -56 -69 -74s-61.5 -27 -97.5 -27zM387.001 639.999c30.667 0 54.999 11.332 72.999 33.999s27 52.334 27 89.001h-61c0 -39.333 -13 -59 -39 -59c-11.333 0 -20.833 3.16699 -28.5 9.5
s-15.167 13.666 -22.5 21.999s-16.333 15.666 -27 21.999s-24.667 9.5 -42 9.5c-30 0 -53.833 -10.5 -71.5 -31.5s-26.5 -51.5 -26.5 -91.5h62c0 22 3.33301 37.333 10 46s15.334 13 26.001 13c11.333 0 20.833 -3.16699 28.5 -9.5s15.167 -13.666 22.5 -21.999
s16.333 -15.666 27 -21.999s24.667 -9.5 42 -9.5z" />
    <glyph glyph-name="odieresis" unicode="&#xf6;" horiz-adv-x="655" 
d="M328 -12c50 0 95.501 11.999 136.501 35.999s73.833 57.167 98.5 99.5s37 90.833 37 145.5c0 54 -11.833 102 -35.5 144s-56 75 -97 99s-87.5 36 -139.5 36s-98.5 -12.167 -139.5 -36.5s-73.5 -57.5 -97.5 -99.5s-36 -89.667 -36 -143c0 -54 12.167 -102.167 36.5 -144.5
s57.166 -75.666 98.499 -99.999s87.333 -36.5 138 -36.5zM328.001 62.999c-36 0 -68.5 9 -97.5 27s-52.167 42.667 -69.5 74s-26 66.333 -26 105s8.66699 73.334 26 104.001s40.5 55 69.5 73s61.5 27 97.5 27s68.5 -9 97.5 -27s52 -42.333 69 -73
s25.5 -65.334 25.5 -104.001s-8.5 -73.667 -25.5 -105s-40 -56 -69 -74s-61.5 -27 -97.5 -27zM188.001 639.999h100v100h-100v-100zM368.001 639.999h100v100h-100v-100z" />
    <glyph glyph-name="divide" unicode="&#xf7;" horiz-adv-x="606" 
d="M263 397h80v103h-80v-103zM53 213h500v75h-500v-75zM263 0h80v103h-80v-103z" />
    <glyph glyph-name="oslash" unicode="&#xf8;" horiz-adv-x="655" 
d="M41 0h104.999l30 34c21.333 -14.667 44.833 -26 70.5 -34s52.834 -12 81.501 -12c50 0 95.5 12 136.5 36s73.833 57.167 98.5 99.5s37 90.833 37 145.5c0 35.333 -5.33301 68.333 -16 99s-25.667 57.667 -45 81l76 87h-105l-29 -33c-21.333 14 -45 25 -71 33
s-53.333 12 -82 12c-52 0 -98.5 -12.167 -139.5 -36.5s-73.5 -57.5 -97.5 -99.5s-36 -89.667 -36 -143c0 -35.333 5.5 -68.5 16.5 -99.5s26.167 -58.5 45.5 -82.5zM134.999 269c0 38.667 8.66602 73.3311 25.999 103.998s40.5 55 69.5 73s61.5 27 97.5 27
c36.667 0 70.334 -9.66699 101.001 -29l-259 -296c-10.667 16.667 -19.167 35.334 -25.5 56.001s-9.5 42.334 -9.5 65.001zM327.998 62.9971c-36.667 0 -70.333 9.66699 -101 29l258 296c11.333 -16.667 20 -35 26 -55s9 -41.333 9 -64c0 -38.667 -8.5 -73.667 -25.5 -105
s-40 -56 -69 -74s-61.5 -27 -97.5 -27z" />
    <glyph glyph-name="ugrave" unicode="&#xf9;" 
d="M267 -12c33.333 0 63.3311 7.00195 89.998 21.002s48 33 64 57v-66h75v536h-75v-319c0 -48 -13.167 -85.667 -39.5 -113s-60.166 -41 -101.499 -41c-40.667 0 -74 13.167 -100 39.5s-39 61.166 -39 104.499v329h-75v-338c0 -41.333 8.83301 -77.833 26.5 -109.5
s41.834 -56.334 72.501 -74.001s64.667 -26.5 102 -26.5zM248.998 640.002h76l-87 150h-103z" />
    <glyph glyph-name="uacute" unicode="&#xfa;" 
d="M267 -12c33.333 0 63.3311 7.00195 89.998 21.002s48 33 64 57v-66h75v536h-75v-319c0 -48 -13.167 -85.667 -39.5 -113s-60.166 -41 -101.499 -41c-40.667 0 -74 13.167 -100 39.5s-39 61.166 -39 104.499v329h-75v-338c0 -41.333 8.83301 -77.833 26.5 -109.5
s41.834 -56.334 72.501 -74.001s64.667 -26.5 102 -26.5zM248.998 640.002h76l114 150h-103z" />
    <glyph glyph-name="ucircumflex" unicode="&#xfb;" 
d="M267 -12c33.333 0 63.3311 7.00195 89.998 21.002s48 33 64 57v-66h75v536h-75v-319c0 -48 -13.167 -85.667 -39.5 -113s-60.166 -41 -101.499 -41c-40.667 0 -74 13.167 -100 39.5s-39 61.166 -39 104.499v329h-75v-338c0 -41.333 8.83301 -77.833 26.5 -109.5
s41.834 -56.334 72.501 -74.001s64.667 -26.5 102 -26.5zM124.998 640.002h88l74 91l75 -91h88l-121 150h-84z" />
    <glyph glyph-name="udieresis" unicode="&#xfc;" 
d="M267 -12c33.333 0 63.3311 7.00195 89.998 21.002s48 33 64 57v-66h75v536h-75v-319c0 -48 -13.167 -85.667 -39.5 -113s-60.166 -41 -101.499 -41c-40.667 0 -74 13.167 -100 39.5s-39 61.166 -39 104.499v329h-75v-338c0 -41.333 8.83301 -77.833 26.5 -109.5
s41.834 -56.334 72.501 -74.001s64.667 -26.5 102 -26.5zM146.998 640.002h100v100h-100v-100zM326.998 640.002h100v100h-100v-100z" />
    <glyph glyph-name="yacute" unicode="&#xfd;" horiz-adv-x="536" 
d="M88 -220c35.333 0 65.333 7.16797 90 21.501s45.167 33.166 61.5 56.499s29.833 48 40.5 74l245 604h-83l-175 -442l-175 442h-81l214 -536l-19 -46c-16.667 -38.667 -33.667 -64.834 -51 -78.501s-42.333 -20.5 -75 -20.5c-10.667 0 -21.167 0.833008 -31.5 2.5
s-18.833 2.83398 -25.5 3.50098v-70c10.667 -4 21.5 -6.83301 32.5 -8.5s21.833 -2.5 32.5 -2.5zM230 640.001h76l114 150h-103z" />
    <glyph glyph-name="thorn" unicode="&#xfe;" horiz-adv-x="667" 
d="M77 -200l75 0.00195312v287c20 -31.333 47.333 -55.666 82 -72.999s72.667 -26 114 -26c50.667 0 95.834 12.167 135.501 36.5s71 57.666 94 99.999s34.5 90.166 34.5 143.499c0 54 -11.5 102 -34.5 144s-54.333 75.167 -94 99.5s-84.834 36.5 -135.501 36.5
c-42 0 -79.667 -8.33301 -113 -25s-61 -39.334 -83 -68.001v290h-75v-945zM344 63.002c-36 0 -68.5 9 -97.5 27s-52 42.5 -69 73.5s-25.5 65.833 -25.5 104.5s8.5 73.5 25.5 104.5s40 55.5 69 73.5s61.5 27 97.5 27s68.167 -9 96.5 -27s50.666 -42.333 66.999 -73
s24.5 -65.667 24.5 -105c0 -38.667 -8.16699 -73.5 -24.5 -104.5s-38.666 -55.5 -66.999 -73.5s-60.5 -27 -96.5 -27z" />
    <glyph glyph-name="ydieresis" unicode="&#xff;" horiz-adv-x="536" 
d="M88 -220c35.333 0 65.333 7.16797 90 21.501s45.167 33.166 61.5 56.499s29.833 48 40.5 74l245 604h-83l-175 -442l-175 442h-81l214 -536l-19 -46c-16.667 -38.667 -33.667 -64.834 -51 -78.501s-42.333 -20.5 -75 -20.5c-10.667 0 -21.167 0.833008 -31.5 2.5
s-18.833 2.83398 -25.5 3.50098v-70c10.667 -4 21.5 -6.83301 32.5 -8.5s21.833 -2.5 32.5 -2.5zM128 640.001h100v100h-100v-100zM308 640.001h100v100h-100v-100z" />
    <glyph glyph-name="Amacron" unicode="&#x100;" horiz-adv-x="652" 
d="M11 0h84l65 182h333l64 -182h84l-272 745h-86zM186 257l140 394l139 -394h-279zM191 869h270v70h-270v-70z" />
    <glyph glyph-name="amacron" unicode="&#x101;" horiz-adv-x="572" 
d="M232 -12c41.333 0 78.666 8.33398 111.999 25.001s58.666 38 75.999 64v-77h75v368c0 35.333 -8.5 66.5 -25.5 93.5s-40.667 48.167 -71 63.5s-65.166 23 -104.499 23c-30 0 -59 -5.5 -87 -16.5s-52.833 -25.833 -74.5 -44.5s-37.5 -39.334 -47.5 -62.001l68 -37
c12 26 30.333 47.167 55 63.5s53.334 24.5 86.001 24.5c37.333 0 67.666 -10 90.999 -30s35 -46 35 -78v-28l-194 -32c-59.333 -10 -102.666 -30.333 -129.999 -61s-41 -66.667 -41 -108c0 -29.333 7.66699 -55.333 23 -78s36.333 -40.5 63 -53.5s57 -19.5 91 -19.5z
M135 142.001c0 24.667 8.49902 46.002 25.499 64.002s44.833 30.333 83.5 37l176 29v-40c0 -32.667 -7.66699 -62.334 -23 -89.001s-36.666 -47.834 -63.999 -63.501s-59.333 -23.5 -96 -23.5c-30 0 -54.5 8.33301 -73.5 25s-28.5 37 -28.5 61zM158.999 660.003h270v70h-270
v-70z" />
    <glyph glyph-name="Abreve" unicode="&#x102;" horiz-adv-x="652" 
d="M11 0h84l65 182h333l64 -182h84l-272 745h-86zM186 257l140 394l139 -394h-279zM326 849c50.667 0 89.5 13.832 116.5 41.499s40.5 63.834 40.5 108.501h-71c0 -28.667 -7.5 -50.834 -22.5 -66.501s-36.167 -23.5 -63.5 -23.5s-48.5 7.83301 -63.5 23.5
s-22.5 37.834 -22.5 66.501h-72c0 -44 13.667 -80 41 -108s66.333 -42 117 -42z" />
    <glyph glyph-name="abreve" unicode="&#x103;" horiz-adv-x="572" 
d="M232 -12c41.333 0 78.666 8.33398 111.999 25.001s58.666 38 75.999 64v-77h75v368c0 35.333 -8.5 66.5 -25.5 93.5s-40.667 48.167 -71 63.5s-65.166 23 -104.499 23c-30 0 -59 -5.5 -87 -16.5s-52.833 -25.833 -74.5 -44.5s-37.5 -39.334 -47.5 -62.001l68 -37
c12 26 30.333 47.167 55 63.5s53.334 24.5 86.001 24.5c37.333 0 67.666 -10 90.999 -30s35 -46 35 -78v-28l-194 -32c-59.333 -10 -102.666 -30.333 -129.999 -61s-41 -66.667 -41 -108c0 -29.333 7.66699 -55.333 23 -78s36.333 -40.5 63 -53.5s57 -19.5 91 -19.5z
M135 142.001c0 24.667 8.49902 46.002 25.499 64.002s44.833 30.333 83.5 37l176 29v-40c0 -32.667 -7.66699 -62.334 -23 -89.001s-36.666 -47.834 -63.999 -63.501s-59.333 -23.5 -96 -23.5c-30 0 -54.5 8.33301 -73.5 25s-28.5 37 -28.5 61zM293.999 640.003
c50.667 0 89.5 13.832 116.5 41.499s40.5 63.834 40.5 108.501h-71c0 -28.667 -7.5 -50.834 -22.5 -66.501s-36.167 -23.5 -63.5 -23.5s-48.5 7.83301 -63.5 23.5s-22.5 37.834 -22.5 66.501h-72c0 -44 13.667 -80 41 -108s66.333 -42 117 -42z" />
    <glyph glyph-name="Aogonek" unicode="&#x104;" horiz-adv-x="652" 
d="M11 0h84l65 182h333l64 -182h84l-272 745h-86zM186 257l140 394l139 -394h-279zM569 -230c19.333 0 38.499 3.33496 57.499 10.002s34.5 15.667 46.5 27l-21 53c-21.333 -20 -45.666 -30 -72.999 -30c-16.667 0 -30 5 -40 15s-15 21.333 -15 34
c0 20.667 4.66699 39.5 14 56.5s21 31.167 35 42.5s27.667 18.666 41 21.999v20h-31c-22.667 -6.66699 -44 -17.167 -64 -31.5s-36.167 -31.333 -48.5 -51s-18.5 -41.834 -18.5 -66.501c0 -30 10.5 -54.333 31.5 -73s49.5 -28 85.5 -28z" />
    <glyph glyph-name="aogonek" unicode="&#x105;" horiz-adv-x="572" 
d="M232 -12c41.333 0 78.666 8.33398 111.999 25.001s58.666 38 75.999 64v-77h75v368c0 35.333 -8.5 66.5 -25.5 93.5s-40.667 48.167 -71 63.5s-65.166 23 -104.499 23c-30 0 -59 -5.5 -87 -16.5s-52.833 -25.833 -74.5 -44.5s-37.5 -39.334 -47.5 -62.001l68 -37
c12 26 30.333 47.167 55 63.5s53.334 24.5 86.001 24.5c37.333 0 67.666 -10 90.999 -30s35 -46 35 -78v-28l-194 -32c-59.333 -10 -102.666 -30.333 -129.999 -61s-41 -66.667 -41 -108c0 -29.333 7.66699 -55.333 23 -78s36.333 -40.5 63 -53.5s57 -19.5 91 -19.5z
M135 142.001c0 24.667 8.49902 46.002 25.499 64.002s44.833 30.333 83.5 37l176 29v-40c0 -32.667 -7.66699 -62.334 -23 -89.001s-36.666 -47.834 -63.999 -63.501s-59.333 -23.5 -96 -23.5c-30 0 -54.5 8.33301 -73.5 25s-28.5 37 -28.5 61zM427.999 -229.997
c19.333 0 38.499 3.33496 57.499 10.002s34.5 15.667 46.5 27l-21 53c-21.333 -20 -45.666 -30 -72.999 -30c-16.667 0 -30 5 -40 15s-15 21.333 -15 34c0 20.667 4.66699 39.5 14 56.5s21 31.167 35 42.5s27.667 18.666 41 21.999v20h-31
c-22.667 -6.66699 -44 -17.167 -64 -31.5s-36.167 -31.333 -48.5 -51s-18.5 -41.834 -18.5 -66.501c0 -30 10.5 -54.333 31.5 -73s49.5 -28 85.5 -28z" />
    <glyph glyph-name="Cacute" unicode="&#x106;" horiz-adv-x="781" 
d="M428 -12c50.667 0 96.167 9 136.5 27s74.333 41.167 102 69.5s47.5 57.833 59.5 88.5l-75 33c-18.667 -43.333 -47.167 -78 -85.5 -104s-84.166 -39 -137.499 -39c-54.667 0 -103.334 12.833 -146.001 38.5s-76 61.834 -100 108.501s-36 100.667 -36 162
c0 62 12 116.167 36 162.5s57.333 82.5 100 108.5s91.334 39 146.001 39c53.333 0 99.166 -13.167 137.499 -39.5s66.833 -61.166 85.5 -104.499l75 33c-12 31.333 -31.833 61.166 -59.5 89.499s-61.667 51.5 -102 69.5s-85.833 27 -136.5 27
c-52.667 0 -101 -9.5 -145 -28.5s-82.167 -45.833 -114.5 -80.5s-57.5 -75.334 -75.5 -122.001s-27 -98 -27 -154s9 -107.333 27 -154s43.167 -87.167 75.5 -121.5s70.5 -61 114.5 -80s92.333 -28.5 145 -28.5zM390 849h76l114 150h-103z" />
    <glyph glyph-name="cacute" unicode="&#x107;" horiz-adv-x="600" 
d="M322 -12c33.333 0 64.668 5.99902 94.001 17.999s55.333 28.333 78 49s39.667 44 51 70l-68 37c-14 -30 -34.5 -54 -61.5 -72s-58.167 -27 -93.5 -27s-67.166 9 -95.499 27s-50.666 42.5 -66.999 73.5s-24.5 65.833 -24.5 104.5c0 39.333 8.16699 74.5 24.5 105.5
s38.666 55.333 66.999 73s60.166 26.5 95.499 26.5s66.666 -9 93.999 -27s47.666 -41.333 60.999 -70l68 35c-11.333 26.667 -28.333 50.167 -51 70.5s-48.667 36.5 -78 48.5s-60.666 18 -93.999 18c-52.667 0 -99 -12.167 -139 -36.5s-71.333 -57.5 -94 -99.5
s-34 -89.667 -34 -143s11.333 -101.166 34 -143.499s54 -75.833 94 -100.5s86.333 -37 139 -37zM284.002 639.999h76l114 150h-103z" />
    <glyph glyph-name="Ccircumflex" unicode="&#x108;" horiz-adv-x="781" 
d="M428 -12c50.667 0 96.167 9 136.5 27s74.333 41.167 102 69.5s47.5 57.833 59.5 88.5l-75 33c-18.667 -43.333 -47.167 -78 -85.5 -104s-84.166 -39 -137.499 -39c-54.667 0 -103.334 12.833 -146.001 38.5s-76 61.834 -100 108.501s-36 100.667 -36 162
c0 62 12 116.167 36 162.5s57.333 82.5 100 108.5s91.334 39 146.001 39c53.333 0 99.166 -13.167 137.499 -39.5s66.833 -61.166 85.5 -104.499l75 33c-12 31.333 -31.833 61.166 -59.5 89.499s-61.667 51.5 -102 69.5s-85.833 27 -136.5 27
c-52.667 0 -101 -9.5 -145 -28.5s-82.167 -45.833 -114.5 -80.5s-57.5 -75.334 -75.5 -122.001s-27 -98 -27 -154s9 -107.333 27 -154s43.167 -87.167 75.5 -121.5s70.5 -61 114.5 -80s92.333 -28.5 145 -28.5zM266 849h88l74 91l75 -91h88l-121 150h-84z" />
    <glyph glyph-name="ccircumflex" unicode="&#x109;" horiz-adv-x="600" 
d="M322 -12c33.333 0 64.668 5.99902 94.001 17.999s55.333 28.333 78 49s39.667 44 51 70l-68 37c-14 -30 -34.5 -54 -61.5 -72s-58.167 -27 -93.5 -27s-67.166 9 -95.499 27s-50.666 42.5 -66.999 73.5s-24.5 65.833 -24.5 104.5c0 39.333 8.16699 74.5 24.5 105.5
s38.666 55.333 66.999 73s60.166 26.5 95.499 26.5s66.666 -9 93.999 -27s47.666 -41.333 60.999 -70l68 35c-11.333 26.667 -28.333 50.167 -51 70.5s-48.667 36.5 -78 48.5s-60.666 18 -93.999 18c-52.667 0 -99 -12.167 -139 -36.5s-71.333 -57.5 -94 -99.5
s-34 -89.667 -34 -143s11.333 -101.166 34 -143.499s54 -75.833 94 -100.5s86.333 -37 139 -37zM160.002 639.999h88l74 91l75 -91h88l-121 150h-84z" />
    <glyph glyph-name="Cdotaccent" unicode="&#x10a;" horiz-adv-x="781" 
d="M428 -12c50.667 0 96.167 9 136.5 27s74.333 41.167 102 69.5s47.5 57.833 59.5 88.5l-75 33c-18.667 -43.333 -47.167 -78 -85.5 -104s-84.166 -39 -137.499 -39c-54.667 0 -103.334 12.833 -146.001 38.5s-76 61.834 -100 108.501s-36 100.667 -36 162
c0 62 12 116.167 36 162.5s57.333 82.5 100 108.5s91.334 39 146.001 39c53.333 0 99.166 -13.167 137.499 -39.5s66.833 -61.166 85.5 -104.499l75 33c-12 31.333 -31.833 61.166 -59.5 89.499s-61.667 51.5 -102 69.5s-85.833 27 -136.5 27
c-52.667 0 -101 -9.5 -145 -28.5s-82.167 -45.833 -114.5 -80.5s-57.5 -75.334 -75.5 -122.001s-27 -98 -27 -154s9 -107.333 27 -154s43.167 -87.167 75.5 -121.5s70.5 -61 114.5 -80s92.333 -28.5 145 -28.5zM378 849h100v100h-100v-100z" />
    <glyph glyph-name="cdotaccent" unicode="&#x10b;" horiz-adv-x="600" 
d="M322 -12c33.333 0 64.668 5.99902 94.001 17.999s55.333 28.333 78 49s39.667 44 51 70l-68 37c-14 -30 -34.5 -54 -61.5 -72s-58.167 -27 -93.5 -27s-67.166 9 -95.499 27s-50.666 42.5 -66.999 73.5s-24.5 65.833 -24.5 104.5c0 39.333 8.16699 74.5 24.5 105.5
s38.666 55.333 66.999 73s60.166 26.5 95.499 26.5s66.666 -9 93.999 -27s47.666 -41.333 60.999 -70l68 35c-11.333 26.667 -28.333 50.167 -51 70.5s-48.667 36.5 -78 48.5s-60.666 18 -93.999 18c-52.667 0 -99 -12.167 -139 -36.5s-71.333 -57.5 -94 -99.5
s-34 -89.667 -34 -143s11.333 -101.166 34 -143.499s54 -75.833 94 -100.5s86.333 -37 139 -37zM272.002 639.999h100v100h-100v-100z" />
    <glyph glyph-name="Ccaron" unicode="&#x10c;" horiz-adv-x="781" 
d="M428 -12c50.667 0 96.167 9 136.5 27s74.333 41.167 102 69.5s47.5 57.833 59.5 88.5l-75 33c-18.667 -43.333 -47.167 -78 -85.5 -104s-84.166 -39 -137.499 -39c-54.667 0 -103.334 12.833 -146.001 38.5s-76 61.834 -100 108.501s-36 100.667 -36 162
c0 62 12 116.167 36 162.5s57.333 82.5 100 108.5s91.334 39 146.001 39c53.333 0 99.166 -13.167 137.499 -39.5s66.833 -61.166 85.5 -104.499l75 33c-12 31.333 -31.833 61.166 -59.5 89.499s-61.667 51.5 -102 69.5s-85.833 27 -136.5 27
c-52.667 0 -101 -9.5 -145 -28.5s-82.167 -45.833 -114.5 -80.5s-57.5 -75.334 -75.5 -122.001s-27 -98 -27 -154s9 -107.333 27 -154s43.167 -87.167 75.5 -121.5s70.5 -61 114.5 -80s92.333 -28.5 145 -28.5zM385 849h84l121 150h-88l-75 -91l-74 91h-88z" />
    <glyph glyph-name="ccaron" unicode="&#x10d;" horiz-adv-x="600" 
d="M322 -12c33.333 0 64.668 5.99902 94.001 17.999s55.333 28.333 78 49s39.667 44 51 70l-68 37c-14 -30 -34.5 -54 -61.5 -72s-58.167 -27 -93.5 -27s-67.166 9 -95.499 27s-50.666 42.5 -66.999 73.5s-24.5 65.833 -24.5 104.5c0 39.333 8.16699 74.5 24.5 105.5
s38.666 55.333 66.999 73s60.166 26.5 95.499 26.5s66.666 -9 93.999 -27s47.666 -41.333 60.999 -70l68 35c-11.333 26.667 -28.333 50.167 -51 70.5s-48.667 36.5 -78 48.5s-60.666 18 -93.999 18c-52.667 0 -99 -12.167 -139 -36.5s-71.333 -57.5 -94 -99.5
s-34 -89.667 -34 -143s11.333 -101.166 34 -143.499s54 -75.833 94 -100.5s86.333 -37 139 -37zM279.002 639.999h84l121 150h-88l-75 -91l-74 91h-88z" />
    <glyph glyph-name="Dcaron" unicode="&#x10e;" horiz-adv-x="742" 
d="M88 0h245c74 -0 138.333 15.333 193 46s97 74 127 130s45 121.667 45 197c0 76 -15 141.833 -45 197.5s-72.333 98.667 -127 129s-119 45.5 -193 45.5h-245v-745zM168 75v595h165c56.667 0 106 -12.167 148 -36.5s74.667 -58.666 98 -102.999s35 -96.833 35 -157.5
s-11.5 -113.334 -34.5 -158.001s-55.5 -79.167 -97.5 -103.5s-91.667 -36.5 -149 -36.5h-165zM339 849h84l121 150h-88l-75 -91l-74 91h-88z" />
    <glyph glyph-name="dcaron" unicode="&#x10f;" horiz-adv-x="791" 
d="M319 -12c41.333 0 79.334 8.66504 114.001 25.998s62 41.666 82 72.999v-87h75v757h-75v-302c-22 28.667 -49.667 51.334 -83 68.001s-71 25 -113 25c-50.667 0 -95.834 -12.167 -135.501 -36.5s-71 -57.5 -94 -99.5s-34.5 -90 -34.5 -144
c0 -53.333 11.5 -101.166 34.5 -143.499s54.5 -75.666 94.5 -99.999s85 -36.5 135 -36.5zM323.001 62.998c-36 0 -68.168 9 -96.501 27s-50.666 42.5 -66.999 73.5s-24.5 65.833 -24.5 104.5c0 39.333 8.16699 74.333 24.5 105s38.833 55 67.5 73s60.667 27 96 27
c36 0 68.5 -9 97.5 -27s52 -42.5 69 -73.5s25.5 -65.833 25.5 -104.5s-8.5 -73.5 -25.5 -104.5s-40 -55.5 -69 -73.5s-61.5 -27 -97.5 -27zM667 589.998h63l22 167h-85v-167z" />
    <glyph glyph-name="Dcroat" unicode="&#x110;" horiz-adv-x="742" 
d="M88 0h245c74 -0 138.333 15.333 193 46s97 74 127 130s45 121.667 45 197c0 76 -15 141.833 -45 197.5s-72.333 98.667 -127 129s-119 45.5 -193 45.5h-245v-337h-60v-70h60v-338zM168 75v263h160v70h-160v262h165c56.667 0 106 -12.167 148 -36.5
s74.667 -58.666 98 -102.999s35 -96.833 35 -157.5s-11.5 -113.334 -34.5 -158.001s-55.5 -79.167 -97.5 -103.5s-91.667 -36.5 -149 -36.5h-165z" />
    <glyph glyph-name="dcroat" unicode="&#x111;" horiz-adv-x="667" 
d="M319 -12c41.333 0 79.334 8.66504 114.001 25.998s62 41.666 82 72.999v-87h75v605h103v70h-103v82h-75v-82h-102v-70h102v-150c-22 28.667 -49.667 51.334 -83 68.001s-71 25 -113 25c-50.667 0 -95.834 -12.167 -135.501 -36.5s-71 -57.5 -94 -99.5
s-34.5 -90 -34.5 -144c0 -53.333 11.5 -101.166 34.5 -143.499s54.5 -75.666 94.5 -99.999s85 -36.5 135 -36.5zM323.001 62.998c-36 0 -68.168 9 -96.501 27s-50.666 42.5 -66.999 73.5s-24.5 65.833 -24.5 104.5c0 39.333 8.16699 74.333 24.5 105s38.833 55 67.5 73
s60.667 27 96 27c36 0 68.5 -9 97.5 -27s52 -42.5 69 -73.5s25.5 -65.833 25.5 -104.5s-8.5 -73.5 -25.5 -104.5s-40 -55.5 -69 -73.5s-61.5 -27 -97.5 -27z" />
    <glyph glyph-name="Emacron" unicode="&#x112;" horiz-adv-x="612" 
d="M88 0h480v75h-400v261h380v75h-380v259h400v75h-480v-745zM193 869h270v70h-270v-70z" />
    <glyph glyph-name="emacron" unicode="&#x113;" horiz-adv-x="615" 
d="M321 -12c36.667 0 70.167 6.16895 100.5 18.502s56.5 28.666 78.5 48.999s38.333 42.5 49 66.5l-64 34c-16.667 -28 -38.334 -51.333 -65.001 -70s-59.667 -28 -99 -28c-32 0 -62 7.66699 -90 23s-50.833 36.833 -68.5 64.5s-27.167 60.834 -28.5 99.501h422
c1.33301 8.66699 2.33301 17.167 3 25.5s1 15.833 1 22.5c0 32 -5.66699 63.167 -17 93.5s-27.666 57.666 -48.999 81.999s-47.166 43.666 -77.499 57.999s-64.833 21.5 -103.5 21.5c-48.667 0 -92.5 -12 -131.5 -36s-69.833 -56.833 -92.5 -98.5s-34 -89.5 -34 -143.5
s11.667 -102.333 35 -145s55.166 -76.167 95.499 -100.5s85.5 -36.5 135.5 -36.5zM313 478.002c30 0 57.501 -6.99805 82.501 -20.998s45 -33.167 60 -57.5s22.833 -52.5 23.5 -84.5h-343c4 33.333 14.5 62.166 31.5 86.499s38.167 43.166 63.5 56.499s52.666 20 81.999 20z
M173.001 660.004h270v70h-270v-70z" />
    <glyph glyph-name="Ebreve" unicode="&#x114;" horiz-adv-x="612" 
d="M88 0h480v75h-400v261h380v75h-380v259h400v75h-480v-745zM328 849c50.667 0 89.5 13.832 116.5 41.499s40.5 63.834 40.5 108.501h-71c0 -28.667 -7.5 -50.834 -22.5 -66.501s-36.167 -23.5 -63.5 -23.5s-48.5 7.83301 -63.5 23.5s-22.5 37.834 -22.5 66.501h-72
c0 -44 13.667 -80 41 -108s66.333 -42 117 -42z" />
    <glyph glyph-name="ebreve" unicode="&#x115;" horiz-adv-x="615" 
d="M321 -12c36.667 0 70.167 6.16895 100.5 18.502s56.5 28.666 78.5 48.999s38.333 42.5 49 66.5l-64 34c-16.667 -28 -38.334 -51.333 -65.001 -70s-59.667 -28 -99 -28c-32 0 -62 7.66699 -90 23s-50.833 36.833 -68.5 64.5s-27.167 60.834 -28.5 99.501h422
c1.33301 8.66699 2.33301 17.167 3 25.5s1 15.833 1 22.5c0 32 -5.66699 63.167 -17 93.5s-27.666 57.666 -48.999 81.999s-47.166 43.666 -77.499 57.999s-64.833 21.5 -103.5 21.5c-48.667 0 -92.5 -12 -131.5 -36s-69.833 -56.833 -92.5 -98.5s-34 -89.5 -34 -143.5
s11.667 -102.333 35 -145s55.166 -76.167 95.499 -100.5s85.5 -36.5 135.5 -36.5zM313 478.002c30 0 57.501 -6.99805 82.501 -20.998s45 -33.167 60 -57.5s22.833 -52.5 23.5 -84.5h-343c4 33.333 14.5 62.166 31.5 86.499s38.167 43.166 63.5 56.499s52.666 20 81.999 20z
M308.001 640.004c50.667 0 89.5 13.832 116.5 41.499s40.5 63.834 40.5 108.501h-71c0 -28.667 -7.5 -50.834 -22.5 -66.501s-36.167 -23.5 -63.5 -23.5s-48.5 7.83301 -63.5 23.5s-22.5 37.834 -22.5 66.501h-72c0 -44 13.667 -80 41 -108s66.333 -42 117 -42z" />
    <glyph glyph-name="Edotaccent" unicode="&#x116;" horiz-adv-x="612" 
d="M88 0h480v75h-400v261h380v75h-380v259h400v75h-480v-745zM278 849h100v100h-100v-100z" />
    <glyph glyph-name="edotaccent" unicode="&#x117;" horiz-adv-x="615" 
d="M321 -12c36.667 0 70.167 6.16895 100.5 18.502s56.5 28.666 78.5 48.999s38.333 42.5 49 66.5l-64 34c-16.667 -28 -38.334 -51.333 -65.001 -70s-59.667 -28 -99 -28c-32 0 -62 7.66699 -90 23s-50.833 36.833 -68.5 64.5s-27.167 60.834 -28.5 99.501h422
c1.33301 8.66699 2.33301 17.167 3 25.5s1 15.833 1 22.5c0 32 -5.66699 63.167 -17 93.5s-27.666 57.666 -48.999 81.999s-47.166 43.666 -77.499 57.999s-64.833 21.5 -103.5 21.5c-48.667 0 -92.5 -12 -131.5 -36s-69.833 -56.833 -92.5 -98.5s-34 -89.5 -34 -143.5
s11.667 -102.333 35 -145s55.166 -76.167 95.499 -100.5s85.5 -36.5 135.5 -36.5zM313 478.002c30 0 57.501 -6.99805 82.501 -20.998s45 -33.167 60 -57.5s22.833 -52.5 23.5 -84.5h-343c4 33.333 14.5 62.166 31.5 86.499s38.167 43.166 63.5 56.499s52.666 20 81.999 20z
M258.001 640.004h100v100h-100v-100z" />
    <glyph glyph-name="Eogonek" unicode="&#x118;" horiz-adv-x="612" 
d="M88 0h480v75h-400v261h380v75h-380v259h400v75h-480v-745zM438 -230c19.333 0 38.499 3.33496 57.499 10.002s34.5 15.667 46.5 27l-21 53c-21.333 -20 -45.666 -30 -72.999 -30c-16.667 0 -30 5 -40 15s-15 21.333 -15 34c0 20.667 4.66699 39.5 14 56.5
s21 31.167 35 42.5s27.667 18.666 41 21.999v20h-31c-22.667 -6.66699 -44 -17.167 -64 -31.5s-36.167 -31.333 -48.5 -51s-18.5 -41.834 -18.5 -66.501c0 -30 10.5 -54.333 31.5 -73s49.5 -28 85.5 -28z" />
    <glyph glyph-name="eogonek" unicode="&#x119;" horiz-adv-x="615" 
d="M321 -12c36.667 0 70.167 6.16895 100.5 18.502s56.5 28.666 78.5 48.999s38.333 42.5 49 66.5l-64 34c-16.667 -28 -38.334 -51.333 -65.001 -70s-59.667 -28 -99 -28c-32 0 -62 7.66699 -90 23s-50.833 36.833 -68.5 64.5s-27.167 60.834 -28.5 99.501h422
c1.33301 8.66699 2.33301 17.167 3 25.5s1 15.833 1 22.5c0 32 -5.66699 63.167 -17 93.5s-27.666 57.666 -48.999 81.999s-47.166 43.666 -77.499 57.999s-64.833 21.5 -103.5 21.5c-48.667 0 -92.5 -12 -131.5 -36s-69.833 -56.833 -92.5 -98.5s-34 -89.5 -34 -143.5
s11.667 -102.333 35 -145s55.166 -76.167 95.499 -100.5s85.5 -36.5 135.5 -36.5zM313 478.002c30 0 57.501 -6.99805 82.501 -20.998s45 -33.167 60 -57.5s22.833 -52.5 23.5 -84.5h-343c4 33.333 14.5 62.166 31.5 86.499s38.167 43.166 63.5 56.499s52.666 20 81.999 20z
M291.001 -229.996c19.333 0 38.499 3.33496 57.499 10.002s34.5 15.667 46.5 27l-21 53c-21.333 -20 -45.666 -30 -72.999 -30c-16.667 0 -30 5 -40 15s-15 21.333 -15 34c0 20.667 4.66699 39.5 14 56.5s21 31.167 35 42.5s27.667 18.666 41 21.999v20h-31
c-22.667 -6.66699 -44 -17.167 -64 -31.5s-36.167 -31.333 -48.5 -51s-18.5 -41.834 -18.5 -66.501c0 -30 10.5 -54.333 31.5 -73s49.5 -28 85.5 -28z" />
    <glyph glyph-name="Ecaron" unicode="&#x11a;" horiz-adv-x="612" 
d="M88 0h480v75h-400v261h380v75h-380v259h400v75h-480v-745zM285 849h84l121 150h-88l-75 -91l-74 91h-88z" />
    <glyph glyph-name="ecaron" unicode="&#x11b;" horiz-adv-x="615" 
d="M321 -12c36.667 0 70.167 6.16895 100.5 18.502s56.5 28.666 78.5 48.999s38.333 42.5 49 66.5l-64 34c-16.667 -28 -38.334 -51.333 -65.001 -70s-59.667 -28 -99 -28c-32 0 -62 7.66699 -90 23s-50.833 36.833 -68.5 64.5s-27.167 60.834 -28.5 99.501h422
c1.33301 8.66699 2.33301 17.167 3 25.5s1 15.833 1 22.5c0 32 -5.66699 63.167 -17 93.5s-27.666 57.666 -48.999 81.999s-47.166 43.666 -77.499 57.999s-64.833 21.5 -103.5 21.5c-48.667 0 -92.5 -12 -131.5 -36s-69.833 -56.833 -92.5 -98.5s-34 -89.5 -34 -143.5
s11.667 -102.333 35 -145s55.166 -76.167 95.499 -100.5s85.5 -36.5 135.5 -36.5zM313 478.002c30 0 57.501 -6.99805 82.501 -20.998s45 -33.167 60 -57.5s22.833 -52.5 23.5 -84.5h-343c4 33.333 14.5 62.166 31.5 86.499s38.167 43.166 63.5 56.499s52.666 20 81.999 20z
M265.001 640.004h84l121 150h-88l-75 -91l-74 91h-88z" />
    <glyph glyph-name="Gcircumflex" unicode="&#x11c;" horiz-adv-x="821" 
d="M428 -12c47.333 0 91.498 8.16797 132.498 24.501s76.833 39.5 107.5 69.5s54.667 65.5 72 106.5s26 85.833 26 134.5v62h-338v-70h258v-5c0 -48 -11.333 -90.5 -34 -127.5s-53.5 -66.167 -92.5 -87.5s-82.833 -32 -131.5 -32c-54.667 0 -103.334 12.833 -146.001 38.5
s-76 61.834 -100 108.501s-36 100.667 -36 162c0 62 12 116.167 36 162.5s57.333 82.5 100 108.5s91.334 39 146.001 39s101.334 -13 140.001 -39s67.334 -61.667 86.001 -107l72 35c-12 31.333 -31.833 61.166 -59.5 89.499s-61.667 51.5 -102 69.5s-85.833 27 -136.5 27
c-52.667 0 -101 -9.5 -145 -28.5s-82.167 -45.833 -114.5 -80.5s-57.5 -75.334 -75.5 -122.001s-27 -98 -27 -154s9 -107.333 27 -154s43.167 -87.167 75.5 -121.5s70.5 -61 114.5 -80s92.333 -28.5 145 -28.5zM248.998 849.001h88l74 91l75 -91h88l-121 150h-84z" />
    <glyph glyph-name="gcircumflex" unicode="&#x11d;" horiz-adv-x="662" 
d="M331 -220c49.333 0 93.166 10.5029 131.499 31.5029s68.333 49.667 90 86s32.5 77.5 32.5 123.5v515h-75v-81c-21.333 28.667 -48.666 51.334 -81.999 68.001s-69.666 25 -108.999 25c-50.667 0 -95.834 -12 -135.501 -36s-71 -56.333 -94 -97
s-34.5 -86.334 -34.5 -137.001c0 -50 11.5 -95.5 34.5 -136.5s54.5 -73.5 94.5 -97.5s85 -36 135 -36c39.333 0 76 8.66699 110 26s61 41.666 81 72.999v-86c0 -36 -8.33301 -66.333 -25 -91s-38.667 -43.334 -66 -56.001s-57.333 -19 -90 -19
c-42.667 0 -77.667 9.33301 -105 28s-46.333 40.667 -57 66l-69 -37c18 -38.667 47.5 -70.334 88.5 -95.001s89.167 -37 144.5 -37zM323 83.0029c-36 0 -68.168 8.83398 -96.501 26.501s-50.666 41.334 -66.999 71.001s-24.5 62.167 -24.5 97.5c0 36 8.16699 68.667 24.5 98
s38.833 52.833 67.5 70.5s60.667 26.5 96 26.5c34.667 0 66 -8.83301 94 -26.5s50.5 -41.334 67.5 -71.001s25.5 -62.167 25.5 -97.5s-8.5 -67.833 -25.5 -97.5s-39.5 -53.334 -67.5 -71.001s-59.333 -26.5 -94 -26.5zM168.999 640.004h88l74 91l75 -91h88l-121 150h-84z
" />
    <glyph glyph-name="Gbreve" unicode="&#x11e;" horiz-adv-x="821" 
d="M428 -12c47.333 0 91.498 8.16797 132.498 24.501s76.833 39.5 107.5 69.5s54.667 65.5 72 106.5s26 85.833 26 134.5v62h-338v-70h258v-5c0 -48 -11.333 -90.5 -34 -127.5s-53.5 -66.167 -92.5 -87.5s-82.833 -32 -131.5 -32c-54.667 0 -103.334 12.833 -146.001 38.5
s-76 61.834 -100 108.501s-36 100.667 -36 162c0 62 12 116.167 36 162.5s57.333 82.5 100 108.5s91.334 39 146.001 39s101.334 -13 140.001 -39s67.334 -61.667 86.001 -107l72 35c-12 31.333 -31.833 61.166 -59.5 89.499s-61.667 51.5 -102 69.5s-85.833 27 -136.5 27
c-52.667 0 -101 -9.5 -145 -28.5s-82.167 -45.833 -114.5 -80.5s-57.5 -75.334 -75.5 -122.001s-27 -98 -27 -154s9 -107.333 27 -154s43.167 -87.167 75.5 -121.5s70.5 -61 114.5 -80s92.333 -28.5 145 -28.5zM410.998 849.001c50.667 0 89.5 13.832 116.5 41.499
s40.5 63.834 40.5 108.501h-71c0 -28.667 -7.5 -50.834 -22.5 -66.501s-36.167 -23.5 -63.5 -23.5s-48.5 7.83301 -63.5 23.5s-22.5 37.834 -22.5 66.501h-72c0 -44 13.667 -80 41 -108s66.333 -42 117 -42z" />
    <glyph glyph-name="gbreve" unicode="&#x11f;" horiz-adv-x="662" 
d="M331 -220c49.333 0 93.166 10.5029 131.499 31.5029s68.333 49.667 90 86s32.5 77.5 32.5 123.5v515h-75v-81c-21.333 28.667 -48.666 51.334 -81.999 68.001s-69.666 25 -108.999 25c-50.667 0 -95.834 -12 -135.501 -36s-71 -56.333 -94 -97
s-34.5 -86.334 -34.5 -137.001c0 -50 11.5 -95.5 34.5 -136.5s54.5 -73.5 94.5 -97.5s85 -36 135 -36c39.333 0 76 8.66699 110 26s61 41.666 81 72.999v-86c0 -36 -8.33301 -66.333 -25 -91s-38.667 -43.334 -66 -56.001s-57.333 -19 -90 -19
c-42.667 0 -77.667 9.33301 -105 28s-46.333 40.667 -57 66l-69 -37c18 -38.667 47.5 -70.334 88.5 -95.001s89.167 -37 144.5 -37zM323 83.0029c-36 0 -68.168 8.83398 -96.501 26.501s-50.666 41.334 -66.999 71.001s-24.5 62.167 -24.5 97.5c0 36 8.16699 68.667 24.5 98
s38.833 52.833 67.5 70.5s60.667 26.5 96 26.5c34.667 0 66 -8.83301 94 -26.5s50.5 -41.334 67.5 -71.001s25.5 -62.167 25.5 -97.5s-8.5 -67.833 -25.5 -97.5s-39.5 -53.334 -67.5 -71.001s-59.333 -26.5 -94 -26.5zM330.999 640.004c50.667 0 89.5 13.832 116.5 41.499
s40.5 63.834 40.5 108.501h-71c0 -28.667 -7.5 -50.834 -22.5 -66.501s-36.167 -23.5 -63.5 -23.5s-48.5 7.83301 -63.5 23.5s-22.5 37.834 -22.5 66.501h-72c0 -44 13.667 -80 41 -108s66.333 -42 117 -42z" />
    <glyph glyph-name="Gdotaccent" unicode="&#x120;" horiz-adv-x="821" 
d="M428 -12c47.333 0 91.498 8.16797 132.498 24.501s76.833 39.5 107.5 69.5s54.667 65.5 72 106.5s26 85.833 26 134.5v62h-338v-70h258v-5c0 -48 -11.333 -90.5 -34 -127.5s-53.5 -66.167 -92.5 -87.5s-82.833 -32 -131.5 -32c-54.667 0 -103.334 12.833 -146.001 38.5
s-76 61.834 -100 108.501s-36 100.667 -36 162c0 62 12 116.167 36 162.5s57.333 82.5 100 108.5s91.334 39 146.001 39s101.334 -13 140.001 -39s67.334 -61.667 86.001 -107l72 35c-12 31.333 -31.833 61.166 -59.5 89.499s-61.667 51.5 -102 69.5s-85.833 27 -136.5 27
c-52.667 0 -101 -9.5 -145 -28.5s-82.167 -45.833 -114.5 -80.5s-57.5 -75.334 -75.5 -122.001s-27 -98 -27 -154s9 -107.333 27 -154s43.167 -87.167 75.5 -121.5s70.5 -61 114.5 -80s92.333 -28.5 145 -28.5zM360.998 849.001h100v100h-100v-100z" />
    <glyph glyph-name="gdotaccent" unicode="&#x121;" horiz-adv-x="662" 
d="M331 -220c49.333 0 93.166 10.5029 131.499 31.5029s68.333 49.667 90 86s32.5 77.5 32.5 123.5v515h-75v-81c-21.333 28.667 -48.666 51.334 -81.999 68.001s-69.666 25 -108.999 25c-50.667 0 -95.834 -12 -135.501 -36s-71 -56.333 -94 -97
s-34.5 -86.334 -34.5 -137.001c0 -50 11.5 -95.5 34.5 -136.5s54.5 -73.5 94.5 -97.5s85 -36 135 -36c39.333 0 76 8.66699 110 26s61 41.666 81 72.999v-86c0 -36 -8.33301 -66.333 -25 -91s-38.667 -43.334 -66 -56.001s-57.333 -19 -90 -19
c-42.667 0 -77.667 9.33301 -105 28s-46.333 40.667 -57 66l-69 -37c18 -38.667 47.5 -70.334 88.5 -95.001s89.167 -37 144.5 -37zM323 83.0029c-36 0 -68.168 8.83398 -96.501 26.501s-50.666 41.334 -66.999 71.001s-24.5 62.167 -24.5 97.5c0 36 8.16699 68.667 24.5 98
s38.833 52.833 67.5 70.5s60.667 26.5 96 26.5c34.667 0 66 -8.83301 94 -26.5s50.5 -41.334 67.5 -71.001s25.5 -62.167 25.5 -97.5s-8.5 -67.833 -25.5 -97.5s-39.5 -53.334 -67.5 -71.001s-59.333 -26.5 -94 -26.5zM280.999 640.004h100v100h-100v-100z" />
    <glyph glyph-name="uni0122" unicode="&#x122;" horiz-adv-x="821" 
d="M428 -12c47.333 0 91.498 8.16797 132.498 24.501s76.833 39.5 107.5 69.5s54.667 65.5 72 106.5s26 85.833 26 134.5v62h-338v-70h258v-5c0 -48 -11.333 -90.5 -34 -127.5s-53.5 -66.167 -92.5 -87.5s-82.833 -32 -131.5 -32c-54.667 0 -103.334 12.833 -146.001 38.5
s-76 61.834 -100 108.501s-36 100.667 -36 162c0 62 12 116.167 36 162.5s57.333 82.5 100 108.5s91.334 39 146.001 39s101.334 -13 140.001 -39s67.334 -61.667 86.001 -107l72 35c-12 31.333 -31.833 61.166 -59.5 89.499s-61.667 51.5 -102 69.5s-85.833 27 -136.5 27
c-52.667 0 -101 -9.5 -145 -28.5s-82.167 -45.833 -114.5 -80.5s-57.5 -75.334 -75.5 -122.001s-27 -98 -27 -154s9 -107.333 27 -154s43.167 -87.167 75.5 -121.5s70.5 -61 114.5 -80s92.333 -28.5 145 -28.5zM321.998 -239.999h69l65 170h-90z" />
    <glyph glyph-name="uni0123" unicode="&#x123;" horiz-adv-x="662" 
d="M331 -220c49.333 0 93.166 10.5029 131.499 31.5029s68.333 49.667 90 86s32.5 77.5 32.5 123.5v515h-75v-81c-21.333 28.667 -48.666 51.334 -81.999 68.001s-69.666 25 -108.999 25c-50.667 0 -95.834 -12 -135.501 -36s-71 -56.333 -94 -97
s-34.5 -86.334 -34.5 -137.001c0 -50 11.5 -95.5 34.5 -136.5s54.5 -73.5 94.5 -97.5s85 -36 135 -36c39.333 0 76 8.66699 110 26s61 41.666 81 72.999v-86c0 -36 -8.33301 -66.333 -25 -91s-38.667 -43.334 -66 -56.001s-57.333 -19 -90 -19
c-42.667 0 -77.667 9.33301 -105 28s-46.333 40.667 -57 66l-69 -37c18 -38.667 47.5 -70.334 88.5 -95.001s89.167 -37 144.5 -37zM323 83.0029c-36 0 -68.168 8.83398 -96.501 26.501s-50.666 41.334 -66.999 71.001s-24.5 62.167 -24.5 97.5c0 36 8.16699 68.667 24.5 98
s38.833 52.833 67.5 70.5s60.667 26.5 96 26.5c34.667 0 66 -8.83301 94 -26.5s50.5 -41.334 67.5 -71.001s25.5 -62.167 25.5 -97.5s-8.5 -67.833 -25.5 -97.5s-39.5 -53.334 -67.5 -71.001s-59.333 -26.5 -94 -26.5zM285.999 616.004h90l44 170h-69z" />
    <glyph glyph-name="Hcircumflex" unicode="&#x124;" horiz-adv-x="736" 
d="M88 0h80v335h400v-335h80v745h-80v-335h-400v335h-80v-745zM206 849h88l74 91l75 -91h88l-121 150h-84z" />
    <glyph glyph-name="hcircumflex" unicode="&#x125;" 
d="M77 0l75 0.000976562v319c0 48 13.5 85.667 40.5 113s60.5 41 100.5 41s73.167 -13.5 99.5 -40.5s39.5 -64.833 39.5 -113.5v-319h75v348c0 38 -8.83301 72.167 -26.5 102.5s-41.667 54.166 -72 71.499s-64.5 26 -102.5 26c-33.333 0 -63.333 -7 -90 -21s-48 -33 -64 -57
v287h-75v-757zM-47 849.001h88l74 91l75 -91h88l-121 150h-84z" />
    <glyph glyph-name="Hbar" unicode="&#x126;" horiz-adv-x="736" 
d="M88 0h80v335h400v-335h80v558h88v75h-88v112h-80v-112h-400v112h-80v-112h-88v-75h88v-558zM168 410v148h400v-148h-400z" />
    <glyph glyph-name="hbar" unicode="&#x127;" 
d="M77 0l75 0.000976562v319c0 48 13.5 85.667 40.5 113s60.5 41 100.5 41s73.167 -13.5 99.5 -40.5s39.5 -64.833 39.5 -113.5v-319h75v348c0 38 -8.83301 72.167 -26.5 102.5s-41.667 54.166 -72 71.499s-64.5 26 -102.5 26c-33.333 0 -63.333 -7 -90 -21s-48 -33 -64 -57
v135h103v70h-103v82h-75v-82h-102v-70h102v-605z" />
    <glyph glyph-name="Itilde" unicode="&#x128;" horiz-adv-x="256" 
d="M88 0h80v745h-80v-745zM187 849c30.667 0 54.999 11.332 72.999 33.999s27 52.334 27 89.001h-61c0 -39.333 -13 -59 -39 -59c-11.333 0 -20.833 3.16699 -28.5 9.5s-15.167 13.666 -22.5 21.999s-16.333 15.666 -27 21.999s-24.667 9.5 -42 9.5
c-30 0 -53.833 -10.5 -71.5 -31.5s-26.5 -51.5 -26.5 -91.5h62c0 22 3.33301 37.333 10 46s15.334 13 26.001 13c11.333 0 20.833 -3.16699 28.5 -9.5s15.167 -13.666 22.5 -21.999s16.333 -15.666 27 -21.999s24.667 -9.5 42 -9.5z" />
    <glyph glyph-name="itilde" unicode="&#x129;" horiz-adv-x="199" 
d="M62 0h75v536h-75v-536zM158 640c30.667 0 54.999 11.332 72.999 33.999s27 52.334 27 89.001h-61c0 -39.333 -13 -59 -39 -59c-11.333 0 -20.833 3.16699 -28.5 9.5s-15.167 13.666 -22.5 21.999s-16.333 15.666 -27 21.999s-24.667 9.5 -42 9.5
c-30 0 -53.833 -10.5 -71.5 -31.5s-26.5 -51.5 -26.5 -91.5h62c0 22 3.33301 37.333 10 46s15.334 13 26.001 13c11.333 0 20.833 -3.16699 28.5 -9.5s15.167 -13.666 22.5 -21.999s16.333 -15.666 27 -21.999s24.667 -9.5 42 -9.5z" />
    <glyph glyph-name="Imacron" unicode="&#x12a;" horiz-adv-x="256" 
d="M88 0h80v745h-80v-745zM-7 869h270v70h-270v-70z" />
    <glyph glyph-name="imacron" unicode="&#x12b;" horiz-adv-x="199" 
d="M62 0h75v536h-75v-536zM-36 660h270v70h-270v-70z" />
    <glyph glyph-name="Ibreve" unicode="&#x12c;" horiz-adv-x="256" 
d="M88 0h80v745h-80v-745zM128 849c50.667 0 89.5 13.832 116.5 41.499s40.5 63.834 40.5 108.501h-71c0 -28.667 -7.5 -50.834 -22.5 -66.501s-36.167 -23.5 -63.5 -23.5s-48.5 7.83301 -63.5 23.5s-22.5 37.834 -22.5 66.501h-72c0 -44 13.667 -80 41 -108
s66.333 -42 117 -42z" />
    <glyph glyph-name="ibreve" unicode="&#x12d;" horiz-adv-x="199" 
d="M62 0h75v536h-75v-536zM99 640c50.667 0 89.5 13.832 116.5 41.499s40.5 63.834 40.5 108.501h-71c0 -28.667 -7.5 -50.834 -22.5 -66.501s-36.167 -23.5 -63.5 -23.5s-48.5 7.83301 -63.5 23.5s-22.5 37.834 -22.5 66.501h-72c0 -44 13.667 -80 41 -108
s66.333 -42 117 -42z" />
    <glyph glyph-name="Iogonek" unicode="&#x12e;" horiz-adv-x="256" 
d="M88 0h80v745h-80v-745zM108 -230c19.333 0 38.499 3.33496 57.499 10.002s34.5 15.667 46.5 27l-21 53c-21.333 -20 -45.666 -30 -72.999 -30c-16.667 0 -30 5 -40 15s-15 21.333 -15 34c0 20.667 4.66699 39.5 14 56.5s21 31.167 35 42.5s27.667 18.666 41 21.999v20
h-31c-22.667 -6.66699 -44 -17.167 -64 -31.5s-36.167 -31.333 -48.5 -51s-18.5 -41.834 -18.5 -66.501c0 -30 10.5 -54.333 31.5 -73s49.5 -28 85.5 -28z" />
    <glyph glyph-name="iogonek" unicode="&#x12f;" horiz-adv-x="199" 
d="M62 0h75v536h-75v-536zM49 640h100v100h-100v-100zM90 -230c19.333 0 38.499 3.33496 57.499 10.002s34.5 15.667 46.5 27l-21 53c-21.333 -20 -45.666 -30 -72.999 -30c-16.667 0 -30 5 -40 15s-15 21.333 -15 34c0 20.667 4.66699 39.5 14 56.5s21 31.167 35 42.5
s27.667 18.666 41 21.999v20h-31c-22.667 -6.66699 -44 -17.167 -64 -31.5s-36.167 -31.333 -48.5 -51s-18.5 -41.834 -18.5 -66.501c0 -30 10.5 -54.333 31.5 -73s49.5 -28 85.5 -28z" />
    <glyph glyph-name="Idotaccent" unicode="&#x130;" horiz-adv-x="256" 
d="M88 0h80v745h-80v-745zM78 849h100v100h-100v-100z" />
    <glyph glyph-name="dotlessi" unicode="&#x131;" horiz-adv-x="199" 
d="M62 0h75v536h-75v-536z" />
    <glyph glyph-name="Jcircumflex" unicode="&#x134;" horiz-adv-x="383" 
d="M55 0h39.999c61.333 0 110 18.5 146 55.5s54 86.833 54 149.5v540h-80v-540c0 -38.667 -10.667 -69.167 -32 -91.5s-50.666 -33.5 -87.999 -33.5h-40v-80zM92.999 849h88l74 91l75 -91h88l-121 150h-84z" />
    <glyph glyph-name="jcircumflex" unicode="&#x135;" horiz-adv-x="229" 
d="M-23 -220c32 0 61.168 6.5 87.501 19.5s47.5 32.167 63.5 57.5s24 56.333 24 93v586h-75v-586c0 -33.333 -9.5 -58.333 -28.5 -75s-42.167 -25 -69.5 -25c-14 0 -28 1 -42 3v-69c5.33301 -1.33301 12.166 -2.33301 20.499 -3s14.833 -1 19.5 -1zM-46.999 640h88l74 91
l75 -91h88l-121 150h-84z" />
    <glyph glyph-name="uni0136" unicode="&#x136;" horiz-adv-x="654" 
d="M88 0h80v225l125 142l254 -367h96l-295 430l277 315h-100l-357 -406v406h-80v-745zM238 -240h69l65 170h-90z" />
    <glyph glyph-name="uni0137" unicode="&#x137;" horiz-adv-x="548" 
d="M77 0h75v161l102 105l193 -266h90l-229 321l210 215h-97l-269 -272v493h-75v-757zM185 -240h69l65 170h-90z" />
    <glyph glyph-name="kgreenlandic" unicode="&#x138;" horiz-adv-x="548" 
d="M77 0h75v247h117l178 -247h90l-201 285l169 251h-91l-144 -214h-118v214h-75v-536z" />
    <glyph glyph-name="Lacute" unicode="&#x139;" horiz-adv-x="531" 
d="M88 0h410v75h-330v670h-80v-745zM90 849h76l114 150h-103z" />
    <glyph glyph-name="lacute" unicode="&#x13a;" horiz-adv-x="229" 
d="M77 0h75v757h-75v-757zM77 849h76l114 150h-103z" />
    <glyph glyph-name="uni013B" unicode="&#x13b;" horiz-adv-x="531" 
d="M88 0h410v75h-330v670h-80v-745zM204 -240h69l65 170h-90z" />
    <glyph glyph-name="uni013C" unicode="&#x13c;" horiz-adv-x="229" 
d="M77 0h75v757h-75v-757zM26 -240h69l65 170h-90z" />
    <glyph glyph-name="Lcaron" unicode="&#x13d;" horiz-adv-x="531" 
d="M88 0h410v75h-330v670h-80v-745zM333 590h63l22 167h-85v-167z" />
    <glyph glyph-name="lcaron" unicode="&#x13e;" horiz-adv-x="353" 
d="M77 0h75v757h-75v-757zM229 590h63l22 167h-85v-167z" />
    <glyph glyph-name="Ldot" unicode="&#x13f;" horiz-adv-x="531" 
d="M88 0h410v75h-330v670h-80v-745zM334 315c16 0 29.5 5.5 40.5 16.5s16.5 24.833 16.5 41.5c0 16 -5.5 29.5 -16.5 40.5s-24.5 16.5 -40.5 16.5c-16.667 0 -30.5 -5.5 -41.5 -16.5s-16.5 -24.5 -16.5 -40.5c0 -16.667 5.5 -30.5 16.5 -41.5s24.833 -16.5 41.5 -16.5z" />
    <glyph glyph-name="ldot" unicode="&#x140;" horiz-adv-x="376" 
d="M77 0h75v757h-75v-757zM280 315c16 0 29.5 5.5 40.5 16.5s16.5 24.833 16.5 41.5c0 16 -5.5 29.5 -16.5 40.5s-24.5 16.5 -40.5 16.5c-16.667 0 -30.5 -5.5 -41.5 -16.5s-16.5 -24.5 -16.5 -40.5c0 -16.667 5.5 -30.5 16.5 -41.5s24.833 -16.5 41.5 -16.5z" />
    <glyph glyph-name="Lslash" unicode="&#x141;" horiz-adv-x="609" 
d="M166 0h410v75h-330v282l122 75v82l-122 -75v306h-80v-356l-122 -75v-82l122 75v-307z" />
    <glyph glyph-name="lslash" unicode="&#x142;" horiz-adv-x="337" 
d="M131 0h75v374l92 57v82l-92 -57v301h-75v-347l-93 -58v-82l93 58v-328z" />
    <glyph glyph-name="Nacute" unicode="&#x143;" horiz-adv-x="736" 
d="M88 0h80v592l410 -592h70v745h-80v-588l-410 588h-70v-745zM330 849h76l114 150h-103z" />
    <glyph glyph-name="nacute" unicode="&#x144;" 
d="M77 0l74.999 0.000976562v319c0 48 13.333 85.667 40 113s60.334 41 101.001 41c41.333 0 74.833 -13.5 100.5 -40.5s38.5 -64.833 38.5 -113.5v-319h75v348c0 38 -8.83301 72.167 -26.5 102.5s-41.667 54.166 -72 71.499s-64.5 26 -102.5 26
c-33.333 0 -63.333 -7 -90 -21s-48 -33 -64 -57v66h-75v-536zM248.999 640.001h76l114 150h-103z" />
    <glyph glyph-name="uni0145" unicode="&#x145;" horiz-adv-x="736" 
d="M88 0h80v592l410 -592h70v745h-80v-588l-410 588h-70v-745zM279 -240h69l65 170h-90z" />
    <glyph glyph-name="uni0146" unicode="&#x146;" 
d="M77 0l74.999 0.000976562v319c0 48 13.333 85.667 40 113s60.334 41 101.001 41c41.333 0 74.833 -13.5 100.5 -40.5s38.5 -64.833 38.5 -113.5v-319h75v348c0 38 -8.83301 72.167 -26.5 102.5s-41.667 54.166 -72 71.499s-64.5 26 -102.5 26
c-33.333 0 -63.333 -7 -90 -21s-48 -33 -64 -57v66h-75v-536zM197.999 -239.999h69l65 170h-90z" />
    <glyph glyph-name="Ncaron" unicode="&#x147;" horiz-adv-x="736" 
d="M88 0h80v592l410 -592h70v745h-80v-588l-410 588h-70v-745zM325 849h84l121 150h-88l-75 -91l-74 91h-88z" />
    <glyph glyph-name="ncaron" unicode="&#x148;" 
d="M77 0l74.999 0.000976562v319c0 48 13.333 85.667 40 113s60.334 41 101.001 41c41.333 0 74.833 -13.5 100.5 -40.5s38.5 -64.833 38.5 -113.5v-319h75v348c0 38 -8.83301 72.167 -26.5 102.5s-41.667 54.166 -72 71.499s-64.5 26 -102.5 26
c-33.333 0 -63.333 -7 -90 -21s-48 -33 -64 -57v66h-75v-536zM243.999 640.001h84l121 150h-88l-75 -91l-74 91h-88z" />
    <glyph glyph-name="Eng" unicode="&#x14a;" horiz-adv-x="736" 
d="M473 -220c32 0 61.167 6.5 87.5 19.5s47.5 32.167 63.5 57.5s24 56.333 24 93v795h-80v-588l-410 588h-70v-745h80v593l400 -581v-62c0 -33.333 -8.66699 -57.5 -26 -72.5s-39.666 -22.5 -66.999 -22.5c-14 0 -28 1 -42 3v-74
c5.33301 -1.33301 12.166 -2.33301 20.499 -3s14.833 -1 19.5 -1z" />
    <glyph glyph-name="eng" unicode="&#x14b;" horiz-adv-x="600" 
d="M320 -220c32 0 61.167 6.50098 87.5 19.501s47.5 32.167 63.5 57.5s24 56.333 24 93v398c0 38 -8.83301 72.167 -26.5 102.5s-41.667 54.166 -72 71.499s-64.5 26 -102.5 26c-33.333 0 -63.333 -7 -90 -21s-48 -33 -64 -57v66h-75v-536h75v319c0 48 13.333 85.667 40 113
s60.334 41 101.001 41c41.333 0 74.833 -13.5 100.5 -40.5s38.5 -64.833 38.5 -113.5v-369c0 -33.333 -9.5 -58.333 -28.5 -75s-42.167 -25 -69.5 -25c-14 0 -28 1 -42 3v-69c5.33301 -1.33301 12.166 -2.33301 20.499 -3s14.833 -1 19.5 -1z" />
    <glyph glyph-name="Omacron" unicode="&#x14c;" horiz-adv-x="878" 
d="M439 -12c52 0 100.5 9.5 145.5 28.5s84.5 45.667 118.5 80s60.667 75 80 122s29 98.5 29 154.5s-9.66699 107.333 -29 154s-46 87.167 -80 121.5s-73.5 61 -118.5 80s-93.5 28.5 -145.5 28.5s-100.5 -9.33301 -145.5 -28s-84.5 -45.167 -118.5 -79.5
s-60.667 -75 -80 -122s-29 -98.5 -29 -154.5s9.66699 -107.5 29 -154.5s46 -87.667 80 -122s73.5 -61 118.5 -80s93.5 -28.5 145.5 -28.5zM439 63c-57.333 0 -108 14 -152 42s-78.5 65.5 -103.5 112.5s-37.5 98.833 -37.5 155.5c0 42 7.16699 81.667 21.5 119
s34.5 70.333 60.5 99s56.833 51 92.5 67s75.167 24 118.5 24s82.833 -8 118.5 -24s66.5 -38.333 92.5 -67s46.167 -61.667 60.5 -99s21.5 -77 21.5 -119c0 -56.667 -12.5 -108.5 -37.5 -155.5s-59.5 -84.5 -103.5 -112.5s-94.667 -42 -152 -42zM304 869h270v70h-270v-70z
" />
    <glyph glyph-name="omacron" unicode="&#x14d;" horiz-adv-x="655" 
d="M328 -12c50 0 95.501 11.999 136.501 35.999s73.833 57.167 98.5 99.5s37 90.833 37 145.5c0 54 -11.833 102 -35.5 144s-56 75 -97 99s-87.5 36 -139.5 36s-98.5 -12.167 -139.5 -36.5s-73.5 -57.5 -97.5 -99.5s-36 -89.667 -36 -143c0 -54 12.167 -102.167 36.5 -144.5
s57.166 -75.666 98.499 -99.999s87.333 -36.5 138 -36.5zM328.001 62.999c-36 0 -68.5 9 -97.5 27s-52.167 42.667 -69.5 74s-26 66.333 -26 105s8.66699 73.334 26 104.001s40.5 55 69.5 73s61.5 27 97.5 27s68.5 -9 97.5 -27s52 -42.333 69 -73
s25.5 -65.334 25.5 -104.001s-8.5 -73.667 -25.5 -105s-40 -56 -69 -74s-61.5 -27 -97.5 -27zM193.001 659.999h270v70h-270v-70z" />
    <glyph glyph-name="Obreve" unicode="&#x14e;" horiz-adv-x="878" 
d="M439 -12c52 0 100.5 9.5 145.5 28.5s84.5 45.667 118.5 80s60.667 75 80 122s29 98.5 29 154.5s-9.66699 107.333 -29 154s-46 87.167 -80 121.5s-73.5 61 -118.5 80s-93.5 28.5 -145.5 28.5s-100.5 -9.33301 -145.5 -28s-84.5 -45.167 -118.5 -79.5
s-60.667 -75 -80 -122s-29 -98.5 -29 -154.5s9.66699 -107.5 29 -154.5s46 -87.667 80 -122s73.5 -61 118.5 -80s93.5 -28.5 145.5 -28.5zM439 63c-57.333 0 -108 14 -152 42s-78.5 65.5 -103.5 112.5s-37.5 98.833 -37.5 155.5c0 42 7.16699 81.667 21.5 119
s34.5 70.333 60.5 99s56.833 51 92.5 67s75.167 24 118.5 24s82.833 -8 118.5 -24s66.5 -38.333 92.5 -67s46.167 -61.667 60.5 -99s21.5 -77 21.5 -119c0 -56.667 -12.5 -108.5 -37.5 -155.5s-59.5 -84.5 -103.5 -112.5s-94.667 -42 -152 -42zM439 849
c50.667 0 89.5 13.832 116.5 41.499s40.5 63.834 40.5 108.501h-71c0 -28.667 -7.5 -50.834 -22.5 -66.501s-36.167 -23.5 -63.5 -23.5s-48.5 7.83301 -63.5 23.5s-22.5 37.834 -22.5 66.501h-72c0 -44 13.667 -80 41 -108s66.333 -42 117 -42z" />
    <glyph glyph-name="obreve" unicode="&#x14f;" horiz-adv-x="655" 
d="M328 -12c50 0 95.501 11.999 136.501 35.999s73.833 57.167 98.5 99.5s37 90.833 37 145.5c0 54 -11.833 102 -35.5 144s-56 75 -97 99s-87.5 36 -139.5 36s-98.5 -12.167 -139.5 -36.5s-73.5 -57.5 -97.5 -99.5s-36 -89.667 -36 -143c0 -54 12.167 -102.167 36.5 -144.5
s57.166 -75.666 98.499 -99.999s87.333 -36.5 138 -36.5zM328.001 62.999c-36 0 -68.5 9 -97.5 27s-52.167 42.667 -69.5 74s-26 66.333 -26 105s8.66699 73.334 26 104.001s40.5 55 69.5 73s61.5 27 97.5 27s68.5 -9 97.5 -27s52 -42.333 69 -73
s25.5 -65.334 25.5 -104.001s-8.5 -73.667 -25.5 -105s-40 -56 -69 -74s-61.5 -27 -97.5 -27zM328.001 639.999c50.667 0 89.5 13.832 116.5 41.499s40.5 63.834 40.5 108.501h-71c0 -28.667 -7.5 -50.834 -22.5 -66.501s-36.167 -23.5 -63.5 -23.5
s-48.5 7.83301 -63.5 23.5s-22.5 37.834 -22.5 66.501h-72c0 -44 13.667 -80 41 -108s66.333 -42 117 -42z" />
    <glyph glyph-name="Ohungarumlaut" unicode="&#x150;" horiz-adv-x="878" 
d="M439 -12c52 0 100.5 9.5 145.5 28.5s84.5 45.667 118.5 80s60.667 75 80 122s29 98.5 29 154.5s-9.66699 107.333 -29 154s-46 87.167 -80 121.5s-73.5 61 -118.5 80s-93.5 28.5 -145.5 28.5s-100.5 -9.33301 -145.5 -28s-84.5 -45.167 -118.5 -79.5
s-60.667 -75 -80 -122s-29 -98.5 -29 -154.5s9.66699 -107.5 29 -154.5s46 -87.667 80 -122s73.5 -61 118.5 -80s93.5 -28.5 145.5 -28.5zM439 63c-57.333 0 -108 14 -152 42s-78.5 65.5 -103.5 112.5s-37.5 98.833 -37.5 155.5c0 42 7.16699 81.667 21.5 119
s34.5 70.333 60.5 99s56.833 51 92.5 67s75.167 24 118.5 24s82.833 -8 118.5 -24s66.5 -38.333 92.5 -67s46.167 -61.667 60.5 -99s21.5 -77 21.5 -119c0 -56.667 -12.5 -108.5 -37.5 -155.5s-59.5 -84.5 -103.5 -112.5s-94.667 -42 -152 -42zM326 849h66l84 150h-93z
M486 849h66l84 150h-93z" />
    <glyph glyph-name="ohungarumlaut" unicode="&#x151;" horiz-adv-x="655" 
d="M328 -12c50 0 95.501 11.999 136.501 35.999s73.833 57.167 98.5 99.5s37 90.833 37 145.5c0 54 -11.833 102 -35.5 144s-56 75 -97 99s-87.5 36 -139.5 36s-98.5 -12.167 -139.5 -36.5s-73.5 -57.5 -97.5 -99.5s-36 -89.667 -36 -143c0 -54 12.167 -102.167 36.5 -144.5
s57.166 -75.666 98.499 -99.999s87.333 -36.5 138 -36.5zM328.001 62.999c-36 0 -68.5 9 -97.5 27s-52.167 42.667 -69.5 74s-26 66.333 -26 105s8.66699 73.334 26 104.001s40.5 55 69.5 73s61.5 27 97.5 27s68.5 -9 97.5 -27s52 -42.333 69 -73
s25.5 -65.334 25.5 -104.001s-8.5 -73.667 -25.5 -105s-40 -56 -69 -74s-61.5 -27 -97.5 -27zM215.001 639.999h66l84 150h-93zM375.001 639.999h66l84 150h-93z" />
    <glyph glyph-name="OE" unicode="&#x152;" horiz-adv-x="1261" 
d="M439 -12c60.667 0 117 13.167 169 39.5s95 62.5 129 108.5v-136h480v75h-400v261h380v75h-380v259h400v75h-480v-136c-34 46 -77 82.167 -129 108.5s-108.333 39.5 -169 39.5c-52 0 -100.5 -9.33301 -145.5 -28s-84.5 -45.167 -118.5 -79.5s-60.667 -75 -80 -122
s-29 -98.5 -29 -154.5s9.66699 -107.5 29 -154.5s46 -87.667 80 -122s73.5 -61 118.5 -80s93.5 -28.5 145.5 -28.5zM439 63c-57.333 0 -108 14 -152 42s-78.5 65.5 -103.5 112.5s-37.5 98.833 -37.5 155.5c0 42 7.16699 81.667 21.5 119s34.5 70.333 60.5 99
s56.833 51 92.5 67s75.167 24 118.5 24s82.833 -8 118.5 -24s66.5 -38.333 92.5 -67s46.167 -61.667 60.5 -99s21.5 -77 21.5 -119c0 -56.667 -12.5 -108.5 -37.5 -155.5s-59.5 -84.5 -103.5 -112.5s-94.667 -42 -152 -42z" />
    <glyph glyph-name="oe" unicode="&#x153;" horiz-adv-x="1085" 
d="M328 -12c49.333 0 94.668 12.002 136.001 36.002s74 56.667 98 98c22.667 -41.333 54 -74 94 -98s85 -36 135 -36c36.667 0 70.167 6.16699 100.5 18.5s56.5 28.666 78.5 48.999s38.333 42.5 49 66.5l-64 34c-16.667 -28 -38.334 -51.333 -65.001 -70
s-59.667 -28 -99 -28c-32 0 -62 7.66699 -90 23s-50.833 37 -68.5 65s-27.167 61 -28.5 99h422c1.33301 8.66699 2.33301 17.167 3 25.5s1 15.833 1 22.5c0 32 -5.66699 63.167 -17 93.5s-27.666 57.666 -48.999 81.999s-47.166 43.666 -77.499 57.999
s-64.833 21.5 -103.5 21.5c-48 0 -91.333 -11.667 -130 -35s-69.334 -55.333 -92.001 -96c-22.667 40 -54.5 71.833 -95.5 95.5s-86.833 35.5 -137.5 35.5c-52 0 -98.5 -12.167 -139.5 -36.5s-73.5 -57.5 -97.5 -99.5s-36 -89.667 -36 -143
c0 -54 12.167 -102.167 36.5 -144.5s57.166 -75.666 98.499 -99.999s87.333 -36.5 138 -36.5zM606.002 315.002c4 33.333 14.499 62.168 31.499 86.501s38.333 43.166 64 56.499s52.834 20 81.501 20c30 0 57.667 -7 83 -21s45.5 -33.167 60.5 -57.5s22.5 -52.5 22.5 -84.5
h-343zM328.001 63.0039c-36 0 -68.5 9 -97.5 27s-52.167 42.667 -69.5 74s-26 66.333 -26 105s8.66699 73.334 26 104.001s40.5 55 69.5 73s61.5 27 97.5 27s68.5 -9 97.5 -27s52 -42.333 69 -73s25.5 -65.334 25.5 -104.001s-8.5 -73.667 -25.5 -105s-40 -56 -69 -74
s-61.5 -27 -97.5 -27z" />
    <glyph glyph-name="Racute" unicode="&#x154;" horiz-adv-x="641" 
d="M88 0l80.001 0.00195312v290h182l164 -290h94l-174 303c47.333 15.333 84.833 41.666 112.5 78.999s41.5 82.333 41.5 135c0 45.333 -10.167 85.166 -30.5 119.499s-48.833 61 -85.5 80s-79.334 28.5 -128.001 28.5h-256v-745zM168.001 365.002v304.999h180
c48 0 86.667 -13.5 116 -40.5s44 -64.167 44 -111.5s-14.667 -84.666 -44 -111.999s-68 -41 -116 -41h-180zM277.001 849.001h76l114 150h-103z" />
    <glyph glyph-name="racute" unicode="&#x155;" horiz-adv-x="338" 
d="M77 0h75.001v330c0 44 11.667 78 35 102s54.333 36 93 36h47v75h-34c-32.667 0 -60.834 -5.66699 -84.501 -17s-42.5 -27.333 -56.5 -48v58h-75v-536zM164.001 640h76l114 150h-103z" />
    <glyph glyph-name="uni0156" unicode="&#x156;" horiz-adv-x="641" 
d="M88 0l80.001 0.00195312v290h182l164 -290h94l-174 303c47.333 15.333 84.833 41.666 112.5 78.999s41.5 82.333 41.5 135c0 45.333 -10.167 85.166 -30.5 119.499s-48.833 61 -85.5 80s-79.334 28.5 -128.001 28.5h-256v-745zM168.001 365.002v304.999h180
c48 0 86.667 -13.5 116 -40.5s44 -64.167 44 -111.5s-14.667 -84.666 -44 -111.999s-68 -41 -116 -41h-180zM226.001 -239.999h69l65 170h-90z" />
    <glyph glyph-name="uni0157" unicode="&#x157;" horiz-adv-x="338" 
d="M77 0h75.001v330c0 44 11.667 78 35 102s54.333 36 93 36h47v75h-34c-32.667 0 -60.834 -5.66699 -84.501 -17s-42.5 -27.333 -56.5 -48v58h-75v-536zM26.001 -240h69l65 170h-90z" />
    <glyph glyph-name="Rcaron" unicode="&#x158;" horiz-adv-x="641" 
d="M88 0l80.001 0.00195312v290h182l164 -290h94l-174 303c47.333 15.333 84.833 41.666 112.5 78.999s41.5 82.333 41.5 135c0 45.333 -10.167 85.166 -30.5 119.499s-48.833 61 -85.5 80s-79.334 28.5 -128.001 28.5h-256v-745zM168.001 365.002v304.999h180
c48 0 86.667 -13.5 116 -40.5s44 -64.167 44 -111.5s-14.667 -84.666 -44 -111.999s-68 -41 -116 -41h-180zM272.001 849.001h84l121 150h-88l-75 -91l-74 91h-88z" />
    <glyph glyph-name="rcaron" unicode="&#x159;" horiz-adv-x="338" 
d="M77 0h75.001v330c0 44 11.667 78 35 102s54.333 36 93 36h47v75h-34c-32.667 0 -60.834 -5.66699 -84.501 -17s-42.5 -27.333 -56.5 -48v58h-75v-536zM159.001 640h84l121 150h-88l-75 -91l-74 91h-88z" />
    <glyph glyph-name="Sacute" unicode="&#x15a;" horiz-adv-x="646" 
d="M339 -12c47.333 0 89.1709 8.66504 125.504 25.998s64.666 41.166 84.999 71.499s30.5 65.5 30.5 105.5c0 49.333 -15 90.333 -45 123s-74.333 57.667 -133 75l-118 35c-40 12 -69.667 30.167 -89 54.5s-29 51.833 -29 82.5c0 38 13.333 68.167 40 90.5
s61.334 33.5 104.001 33.5c45.333 0 84.833 -11.333 118.5 -34s58.5 -56 74.5 -100l70 28c-10.667 32.667 -28.334 62.334 -53.001 89.001s-54.834 48.167 -90.501 64.5s-75.834 24.5 -120.501 24.5c-42.667 0 -80.834 -8.66699 -114.501 -26s-60.167 -41.166 -79.5 -71.499
s-29 -65.166 -29 -104.499c0 -46 14.167 -87 42.5 -123s68.833 -61.667 121.5 -77l134 -40c37.333 -10.667 66 -26 86 -46s30 -48.333 30 -85c0 -37.333 -14.833 -67.333 -44.5 -90s-68.5 -34 -116.5 -34c-50.667 0 -94.334 13.167 -131.001 39.5s-63.667 64.833 -81 115.5
l-72 -27c11.333 -36.667 30.333 -70.167 57 -100.5s59.334 -54.5 98.001 -72.5s81.667 -27 129 -27zM285.005 848.998h76l114 150h-103z" />
    <glyph glyph-name="sacute" unicode="&#x15b;" horiz-adv-x="509" 
d="M263 -12c37.333 0 70.3291 6.49902 98.9961 19.499s51.167 31.167 67.5 54.5s24.5 49.666 24.5 78.999c0 36 -12.167 67.333 -36.5 94s-58.166 46.334 -101.499 59.001l-89 26c-9.33301 2.66699 -20.166 6.66699 -32.499 12s-23.166 13.333 -32.499 24s-14 25 -14 43
c0 23.333 9 42.666 27 57.999s42 23 72 23c30.667 0 58.5 -8.5 83.5 -25.5s44.167 -40.5 57.5 -70.5l64 30c-15.333 42 -41.5 74.833 -78.5 98.5s-78.167 35.5 -123.5 35.5c-33.333 0 -63.666 -6.33301 -90.999 -19s-49 -30.667 -65 -54s-24 -50.666 -24 -81.999
c0 -33.333 11 -62.666 33 -87.999s57.667 -45 107 -59l77 -22c10.667 -2.66699 23 -7 37 -13s26.333 -14.5 37 -25.5s16 -25.833 16 -44.5c0 -25.333 -11 -45.833 -33 -61.5s-49 -23.5 -81 -23.5c-33.333 0 -63.833 9.66699 -91.5 29s-49.167 45.333 -64.5 78l-63 -30
c17.333 -44.667 45.333 -80 84 -106s83.667 -39 135 -39zM216.996 639.999h76l114 150h-103z" />
    <glyph glyph-name="Scircumflex" unicode="&#x15c;" horiz-adv-x="646" 
d="M339 -12c47.333 0 89.1709 8.66504 125.504 25.998s64.666 41.166 84.999 71.499s30.5 65.5 30.5 105.5c0 49.333 -15 90.333 -45 123s-74.333 57.667 -133 75l-118 35c-40 12 -69.667 30.167 -89 54.5s-29 51.833 -29 82.5c0 38 13.333 68.167 40 90.5
s61.334 33.5 104.001 33.5c45.333 0 84.833 -11.333 118.5 -34s58.5 -56 74.5 -100l70 28c-10.667 32.667 -28.334 62.334 -53.001 89.001s-54.834 48.167 -90.501 64.5s-75.834 24.5 -120.501 24.5c-42.667 0 -80.834 -8.66699 -114.501 -26s-60.167 -41.166 -79.5 -71.499
s-29 -65.166 -29 -104.499c0 -46 14.167 -87 42.5 -123s68.833 -61.667 121.5 -77l134 -40c37.333 -10.667 66 -26 86 -46s30 -48.333 30 -85c0 -37.333 -14.833 -67.333 -44.5 -90s-68.5 -34 -116.5 -34c-50.667 0 -94.334 13.167 -131.001 39.5s-63.667 64.833 -81 115.5
l-72 -27c11.333 -36.667 30.333 -70.167 57 -100.5s59.334 -54.5 98.001 -72.5s81.667 -27 129 -27zM161.005 848.998h88l74 91l75 -91h88l-121 150h-84z" />
    <glyph glyph-name="scircumflex" unicode="&#x15d;" horiz-adv-x="509" 
d="M263 -12c37.333 0 70.3291 6.49902 98.9961 19.499s51.167 31.167 67.5 54.5s24.5 49.666 24.5 78.999c0 36 -12.167 67.333 -36.5 94s-58.166 46.334 -101.499 59.001l-89 26c-9.33301 2.66699 -20.166 6.66699 -32.499 12s-23.166 13.333 -32.499 24s-14 25 -14 43
c0 23.333 9 42.666 27 57.999s42 23 72 23c30.667 0 58.5 -8.5 83.5 -25.5s44.167 -40.5 57.5 -70.5l64 30c-15.333 42 -41.5 74.833 -78.5 98.5s-78.167 35.5 -123.5 35.5c-33.333 0 -63.666 -6.33301 -90.999 -19s-49 -30.667 -65 -54s-24 -50.666 -24 -81.999
c0 -33.333 11 -62.666 33 -87.999s57.667 -45 107 -59l77 -22c10.667 -2.66699 23 -7 37 -13s26.333 -14.5 37 -25.5s16 -25.833 16 -44.5c0 -25.333 -11 -45.833 -33 -61.5s-49 -23.5 -81 -23.5c-33.333 0 -63.833 9.66699 -91.5 29s-49.167 45.333 -64.5 78l-63 -30
c17.333 -44.667 45.333 -80 84 -106s83.667 -39 135 -39zM92.9961 639.999h88l74 91l75 -91h88l-121 150h-84z" />
    <glyph glyph-name="Scedilla" unicode="&#x15e;" horiz-adv-x="646" 
d="M339 -12c47.333 0 89.1709 8.66504 125.504 25.998s64.666 41.166 84.999 71.499s30.5 65.5 30.5 105.5c0 49.333 -15 90.333 -45 123s-74.333 57.667 -133 75l-118 35c-40 12 -69.667 30.167 -89 54.5s-29 51.833 -29 82.5c0 38 13.333 68.167 40 90.5
s61.334 33.5 104.001 33.5c45.333 0 84.833 -11.333 118.5 -34s58.5 -56 74.5 -100l70 28c-10.667 32.667 -28.334 62.334 -53.001 89.001s-54.834 48.167 -90.501 64.5s-75.834 24.5 -120.501 24.5c-42.667 0 -80.834 -8.66699 -114.501 -26s-60.167 -41.166 -79.5 -71.499
s-29 -65.166 -29 -104.499c0 -46 14.167 -87 42.5 -123s68.833 -61.667 121.5 -77l134 -40c37.333 -10.667 66 -26 86 -46s30 -48.333 30 -85c0 -37.333 -14.833 -67.333 -44.5 -90s-68.5 -34 -116.5 -34c-50.667 0 -94.334 13.167 -131.001 39.5s-63.667 64.833 -81 115.5
l-72 -27c11.333 -36.667 30.333 -70.167 57 -100.5s59.334 -54.5 98.001 -72.5s81.667 -27 129 -27zM351.005 -230.002c32 0 58.499 9 79.499 27s31.5 41 31.5 69c0 48.667 -35 80.667 -105 96l13 48h-54l-24 -84c34.667 -4 59.667 -10.333 75 -19s23 -20.667 23 -36
c0 -12 -4.5 -21.833 -13.5 -29.5s-20.833 -11.5 -35.5 -11.5c-27.333 0 -51.666 10 -72.999 30l-21 -53c12 -11.333 27.5 -20.333 46.5 -27s38.167 -10 57.5 -10z" />
    <glyph glyph-name="scedilla" unicode="&#x15f;" horiz-adv-x="509" 
d="M263 -12c37.333 0 70.3291 6.49902 98.9961 19.499s51.167 31.167 67.5 54.5s24.5 49.666 24.5 78.999c0 36 -12.167 67.333 -36.5 94s-58.166 46.334 -101.499 59.001l-89 26c-9.33301 2.66699 -20.166 6.66699 -32.499 12s-23.166 13.333 -32.499 24s-14 25 -14 43
c0 23.333 9 42.666 27 57.999s42 23 72 23c30.667 0 58.5 -8.5 83.5 -25.5s44.167 -40.5 57.5 -70.5l64 30c-15.333 42 -41.5 74.833 -78.5 98.5s-78.167 35.5 -123.5 35.5c-33.333 0 -63.666 -6.33301 -90.999 -19s-49 -30.667 -65 -54s-24 -50.666 -24 -81.999
c0 -33.333 11 -62.666 33 -87.999s57.667 -45 107 -59l77 -22c10.667 -2.66699 23 -7 37 -13s26.333 -14.5 37 -25.5s16 -25.833 16 -44.5c0 -25.333 -11 -45.833 -33 -61.5s-49 -23.5 -81 -23.5c-33.333 0 -63.833 9.66699 -91.5 29s-49.167 45.333 -64.5 78l-63 -30
c17.333 -44.667 45.333 -80 84 -106s83.667 -39 135 -39zM266.996 -230.001c32 0 58.499 9 79.499 27s31.5 41 31.5 69c0 48.667 -35 80.667 -105 96l13 48h-54l-24 -84c34.667 -4 59.667 -10.333 75 -19s23 -20.667 23 -36c0 -12 -4.5 -21.833 -13.5 -29.5
s-20.833 -11.5 -35.5 -11.5c-27.333 0 -51.666 10 -72.999 30l-21 -53c12 -11.333 27.5 -20.333 46.5 -27s38.167 -10 57.5 -10z" />
    <glyph glyph-name="Scaron" unicode="&#x160;" horiz-adv-x="646" 
d="M339 -12c47.333 0 89.1709 8.66504 125.504 25.998s64.666 41.166 84.999 71.499s30.5 65.5 30.5 105.5c0 49.333 -15 90.333 -45 123s-74.333 57.667 -133 75l-118 35c-40 12 -69.667 30.167 -89 54.5s-29 51.833 -29 82.5c0 38 13.333 68.167 40 90.5
s61.334 33.5 104.001 33.5c45.333 0 84.833 -11.333 118.5 -34s58.5 -56 74.5 -100l70 28c-10.667 32.667 -28.334 62.334 -53.001 89.001s-54.834 48.167 -90.501 64.5s-75.834 24.5 -120.501 24.5c-42.667 0 -80.834 -8.66699 -114.501 -26s-60.167 -41.166 -79.5 -71.499
s-29 -65.166 -29 -104.499c0 -46 14.167 -87 42.5 -123s68.833 -61.667 121.5 -77l134 -40c37.333 -10.667 66 -26 86 -46s30 -48.333 30 -85c0 -37.333 -14.833 -67.333 -44.5 -90s-68.5 -34 -116.5 -34c-50.667 0 -94.334 13.167 -131.001 39.5s-63.667 64.833 -81 115.5
l-72 -27c11.333 -36.667 30.333 -70.167 57 -100.5s59.334 -54.5 98.001 -72.5s81.667 -27 129 -27zM280.005 848.998h84l121 150h-88l-75 -91l-74 91h-88z" />
    <glyph glyph-name="scaron" unicode="&#x161;" horiz-adv-x="509" 
d="M263 -12c37.333 0 70.3291 6.49902 98.9961 19.499s51.167 31.167 67.5 54.5s24.5 49.666 24.5 78.999c0 36 -12.167 67.333 -36.5 94s-58.166 46.334 -101.499 59.001l-89 26c-9.33301 2.66699 -20.166 6.66699 -32.499 12s-23.166 13.333 -32.499 24s-14 25 -14 43
c0 23.333 9 42.666 27 57.999s42 23 72 23c30.667 0 58.5 -8.5 83.5 -25.5s44.167 -40.5 57.5 -70.5l64 30c-15.333 42 -41.5 74.833 -78.5 98.5s-78.167 35.5 -123.5 35.5c-33.333 0 -63.666 -6.33301 -90.999 -19s-49 -30.667 -65 -54s-24 -50.666 -24 -81.999
c0 -33.333 11 -62.666 33 -87.999s57.667 -45 107 -59l77 -22c10.667 -2.66699 23 -7 37 -13s26.333 -14.5 37 -25.5s16 -25.833 16 -44.5c0 -25.333 -11 -45.833 -33 -61.5s-49 -23.5 -81 -23.5c-33.333 0 -63.833 9.66699 -91.5 29s-49.167 45.333 -64.5 78l-63 -30
c17.333 -44.667 45.333 -80 84 -106s83.667 -39 135 -39zM211.996 639.999h84l121 150h-88l-75 -91l-74 91h-88z" />
    <glyph glyph-name="uni0162" unicode="&#x162;" horiz-adv-x="512" 
d="M217 0h80v670h204v75h-490v-75h206v-670zM268 -230c32 0 58.499 9 79.499 27s31.5 41 31.5 69c0 48.667 -35 80.667 -105 96l13 48h-54l-24 -84c34.667 -4 59.667 -10.333 75 -19s23 -20.667 23 -36c0 -12 -4.5 -21.833 -13.5 -29.5s-20.833 -11.5 -35.5 -11.5
c-27.333 0 -51.666 10 -72.999 30l-21 -53c12 -11.333 27.5 -20.333 46.5 -27s38.167 -10 57.5 -10z" />
    <glyph glyph-name="uni0163" unicode="&#x163;" horiz-adv-x="388" 
d="M282 -6c6 0 13.998 0.500977 23.998 1.50098s19 2.5 27 4.5v67c-5.33301 -0.666992 -11.666 -1.33398 -18.999 -2.00098s-13.666 -1 -18.999 -1c-33.333 0 -56.333 8.66699 -69 26s-19 39.333 -19 66v305h118v75h-118v124h-75v-45c0 -22.667 -6.66699 -41.5 -20 -56.5
s-31.333 -22.5 -54 -22.5h-25v-75h99v-305c0 -52 13 -92 39 -120s63 -42 111 -42zM285.998 -229.999c32 0 58.499 9 79.499 27s31.5 41 31.5 69c0 48.667 -35 80.667 -105 96l13 48h-54l-24 -84c34.667 -4 59.667 -10.333 75 -19s23 -20.667 23 -36
c0 -12 -4.5 -21.833 -13.5 -29.5s-20.833 -11.5 -35.5 -11.5c-27.333 0 -51.666 10 -72.999 30l-21 -53c12 -11.333 27.5 -20.333 46.5 -27s38.167 -10 57.5 -10z" />
    <glyph glyph-name="Tcaron" unicode="&#x164;" horiz-adv-x="512" 
d="M217 0h80v670h204v75h-490v-75h206v-670zM213 849h84l121 150h-88l-75 -91l-74 91h-88z" />
    <glyph glyph-name="tcaron" unicode="&#x165;" horiz-adv-x="379" 
d="M282 -6c6 0 13.998 0.500977 23.998 1.50098s19 2.5 27 4.5v67c-5.33301 -0.666992 -11.666 -1.33398 -18.999 -2.00098s-13.666 -1 -18.999 -1c-33.333 0 -56.333 8.66699 -69 26s-19 39.333 -19 66v305h118v75h-118v124h-75v-45c0 -22.667 -6.66699 -41.5 -20 -56.5
s-31.333 -22.5 -54 -22.5h-25v-75h99v-305c0 -52 13 -92 39 -120s63 -42 111 -42zM265.998 590.001h63l22 167h-85v-167z" />
    <glyph glyph-name="Tbar" unicode="&#x166;" horiz-adv-x="512" 
d="M217 0h80v338h109v70h-109v262h204v75h-490v-75h206v-262h-111v-70h111v-338z" />
    <glyph glyph-name="tbar" unicode="&#x167;" horiz-adv-x="388" 
d="M282 -6c6 0 13.998 0.500977 23.998 1.50098s19 2.5 27 4.5v67c-5.33301 -0.666992 -11.666 -1.33398 -18.999 -2.00098s-13.666 -1 -18.999 -1c-33.333 0 -56.333 8.66699 -69 26s-19 39.333 -19 66v305h118v75h-118v124h-75v-45c0 -22.667 -6.66699 -41.5 -20 -56.5
s-31.333 -22.5 -54 -22.5h-25v-75h99v-305c0 -52 13 -92 39 -120s63 -42 111 -42zM23.998 231.001h292v75h-292v-75z" />
    <glyph glyph-name="Utilde" unicode="&#x168;" horiz-adv-x="700" 
d="M350 -12c53.333 0 99.833 11 139.5 33s70.5 52.167 92.5 90.5s33 82.166 33 131.499v502h-80v-502c0 -54 -17 -97.5 -51 -130.5s-78.667 -49.5 -134 -49.5c-54.667 0 -99.167 16.5 -133.5 49.5s-51.5 76.5 -51.5 130.5v502h-80v-502c0 -49.333 11 -93.166 33 -131.499
s53 -68.5 93 -90.5s86.333 -33 139 -33zM409 849c30.667 0 54.999 11.332 72.999 33.999s27 52.334 27 89.001h-61c0 -39.333 -13 -59 -39 -59c-11.333 0 -20.833 3.16699 -28.5 9.5s-15.167 13.666 -22.5 21.999s-16.333 15.666 -27 21.999s-24.667 9.5 -42 9.5
c-30 0 -53.833 -10.5 -71.5 -31.5s-26.5 -51.5 -26.5 -91.5h62c0 22 3.33301 37.333 10 46s15.334 13 26.001 13c11.333 0 20.833 -3.16699 28.5 -9.5s15.167 -13.666 22.5 -21.999s16.333 -15.666 27 -21.999s24.667 -9.5 42 -9.5z" />
    <glyph glyph-name="utilde" unicode="&#x169;" 
d="M267 -12c33.333 0 63.3311 7.00195 89.998 21.002s48 33 64 57v-66h75v536h-75v-319c0 -48 -13.167 -85.667 -39.5 -113s-60.166 -41 -101.499 -41c-40.667 0 -74 13.167 -100 39.5s-39 61.166 -39 104.499v329h-75v-338c0 -41.333 8.83301 -77.833 26.5 -109.5
s41.834 -56.334 72.501 -74.001s64.667 -26.5 102 -26.5zM345.998 640.002c30.667 0 54.999 11.332 72.999 33.999s27 52.334 27 89.001h-61c0 -39.333 -13 -59 -39 -59c-11.333 0 -20.833 3.16699 -28.5 9.5s-15.167 13.666 -22.5 21.999s-16.333 15.666 -27 21.999
s-24.667 9.5 -42 9.5c-30 0 -53.833 -10.5 -71.5 -31.5s-26.5 -51.5 -26.5 -91.5h62c0 22 3.33301 37.333 10 46s15.334 13 26.001 13c11.333 0 20.833 -3.16699 28.5 -9.5s15.167 -13.666 22.5 -21.999s16.333 -15.666 27 -21.999s24.667 -9.5 42 -9.5z" />
    <glyph glyph-name="Umacron" unicode="&#x16a;" horiz-adv-x="700" 
d="M350 -12c53.333 0 99.833 11 139.5 33s70.5 52.167 92.5 90.5s33 82.166 33 131.499v502h-80v-502c0 -54 -17 -97.5 -51 -130.5s-78.667 -49.5 -134 -49.5c-54.667 0 -99.167 16.5 -133.5 49.5s-51.5 76.5 -51.5 130.5v502h-80v-502c0 -49.333 11 -93.166 33 -131.499
s53 -68.5 93 -90.5s86.333 -33 139 -33zM215 869h270v70h-270v-70z" />
    <glyph glyph-name="umacron" unicode="&#x16b;" 
d="M267 -12c33.333 0 63.3311 7.00195 89.998 21.002s48 33 64 57v-66h75v536h-75v-319c0 -48 -13.167 -85.667 -39.5 -113s-60.166 -41 -101.499 -41c-40.667 0 -74 13.167 -100 39.5s-39 61.166 -39 104.499v329h-75v-338c0 -41.333 8.83301 -77.833 26.5 -109.5
s41.834 -56.334 72.501 -74.001s64.667 -26.5 102 -26.5zM151.998 660.002h270v70h-270v-70z" />
    <glyph glyph-name="Ubreve" unicode="&#x16c;" horiz-adv-x="700" 
d="M350 -12c53.333 0 99.833 11 139.5 33s70.5 52.167 92.5 90.5s33 82.166 33 131.499v502h-80v-502c0 -54 -17 -97.5 -51 -130.5s-78.667 -49.5 -134 -49.5c-54.667 0 -99.167 16.5 -133.5 49.5s-51.5 76.5 -51.5 130.5v502h-80v-502c0 -49.333 11 -93.166 33 -131.499
s53 -68.5 93 -90.5s86.333 -33 139 -33zM350 849c50.667 0 89.5 13.832 116.5 41.499s40.5 63.834 40.5 108.501h-71c0 -28.667 -7.5 -50.834 -22.5 -66.501s-36.167 -23.5 -63.5 -23.5s-48.5 7.83301 -63.5 23.5s-22.5 37.834 -22.5 66.501h-72c0 -44 13.667 -80 41 -108
s66.333 -42 117 -42z" />
    <glyph glyph-name="ubreve" unicode="&#x16d;" 
d="M267 -12c33.333 0 63.3311 7.00195 89.998 21.002s48 33 64 57v-66h75v536h-75v-319c0 -48 -13.167 -85.667 -39.5 -113s-60.166 -41 -101.499 -41c-40.667 0 -74 13.167 -100 39.5s-39 61.166 -39 104.499v329h-75v-338c0 -41.333 8.83301 -77.833 26.5 -109.5
s41.834 -56.334 72.501 -74.001s64.667 -26.5 102 -26.5zM286.998 640.002c50.667 0 89.5 13.832 116.5 41.499s40.5 63.834 40.5 108.501h-71c0 -28.667 -7.5 -50.834 -22.5 -66.501s-36.167 -23.5 -63.5 -23.5s-48.5 7.83301 -63.5 23.5s-22.5 37.834 -22.5 66.501h-72
c0 -44 13.667 -80 41 -108s66.333 -42 117 -42z" />
    <glyph glyph-name="Uring" unicode="&#x16e;" horiz-adv-x="700" 
d="M350 -12c53.333 0 99.833 11 139.5 33s70.5 52.167 92.5 90.5s33 82.166 33 131.499v502h-80v-502c0 -54 -17 -97.5 -51 -130.5s-78.667 -49.5 -134 -49.5c-54.667 0 -99.167 16.5 -133.5 49.5s-51.5 76.5 -51.5 130.5v502h-80v-502c0 -49.333 11 -93.166 33 -131.499
s53 -68.5 93 -90.5s86.333 -33 139 -33zM350 829c29.333 0 55 9.66699 77 29s33 45.333 33 78c0 33.333 -11 59.666 -33 78.999s-47.667 29 -77 29c-30 0 -55.833 -9.66699 -77.5 -29s-32.5 -45.666 -32.5 -78.999s11 -59.5 33 -78.5s47.667 -28.5 77 -28.5zM350 883
c-14.667 0 -27 4.83301 -37 14.5s-15 22.5 -15 38.5c0 16.667 5.16699 29.667 15.5 39s22.5 14 36.5 14c14.667 0 27 -4.83301 37 -14.5s15 -22.5 15 -38.5s-5 -28.833 -15 -38.5s-22.333 -14.5 -37 -14.5z" />
    <glyph glyph-name="uring" unicode="&#x16f;" 
d="M267 -12c33.333 0 63.3311 7.00195 89.998 21.002s48 33 64 57v-66h75v536h-75v-319c0 -48 -13.167 -85.667 -39.5 -113s-60.166 -41 -101.499 -41c-40.667 0 -74 13.167 -100 39.5s-39 61.166 -39 104.499v329h-75v-338c0 -41.333 8.83301 -77.833 26.5 -109.5
s41.834 -56.334 72.501 -74.001s64.667 -26.5 102 -26.5zM286.998 620.002c29.333 0 55 9.66699 77 29s33 45.333 33 78c0 33.333 -11 59.666 -33 78.999s-47.667 29 -77 29c-30 0 -55.833 -9.66699 -77.5 -29s-32.5 -45.666 -32.5 -78.999s11 -59.5 33 -78.5
s47.667 -28.5 77 -28.5zM286.998 674.002c-14.667 0 -27 4.83301 -37 14.5s-15 22.5 -15 38.5c0 16.667 5.16699 29.667 15.5 39s22.5 14 36.5 14c14.667 0 27 -4.83301 37 -14.5s15 -22.5 15 -38.5s-5 -28.833 -15 -38.5s-22.333 -14.5 -37 -14.5z" />
    <glyph glyph-name="Uhungarumlaut" unicode="&#x170;" horiz-adv-x="700" 
d="M350 -12c53.333 0 99.833 11 139.5 33s70.5 52.167 92.5 90.5s33 82.166 33 131.499v502h-80v-502c0 -54 -17 -97.5 -51 -130.5s-78.667 -49.5 -134 -49.5c-54.667 0 -99.167 16.5 -133.5 49.5s-51.5 76.5 -51.5 130.5v502h-80v-502c0 -49.333 11 -93.166 33 -131.499
s53 -68.5 93 -90.5s86.333 -33 139 -33zM237 849h66l84 150h-93zM397 849h66l84 150h-93z" />
    <glyph glyph-name="uhungarumlaut" unicode="&#x171;" 
d="M267 -12c33.333 0 63.3311 7.00195 89.998 21.002s48 33 64 57v-66h75v536h-75v-319c0 -48 -13.167 -85.667 -39.5 -113s-60.166 -41 -101.499 -41c-40.667 0 -74 13.167 -100 39.5s-39 61.166 -39 104.499v329h-75v-338c0 -41.333 8.83301 -77.833 26.5 -109.5
s41.834 -56.334 72.501 -74.001s64.667 -26.5 102 -26.5zM173.998 640.002h66l84 150h-93zM333.998 640.002h66l84 150h-93z" />
    <glyph glyph-name="Uogonek" unicode="&#x172;" horiz-adv-x="700" 
d="M350 -12c53.333 0 99.833 11 139.5 33s70.5 52.167 92.5 90.5s33 82.166 33 131.499v502h-80v-502c0 -54 -17 -97.5 -51 -130.5s-78.667 -49.5 -134 -49.5c-54.667 0 -99.167 16.5 -133.5 49.5s-51.5 76.5 -51.5 130.5v502h-80v-502c0 -49.333 11 -93.166 33 -131.499
s53 -68.5 93 -90.5s86.333 -33 139 -33zM340 -230c19.333 0 38.499 3.33496 57.499 10.002s34.5 15.667 46.5 27l-21 53c-21.333 -20 -45.666 -30 -72.999 -30c-16.667 0 -30 5 -40 15s-15 21.333 -15 34c0 20.667 4.66699 39.5 14 56.5s21 31.167 35 42.5
s27.667 18.666 41 21.999v20h-31c-22.667 -6.66699 -44 -17.167 -64 -31.5s-36.167 -31.333 -48.5 -51s-18.5 -41.834 -18.5 -66.501c0 -30 10.5 -54.333 31.5 -73s49.5 -28 85.5 -28z" />
    <glyph glyph-name="uogonek" unicode="&#x173;" 
d="M267 -12c33.333 0 63.3311 7.00195 89.998 21.002s48 33 64 57v-66h75v536h-75v-319c0 -48 -13.167 -85.667 -39.5 -113s-60.166 -41 -101.499 -41c-40.667 0 -74 13.167 -100 39.5s-39 61.166 -39 104.499v329h-75v-338c0 -41.333 8.83301 -77.833 26.5 -109.5
s41.834 -56.334 72.501 -74.001s64.667 -26.5 102 -26.5zM428.998 -229.998c19.333 0 38.499 3.33496 57.499 10.002s34.5 15.667 46.5 27l-21 53c-21.333 -20 -45.666 -30 -72.999 -30c-16.667 0 -30 5 -40 15s-15 21.333 -15 34c0 20.667 4.66699 39.5 14 56.5
s21 31.167 35 42.5s27.667 18.666 41 21.999v20h-31c-22.667 -6.66699 -44 -17.167 -64 -31.5s-36.167 -31.333 -48.5 -51s-18.5 -41.834 -18.5 -66.501c0 -30 10.5 -54.333 31.5 -73s49.5 -28 85.5 -28z" />
    <glyph glyph-name="Wcircumflex" unicode="&#x174;" horiz-adv-x="984" 
d="M225 0h85l182 638l182 -638h85l214 745h-81l-177 -635l-180 635h-85l-181 -637l-177 637h-81zM330 849h88l74 91l75 -91h88l-121 150h-84z" />
    <glyph glyph-name="wcircumflex" unicode="&#x175;" horiz-adv-x="797" 
d="M195 0h75l129 424l128 -424h75l184 536h-84l-137 -421l-129 421h-75l-128 -421l-137 421h-85zM237 640h88l74 91l75 -91h88l-121 150h-84z" />
    <glyph glyph-name="Ycircumflex" unicode="&#x176;" horiz-adv-x="623" 
d="M272 0h80v346l260 399h-89l-211 -323l-212 323h-89l261 -399v-346zM150 849h88l74 91l75 -91h88l-121 150h-84z" />
    <glyph glyph-name="ycircumflex" unicode="&#x177;" horiz-adv-x="536" 
d="M88 -220c35.333 0 65.333 7.16797 90 21.501s45.167 33.166 61.5 56.499s29.833 48 40.5 74l245 604h-83l-175 -442l-175 442h-81l214 -536l-19 -46c-16.667 -38.667 -33.667 -64.834 -51 -78.501s-42.333 -20.5 -75 -20.5c-10.667 0 -21.167 0.833008 -31.5 2.5
s-18.833 2.83398 -25.5 3.50098v-70c10.667 -4 21.5 -6.83301 32.5 -8.5s21.833 -2.5 32.5 -2.5zM106 640.001h88l74 91l75 -91h88l-121 150h-84z" />
    <glyph glyph-name="Ydieresis" unicode="&#x178;" horiz-adv-x="623" 
d="M272 0h80v346l260 399h-89l-211 -323l-212 323h-89l261 -399v-346zM172 849h100v100h-100v-100zM352 849h100v100h-100v-100z" />
    <glyph glyph-name="Zacute" unicode="&#x179;" horiz-adv-x="584" 
d="M22 0h540v75h-434l425 616v54h-506v-75h401l-426 -616v-54zM254 849h76l114 150h-103z" />
    <glyph glyph-name="zacute" unicode="&#x17a;" horiz-adv-x="449" 
d="M22 0h405v75h-302l300 396v65h-386v-75h284l-301 -396v-65zM181 640h76l114 150h-103z" />
    <glyph glyph-name="Zdotaccent" unicode="&#x17b;" horiz-adv-x="584" 
d="M22 0h540v75h-434l425 616v54h-506v-75h401l-426 -616v-54zM242 849h100v100h-100v-100z" />
    <glyph glyph-name="zdotaccent" unicode="&#x17c;" horiz-adv-x="449" 
d="M22 0h405v75h-302l300 396v65h-386v-75h284l-301 -396v-65zM169 640h100v100h-100v-100z" />
    <glyph glyph-name="Zcaron" unicode="&#x17d;" horiz-adv-x="584" 
d="M22 0h540v75h-434l425 616v54h-506v-75h401l-426 -616v-54zM249 849h84l121 150h-88l-75 -91l-74 91h-88z" />
    <glyph glyph-name="zcaron" unicode="&#x17e;" horiz-adv-x="449" 
d="M22 0h405v75h-302l300 396v65h-386v-75h284l-301 -396v-65zM176 640h84l121 150h-88l-75 -91l-74 91h-88z" />
    <glyph glyph-name="uni018F" unicode="&#x18f;" horiz-adv-x="832" 
d="M412 -12c54.667 0 103.833 10.165 147.5 30.498s80.834 48.166 111.501 83.499s54.167 75.833 70.5 121.5s24.5 94.167 24.5 145.5c0 56 -9.33301 107.5 -28 154.5s-44.834 88 -78.501 123s-73.167 62.167 -118.5 81.5s-94.333 29 -147 29
c-46 0 -89.5 -7.33301 -130.5 -22s-77 -35.167 -108 -61.5s-55.167 -57.166 -72.5 -92.499l71 -36c22.667 42.667 55.167 76.167 97.5 100.5s89.833 36.5 142.5 36.5c54 0 102.333 -12.5 145 -37.5s77 -58.667 103 -101s40.333 -90.166 43 -143.499h-613
c-2 -10.667 -3.5 -20.667 -4.5 -30s-1.5 -19.666 -1.5 -30.999c0 -50 8.5 -96.167 25.5 -138.5s41 -79.5 72 -111.5s67.5 -56.833 109.5 -74.5s88.333 -26.5 139 -26.5zM154.999 314.998l-0.000976562 10h529c-5.33301 -54 -20 -100.667 -44 -140s-55.333 -69.5 -94 -90.5
s-82 -31.5 -130 -31.5c-50.667 0 -95.667 11 -135 33s-70.166 52 -92.499 90s-33.5 81 -33.5 129z" />
    <glyph glyph-name="florin" unicode="&#x192;" horiz-adv-x="487" 
d="M102 -12c31.333 0 60.666 6.83105 87.999 20.498s49.333 34 66 61s25 60.833 25 101.5v169h131v65h-131v169c0 43.333 10.667 73 32 89s48 24 80 24c3.33301 0 9 -0.166992 17 -0.5s14.333 -1.16602 19 -2.49902v68c-5.33301 1.33301 -12.333 2.5 -21 3.5
s-16.334 1.5 -23.001 1.5c-31.333 0 -60.666 -6.83301 -87.999 -20.5s-49.333 -34 -66 -61s-25 -60.833 -25 -101.5v-169h-131v-65h131v-169c0 -42.667 -10.667 -72.167 -32 -88.5s-48 -24.5 -80 -24.5c-3.33301 0 -9 0.333008 -17 1s-14.333 1.33398 -19 2.00098v-68
c5.33301 -1.33301 12.333 -2.5 21 -3.5s16.334 -1.5 23.001 -1.5z" />
    <glyph glyph-name="Ohorn" unicode="&#x1a0;" horiz-adv-x="878" 
d="M439 -12c52 0 100.499 9.50195 145.499 28.502s84.5 45.667 118.5 80s60.667 75 80 122s29 98.5 29 154.5c0 69.333 -14.667 131.666 -44 186.999s-68.666 99.666 -117.999 132.999h16c39.333 0 70.833 7.83301 94.5 23.5s35.5 43.834 35.5 84.501
c0 17.333 -2.33301 33.166 -7 47.499s-10.667 27.833 -18 40.5h-92c6.66699 -13.333 12.167 -26.5 16.5 -39.5s6.5 -26.5 6.5 -40.5c0 -22.667 -5.5 -37 -16.5 -43s-22.167 -9 -33.5 -9h-213c-52 0 -100.5 -9.33301 -145.5 -28s-84.5 -45.167 -118.5 -79.5
s-60.667 -75 -80 -122s-29 -98.5 -29 -154.5s9.66699 -107.5 29 -154.5s46 -87.667 80 -122s73.5 -61 118.5 -80s93.5 -28.5 145.5 -28.5zM438.999 63.002c-57.333 0 -108 14 -152 42s-78.5 65.5 -103.5 112.5s-37.5 98.833 -37.5 155.5c0 42 7.16699 81.667 21.5 119
s34.5 70.333 60.5 99s56.833 51 92.5 67s75.167 24 118.5 24s82.833 -8 118.5 -24s66.5 -38.333 92.5 -67s46.167 -61.667 60.5 -99s21.5 -77 21.5 -119c0 -56.667 -12.5 -108.5 -37.5 -155.5s-59.5 -84.5 -103.5 -112.5s-94.667 -42 -152 -42z" />
    <glyph glyph-name="ohorn" unicode="&#x1a1;" horiz-adv-x="655" 
d="M328 -12c50 0 95.5 11.998 136.5 35.998s73.833 57.167 98.5 99.5s37 90.833 37 145.5c0 47.333 -9.5 90.333 -28.5 129s-44.833 70.334 -77.5 95.001c22 6 39.667 17.333 53 34s20 39 20 67c0 16.667 -2.33301 32 -7 46s-10 27.667 -16 41h-74
c6 -13.333 11.167 -26.5 15.5 -39.5s6.5 -26.5 6.5 -40.5c0 -21.333 -5.16699 -35.5 -15.5 -42.5s-22.166 -10.5 -35.499 -10.5h-113c-52 0 -98.5 -12.167 -139.5 -36.5s-73.5 -57.5 -97.5 -99.5s-36 -89.667 -36 -143c0 -54 12.167 -102.167 36.5 -144.5
s57.166 -75.666 98.499 -99.999s87.333 -36.5 138 -36.5zM328 62.998c-36 0 -68.5 9 -97.5 27s-52.167 42.667 -69.5 74s-26 66.333 -26 105s8.66699 73.334 26 104.001s40.5 55 69.5 73s61.5 27 97.5 27s68.5 -9 97.5 -27s52 -42.333 69 -73s25.5 -65.334 25.5 -104.001
s-8.5 -73.667 -25.5 -105s-40 -56 -69 -74s-61.5 -27 -97.5 -27z" />
    <glyph glyph-name="Uhorn" unicode="&#x1af;" horiz-adv-x="700" 
d="M350 -12c53.333 0 99.833 11.001 139.5 33.001s70.5 52.167 92.5 90.5s33 82.166 33 131.499v428h7c39.333 0 70.833 9.5 94.5 28.5s35.5 48.833 35.5 89.5c0 17.333 -2.33301 33.166 -7 47.499s-10.667 27.833 -18 40.5h-92c6.66699 -13.333 12.167 -26.5 16.5 -39.5
s6.5 -26.5 6.5 -40.5c0 -22.667 -5.5 -37 -16.5 -43s-22.167 -9 -33.5 -9h-73v-502c0 -54 -17 -97.5 -51 -130.5s-78.667 -49.5 -134 -49.5c-54.667 0 -99.167 16.5 -133.5 49.5s-51.5 76.5 -51.5 130.5v502h-80v-502c0 -49.333 11 -93.166 33 -131.499s53 -68.5 93 -90.5
s86.333 -33 139 -33z" />
    <glyph glyph-name="uhorn" unicode="&#x1b0;" horiz-adv-x="595" 
d="M267 -12c33.333 0 63.3301 6.83496 89.9971 20.502s48 32.834 64 57.501v-66h75v477c27.333 4 49 14.667 65 32s24 41.666 24 72.999c0 16.667 -2.33301 32 -7 46s-10 27.667 -16 41h-74c6 -13.333 11.167 -26.5 15.5 -39.5s6.5 -26.5 6.5 -40.5
c0 -21.333 -5.16699 -35.5 -15.5 -42.5s-22.166 -10.5 -35.499 -10.5h-38v-319c0 -48 -13.167 -85.667 -39.5 -113s-60.166 -41 -101.499 -41c-40.667 0 -74 13.167 -100 39.5s-39 61.166 -39 104.499v329h-75v-338c0 -41.333 8.83301 -77.833 26.5 -109.5
s41.834 -56.334 72.501 -74.001s64.667 -26.5 102 -26.5z" />
    <glyph glyph-name="uni01C4" unicode="&#x1c4;" horiz-adv-x="1326" 
d="M88 0h245c74 -0 138.333 15.333 193 46s97 74 127 130s45 121.667 45 197c0 76 -15 141.833 -45 197.5s-72.333 98.667 -127 129s-119 45.5 -193 45.5h-245v-745zM168 75v595h165c56.667 0 106 -12.167 148 -36.5s74.667 -58.666 98 -102.999s35 -96.833 35 -157.5
s-11.5 -113.334 -34.5 -158.001s-55.5 -79.167 -97.5 -103.5s-91.667 -36.5 -149 -36.5h-165zM764 0h540v75h-434l425 616v54h-506v-75h401l-426 -616v-54zM991 849h84l121 150h-88l-75 -91l-74 91h-88z" />
    <glyph glyph-name="uni01C5" unicode="&#x1c5;" horiz-adv-x="1191" 
d="M88 0h245c74 -0 138.333 15.333 193 46s97 74 127 130s45 121.667 45 197c0 76 -15 141.833 -45 197.5s-72.333 98.667 -127 129s-119 45.5 -193 45.5h-245v-745zM168 75v595h165c56.667 0 106 -12.167 148 -36.5s74.667 -58.666 98 -102.999s35 -96.833 35 -157.5
s-11.5 -113.334 -34.5 -158.001s-55.5 -79.167 -97.5 -103.5s-91.667 -36.5 -149 -36.5h-165zM764 0h405v75h-302l300 396v65h-386v-75h284l-301 -396v-65zM918 640h84l121 150h-88l-75 -91l-74 91h-88z" />
    <glyph glyph-name="uni01C6" unicode="&#x1c6;" horiz-adv-x="1116" 
d="M319 -12c41.333 0 79.334 8.66504 114.001 25.998s62 41.666 82 72.999v-87h75v757h-75v-302c-22 28.667 -49.667 51.334 -83 68.001s-71 25 -113 25c-50.667 0 -95.834 -12.167 -135.501 -36.5s-71 -57.5 -94 -99.5s-34.5 -90 -34.5 -144
c0 -53.333 11.5 -101.166 34.5 -143.499s54.5 -75.666 94.5 -99.999s85 -36.5 135 -36.5zM323.001 62.998c-36 0 -68.168 9 -96.501 27s-50.666 42.5 -66.999 73.5s-24.5 65.833 -24.5 104.5c0 39.333 8.16699 74.333 24.5 105s38.833 55 67.5 73s60.667 27 96 27
c36 0 68.5 -9 97.5 -27s52 -42.5 69 -73.5s25.5 -65.833 25.5 -104.5s-8.5 -73.5 -25.5 -104.5s-40 -55.5 -69 -73.5s-61.5 -27 -97.5 -27zM689 -0.00195312h405v75h-302l300 396v65h-386v-75h284l-301 -396v-65zM843 639.998h84l121 150h-88l-75 -91l-74 91h-88z" />
    <glyph glyph-name="uni01C7" unicode="&#x1c7;" horiz-adv-x="1109" 
d="M88 0h410v75h-330v670h-80v-745zM808 -12c44 0 81.832 9.00195 113.499 27.002s56.167 42.667 73.5 74s26 66.666 26 105.999v550h-80v-550c0 -38.667 -11.833 -70.334 -35.5 -95.001s-56.167 -37 -97.5 -37c-37.333 0 -70.166 10.833 -98.499 32.5
s-48.166 51.5 -59.499 89.5l-74 -22c13.333 -52.667 40.666 -95 81.999 -127s91.333 -48 150 -48z" />
    <glyph glyph-name="uni01C8" unicode="&#x1c8;" horiz-adv-x="760" 
d="M88 0h410v75h-330v670h-80v-745zM608 635h75v110h-75v-110zM508 -220c32 0 61.168 6.5 87.501 19.5s47.5 32.167 63.5 57.5s24 56.333 24 93v586h-75v-586c0 -33.333 -9.5 -58.333 -28.5 -75s-42.167 -25 -69.5 -25c-14 0 -28 1 -42 3v-69
c5.33301 -1.33301 12.166 -2.33301 20.499 -3s14.833 -1 19.5 -1z" />
    <glyph glyph-name="uni01C9" unicode="&#x1c9;" horiz-adv-x="458" 
d="M77 0h75v757h-75v-757zM306 635h75v110h-75v-110zM206 -220c32 0 61.168 6.5 87.501 19.5s47.5 32.167 63.5 57.5s24 56.333 24 93v586h-75v-586c0 -33.333 -9.5 -58.333 -28.5 -75s-42.167 -25 -69.5 -25c-14 0 -28 1 -42 3v-69
c5.33301 -1.33301 12.166 -2.33301 20.499 -3s14.833 -1 19.5 -1z" />
    <glyph glyph-name="uni01CA" unicode="&#x1ca;" horiz-adv-x="1119" 
d="M88 0h80v592l410 -592h70v745h-80v-588l-410 588h-70v-745zM791 0h39.999c61.333 0 110 18.5 146 55.5s54 86.833 54 149.5v540h-80v-540c0 -38.667 -10.667 -69.167 -32 -91.5s-50.666 -33.5 -87.999 -33.5h-40v-80z" />
    <glyph glyph-name="uni01CB" unicode="&#x1cb;" horiz-adv-x="965" 
d="M88 0h80v592l410 -592h70v745h-80v-588l-410 588h-70v-745zM813 635h75v110h-75v-110zM713 -220c32 0 61.168 6.5 87.501 19.5s47.5 32.167 63.5 57.5s24 56.333 24 93v586h-75v-586c0 -33.333 -9.5 -58.333 -28.5 -75s-42.167 -25 -69.5 -25c-14 0 -28 1 -42 3v-69
c5.33301 -1.33301 12.166 -2.33301 20.499 -3s14.833 -1 19.5 -1z" />
    <glyph glyph-name="uni01CC" unicode="&#x1cc;" horiz-adv-x="802" 
d="M77 0l74.999 0.000976562v319c0 48 13.333 85.667 40 113s60.334 41 101.001 41c41.333 0 74.833 -13.5 100.5 -40.5s38.5 -64.833 38.5 -113.5v-319h75v348c0 38 -8.83301 72.167 -26.5 102.5s-41.667 54.166 -72 71.499s-64.5 26 -102.5 26
c-33.333 0 -63.333 -7 -90 -21s-48 -33 -64 -57v66h-75v-536zM649.999 635.001h75v110h-75v-110zM549.999 -219.999c32 0 61.168 6.5 87.501 19.5s47.5 32.167 63.5 57.5s24 56.333 24 93v586h-75v-586c0 -33.333 -9.5 -58.333 -28.5 -75s-42.167 -25 -69.5 -25
c-14 0 -28 1 -42 3v-69c5.33301 -1.33301 12.166 -2.33301 20.499 -3s14.833 -1 19.5 -1z" />
    <glyph glyph-name="Gcaron" unicode="&#x1e6;" horiz-adv-x="821" 
d="M428 -12c47.333 0 91.498 8.16797 132.498 24.501s76.833 39.5 107.5 69.5s54.667 65.5 72 106.5s26 85.833 26 134.5v62h-338v-70h258v-5c0 -48 -11.333 -90.5 -34 -127.5s-53.5 -66.167 -92.5 -87.5s-82.833 -32 -131.5 -32c-54.667 0 -103.334 12.833 -146.001 38.5
s-76 61.834 -100 108.501s-36 100.667 -36 162c0 62 12 116.167 36 162.5s57.333 82.5 100 108.5s91.334 39 146.001 39s101.334 -13 140.001 -39s67.334 -61.667 86.001 -107l72 35c-12 31.333 -31.833 61.166 -59.5 89.499s-61.667 51.5 -102 69.5s-85.833 27 -136.5 27
c-52.667 0 -101 -9.5 -145 -28.5s-82.167 -45.833 -114.5 -80.5s-57.5 -75.334 -75.5 -122.001s-27 -98 -27 -154s9 -107.333 27 -154s43.167 -87.167 75.5 -121.5s70.5 -61 114.5 -80s92.333 -28.5 145 -28.5zM367.998 849.001h84l121 150h-88l-75 -91l-74 91h-88z" />
    <glyph glyph-name="gcaron" unicode="&#x1e7;" horiz-adv-x="662" 
d="M331 -220c49.333 0 93.166 10.5029 131.499 31.5029s68.333 49.667 90 86s32.5 77.5 32.5 123.5v515h-75v-81c-21.333 28.667 -48.666 51.334 -81.999 68.001s-69.666 25 -108.999 25c-50.667 0 -95.834 -12 -135.501 -36s-71 -56.333 -94 -97
s-34.5 -86.334 -34.5 -137.001c0 -50 11.5 -95.5 34.5 -136.5s54.5 -73.5 94.5 -97.5s85 -36 135 -36c39.333 0 76 8.66699 110 26s61 41.666 81 72.999v-86c0 -36 -8.33301 -66.333 -25 -91s-38.667 -43.334 -66 -56.001s-57.333 -19 -90 -19
c-42.667 0 -77.667 9.33301 -105 28s-46.333 40.667 -57 66l-69 -37c18 -38.667 47.5 -70.334 88.5 -95.001s89.167 -37 144.5 -37zM323 83.0029c-36 0 -68.168 8.83398 -96.501 26.501s-50.666 41.334 -66.999 71.001s-24.5 62.167 -24.5 97.5c0 36 8.16699 68.667 24.5 98
s38.833 52.833 67.5 70.5s60.667 26.5 96 26.5c34.667 0 66 -8.83301 94 -26.5s50.5 -41.334 67.5 -71.001s25.5 -62.167 25.5 -97.5s-8.5 -67.833 -25.5 -97.5s-39.5 -53.334 -67.5 -71.001s-59.333 -26.5 -94 -26.5zM287.999 640.004h84l121 150h-88l-75 -91l-74 91h-88z
" />
    <glyph glyph-name="uni01EA" unicode="&#x1ea;" horiz-adv-x="878" 
d="M439 -12c52 0 100.5 9.5 145.5 28.5s84.5 45.667 118.5 80s60.667 75 80 122s29 98.5 29 154.5s-9.66699 107.333 -29 154s-46 87.167 -80 121.5s-73.5 61 -118.5 80s-93.5 28.5 -145.5 28.5s-100.5 -9.33301 -145.5 -28s-84.5 -45.167 -118.5 -79.5
s-60.667 -75 -80 -122s-29 -98.5 -29 -154.5s9.66699 -107.5 29 -154.5s46 -87.667 80 -122s73.5 -61 118.5 -80s93.5 -28.5 145.5 -28.5zM439 63c-57.333 0 -108 14 -152 42s-78.5 65.5 -103.5 112.5s-37.5 98.833 -37.5 155.5c0 42 7.16699 81.667 21.5 119
s34.5 70.333 60.5 99s56.833 51 92.5 67s75.167 24 118.5 24s82.833 -8 118.5 -24s66.5 -38.333 92.5 -67s46.167 -61.667 60.5 -99s21.5 -77 21.5 -119c0 -56.667 -12.5 -108.5 -37.5 -155.5s-59.5 -84.5 -103.5 -112.5s-94.667 -42 -152 -42zM459 -230
c19.333 0 38.499 3.33496 57.499 10.002s34.5 15.667 46.5 27l-21 53c-21.333 -20 -45.666 -30 -72.999 -30c-16.667 0 -30 5 -40 15s-15 21.333 -15 34c0 20.667 4.66699 39.5 14 56.5s21 31.167 35 42.5s27.667 18.666 41 21.999v20h-31
c-22.667 -6.66699 -44 -17.167 -64 -31.5s-36.167 -31.333 -48.5 -51s-18.5 -41.834 -18.5 -66.501c0 -30 10.5 -54.333 31.5 -73s49.5 -28 85.5 -28z" />
    <glyph glyph-name="uni01EB" unicode="&#x1eb;" horiz-adv-x="655" 
d="M328 -12c50 0 95.501 11.999 136.501 35.999s73.833 57.167 98.5 99.5s37 90.833 37 145.5c0 54 -11.833 102 -35.5 144s-56 75 -97 99s-87.5 36 -139.5 36s-98.5 -12.167 -139.5 -36.5s-73.5 -57.5 -97.5 -99.5s-36 -89.667 -36 -143c0 -54 12.167 -102.167 36.5 -144.5
s57.166 -75.666 98.499 -99.999s87.333 -36.5 138 -36.5zM328.001 62.999c-36 0 -68.5 9 -97.5 27s-52.167 42.667 -69.5 74s-26 66.333 -26 105s8.66699 73.334 26 104.001s40.5 55 69.5 73s61.5 27 97.5 27s68.5 -9 97.5 -27s52 -42.333 69 -73
s25.5 -65.334 25.5 -104.001s-8.5 -73.667 -25.5 -105s-40 -56 -69 -74s-61.5 -27 -97.5 -27zM348.001 -230.001c19.333 0 38.499 3.33496 57.499 10.002s34.5 15.667 46.5 27l-21 53c-21.333 -20 -45.666 -30 -72.999 -30c-16.667 0 -30 5 -40 15s-15 21.333 -15 34
c0 20.667 4.66699 39.5 14 56.5s21 31.167 35 42.5s27.667 18.666 41 21.999v20h-31c-22.667 -6.66699 -44 -17.167 -64 -31.5s-36.167 -31.333 -48.5 -51s-18.5 -41.834 -18.5 -66.501c0 -30 10.5 -54.333 31.5 -73s49.5 -28 85.5 -28z" />
    <glyph glyph-name="Aringacute" unicode="&#x1fa;" horiz-adv-x="652" 
d="M11 0h84l65 182h333l64 -182h84l-272 745h-86zM186 257l140 394l139 -394h-279zM326 829c29.333 0 55 9.66699 77 29s33 45.333 33 78c0 16 -2.83301 30.667 -8.5 44s-13.5 24.666 -23.5 33.999l74 115h-103l-41 -85h-8c-30 0 -55.833 -9.66699 -77.5 -29
s-32.5 -45.666 -32.5 -78.999s11 -59.5 33 -78.5s47.667 -28.5 77 -28.5zM326 883c-14.667 0 -27 4.83301 -37 14.5s-15 22.5 -15 38.5c0 16.667 5.16699 29.667 15.5 39s22.5 14 36.5 14c14.667 0 27 -4.83301 37 -14.5s15 -22.5 15 -38.5s-5 -28.833 -15 -38.5
s-22.333 -14.5 -37 -14.5z" />
    <glyph glyph-name="aringacute" unicode="&#x1fb;" horiz-adv-x="572" 
d="M232 -12c41.333 0 78.666 8.33398 111.999 25.001s58.666 38 75.999 64v-77h75v368c0 35.333 -8.5 66.5 -25.5 93.5s-40.667 48.167 -71 63.5s-65.166 23 -104.499 23c-30 0 -59 -5.5 -87 -16.5s-52.833 -25.833 -74.5 -44.5s-37.5 -39.334 -47.5 -62.001l68 -37
c12 26 30.333 47.167 55 63.5s53.334 24.5 86.001 24.5c37.333 0 67.666 -10 90.999 -30s35 -46 35 -78v-28l-194 -32c-59.333 -10 -102.666 -30.333 -129.999 -61s-41 -66.667 -41 -108c0 -29.333 7.66699 -55.333 23 -78s36.333 -40.5 63 -53.5s57 -19.5 91 -19.5z
M135 142.001c0 24.667 8.49902 46.002 25.499 64.002s44.833 30.333 83.5 37l176 29v-40c0 -32.667 -7.66699 -62.334 -23 -89.001s-36.666 -47.834 -63.999 -63.501s-59.333 -23.5 -96 -23.5c-30 0 -54.5 8.33301 -73.5 25s-28.5 37 -28.5 61zM293.999 620.003
c29.333 0 55 9.66699 77 29s33 45.333 33 78c0 16 -2.83301 30.667 -8.5 44s-13.5 24.666 -23.5 33.999l74 115h-103l-41 -85h-8c-30 0 -55.833 -9.66699 -77.5 -29s-32.5 -45.666 -32.5 -78.999s11 -59.5 33 -78.5s47.667 -28.5 77 -28.5zM293.999 674.003
c-14.667 0 -27 4.83301 -37 14.5s-15 22.5 -15 38.5c0 16.667 5.16699 29.667 15.5 39s22.5 14 36.5 14c14.667 0 27 -4.83301 37 -14.5s15 -22.5 15 -38.5s-5 -28.833 -15 -38.5s-22.333 -14.5 -37 -14.5z" />
    <glyph glyph-name="AEacute" unicode="&#x1fc;" horiz-adv-x="985" 
d="M11 0h84l65 182h301v-182h480v75h-400v261h380v75h-380v259h400v75h-658zM186 257l147 413h128v-413h-275zM455 849h76l114 150h-103z" />
    <glyph glyph-name="aeacute" unicode="&#x1fd;" horiz-adv-x="983" 
d="M232 -12c41.333 0 78.665 8.50488 111.998 25.5049s58.666 38.5 75.999 64.5v-78h75v76c24 -28 52.5 -49.667 85.5 -65s69.167 -23 108.5 -23c36.667 0 70.167 6.16699 100.5 18.5s56.5 28.666 78.5 48.999s38.333 42.5 49 66.5l-64 34
c-16.667 -28 -38.334 -51.333 -65.001 -70s-59.667 -28 -99 -28c-32 0 -62 7.66699 -90 23s-50.833 37 -68.5 65s-27.167 61 -28.5 99h422c1.33301 8.66699 2.33301 17.167 3 25.5s1 15.833 1 22.5c0 32 -5.66699 63.167 -17 93.5s-27.666 57.666 -48.999 81.999
s-47.166 43.666 -77.499 57.999s-64.833 21.5 -103.5 21.5c-42 0 -80.667 -9 -116 -27s-64.333 -43 -87 -75c-15.333 31.333 -39.166 56.166 -71.499 74.499s-69.833 27.5 -112.5 27.5c-30 0 -59 -5.5 -87 -16.5s-52.833 -25.833 -74.5 -44.5s-37.5 -39.334 -47.5 -62.001
l68 -37c12 26 30.333 47.167 55 63.5s53.334 24.5 86.001 24.5c37.333 0 67.666 -10 90.999 -30s35 -46 35 -78v-28l-194 -32c-59.333 -10 -102.666 -30.333 -129.999 -61s-41 -66.667 -41 -108c0 -29.333 7.66699 -55.333 23 -78s36.333 -40.5 63 -53.5s57 -19.5 91 -19.5z
M503.999 315.005c4 33.333 14.499 62.168 31.499 86.501s38.333 43.166 64 56.499s52.834 20 81.501 20c30 0 57.667 -7 83 -21s45.5 -33.167 60.5 -57.5s22.5 -52.5 22.5 -84.5h-343zM236.998 56.0068c-30 0 -54.501 8.33496 -73.501 25.002s-28.5 37 -28.5 61
c0 24.667 8.5 46 25.5 64s44.833 30.333 83.5 37l176 29v-40c0 -32.667 -7.66699 -62.334 -23 -89.001s-36.666 -47.834 -63.999 -63.501s-59.333 -23.5 -96 -23.5zM453.997 640.009h76l114 150h-103z" />
    <glyph glyph-name="Oslashacute" unicode="&#x1fe;" horiz-adv-x="878" 
d="M82 0h104l42 52c30 -20.667 62.833 -36.5 98.5 -47.5s73.167 -16.5 112.5 -16.5c52 0 100.5 9.5 145.5 28.5s84.5 45.667 118.5 80s60.667 75 80 122s29 98.5 29 154.5c0 53.333 -9 102.833 -27 148.5s-42.667 85.5 -74 119.5l85 104h-104l-42 -52
c-30 20.667 -62.833 36.5 -98.5 47.5s-73.167 16.5 -112.5 16.5c-52 0 -100.5 -9.33301 -145.5 -28s-84.5 -45.167 -118.5 -79.5s-60.667 -75 -80 -122s-29 -98.5 -29 -154.5c0 -54 9 -103.833 27 -149.5s42.667 -85.5 74 -119.5zM146 373c0 42 7.16797 81.667 21.501 119
s34.5 70.333 60.5 99s56.833 51 92.5 67s75.167 24 118.5 24c30.667 0 59.667 -4.16699 87 -12.5s52.333 -20.166 75 -35.499l-383 -468c-22.667 27.333 -40.334 58.666 -53.001 93.999s-19 73 -19 113zM439.001 63c-30.667 0 -59.668 4.16602 -87.001 12.499
s-52.333 20.166 -75 35.499l383 468c22.667 -27.333 40.334 -58.666 53.001 -93.999s19 -72.666 19 -111.999c0 -56.667 -12.5 -108.5 -37.5 -155.5s-59.5 -84.5 -103.5 -112.5s-94.667 -42 -152 -42zM401 848.999h76l114 150h-103z" />
    <glyph glyph-name="oslashacute" unicode="&#x1ff;" horiz-adv-x="655" 
d="M41 0h104.999l30 34c21.333 -14.667 44.833 -26 70.5 -34s52.834 -12 81.501 -12c50 0 95.5 12 136.5 36s73.833 57.167 98.5 99.5s37 90.833 37 145.5c0 35.333 -5.33301 68.333 -16 99s-25.667 57.667 -45 81l76 87h-105l-29 -33c-21.333 14 -45 25 -71 33
s-53.333 12 -82 12c-52 0 -98.5 -12.167 -139.5 -36.5s-73.5 -57.5 -97.5 -99.5s-36 -89.667 -36 -143c0 -35.333 5.5 -68.5 16.5 -99.5s26.167 -58.5 45.5 -82.5zM134.999 269c0 38.667 8.66602 73.3311 25.999 103.998s40.5 55 69.5 73s61.5 27 97.5 27
c36.667 0 70.334 -9.66699 101.001 -29l-259 -296c-10.667 16.667 -19.167 35.334 -25.5 56.001s-9.5 42.334 -9.5 65.001zM327.998 62.9971c-36.667 0 -70.333 9.66699 -101 29l258 296c11.333 -16.667 20 -35 26 -55s9 -41.333 9 -64c0 -38.667 -8.5 -73.667 -25.5 -105
s-40 -56 -69 -74s-61.5 -27 -97.5 -27zM289.999 639.997h76l114 150h-103z" />
    <glyph glyph-name="uni0200" unicode="&#x200;" horiz-adv-x="652" 
d="M11 0h84l65 182h333l64 -182h84l-272 745h-86zM186 257l140 394l139 -394h-279zM213 849h66l-87 150h-93zM373 849h66l-87 150h-93z" />
    <glyph glyph-name="uni0201" unicode="&#x201;" horiz-adv-x="572" 
d="M232 -12c41.333 0 78.666 8.33398 111.999 25.001s58.666 38 75.999 64v-77h75v368c0 35.333 -8.5 66.5 -25.5 93.5s-40.667 48.167 -71 63.5s-65.166 23 -104.499 23c-30 0 -59 -5.5 -87 -16.5s-52.833 -25.833 -74.5 -44.5s-37.5 -39.334 -47.5 -62.001l68 -37
c12 26 30.333 47.167 55 63.5s53.334 24.5 86.001 24.5c37.333 0 67.666 -10 90.999 -30s35 -46 35 -78v-28l-194 -32c-59.333 -10 -102.666 -30.333 -129.999 -61s-41 -66.667 -41 -108c0 -29.333 7.66699 -55.333 23 -78s36.333 -40.5 63 -53.5s57 -19.5 91 -19.5z
M135 142.001c0 24.667 8.49902 46.002 25.499 64.002s44.833 30.333 83.5 37l176 29v-40c0 -32.667 -7.66699 -62.334 -23 -89.001s-36.666 -47.834 -63.999 -63.501s-59.333 -23.5 -96 -23.5c-30 0 -54.5 8.33301 -73.5 25s-28.5 37 -28.5 61zM180.999 640.003h66l-87 150
h-93zM340.999 640.003h66l-87 150h-93z" />
    <glyph glyph-name="uni0202" unicode="&#x202;" horiz-adv-x="652" 
d="M11 0h84l65 182h333l64 -182h84l-272 745h-86zM186 257l140 394l139 -394h-279zM168 849l72 -0.000976562c0 28.667 7.5 50.834 22.5 66.501s36.167 23.5 63.5 23.5s48.5 -7.83301 63.5 -23.5s22.5 -37.834 22.5 -66.501h71c0 44.667 -13.5 80.834 -40.5 108.501
s-65.833 41.5 -116.5 41.5s-89.667 -14 -117 -42s-41 -64 -41 -108z" />
    <glyph glyph-name="uni0203" unicode="&#x203;" horiz-adv-x="572" 
d="M232 -12c41.333 0 78.666 8.33398 111.999 25.001s58.666 38 75.999 64v-77h75v368c0 35.333 -8.5 66.5 -25.5 93.5s-40.667 48.167 -71 63.5s-65.166 23 -104.499 23c-30 0 -59 -5.5 -87 -16.5s-52.833 -25.833 -74.5 -44.5s-37.5 -39.334 -47.5 -62.001l68 -37
c12 26 30.333 47.167 55 63.5s53.334 24.5 86.001 24.5c37.333 0 67.666 -10 90.999 -30s35 -46 35 -78v-28l-194 -32c-59.333 -10 -102.666 -30.333 -129.999 -61s-41 -66.667 -41 -108c0 -29.333 7.66699 -55.333 23 -78s36.333 -40.5 63 -53.5s57 -19.5 91 -19.5z
M135 142.001c0 24.667 8.49902 46.002 25.499 64.002s44.833 30.333 83.5 37l176 29v-40c0 -32.667 -7.66699 -62.334 -23 -89.001s-36.666 -47.834 -63.999 -63.501s-59.333 -23.5 -96 -23.5c-30 0 -54.5 8.33301 -73.5 25s-28.5 37 -28.5 61zM135.999 640.003
l72 -0.000976562c0 28.667 7.5 50.834 22.5 66.501s36.167 23.5 63.5 23.5s48.5 -7.83301 63.5 -23.5s22.5 -37.834 22.5 -66.501h71c0 44.667 -13.5 80.834 -40.5 108.501s-65.833 41.5 -116.5 41.5s-89.667 -14 -117 -42s-41 -64 -41 -108z" />
    <glyph glyph-name="uni0204" unicode="&#x204;" horiz-adv-x="612" 
d="M88 0h480v75h-400v261h380v75h-380v259h400v75h-480v-745zM215 849h66l-87 150h-93zM375 849h66l-87 150h-93z" />
    <glyph glyph-name="uni0205" unicode="&#x205;" horiz-adv-x="615" 
d="M321 -12c36.667 0 70.167 6.16895 100.5 18.502s56.5 28.666 78.5 48.999s38.333 42.5 49 66.5l-64 34c-16.667 -28 -38.334 -51.333 -65.001 -70s-59.667 -28 -99 -28c-32 0 -62 7.66699 -90 23s-50.833 36.833 -68.5 64.5s-27.167 60.834 -28.5 99.501h422
c1.33301 8.66699 2.33301 17.167 3 25.5s1 15.833 1 22.5c0 32 -5.66699 63.167 -17 93.5s-27.666 57.666 -48.999 81.999s-47.166 43.666 -77.499 57.999s-64.833 21.5 -103.5 21.5c-48.667 0 -92.5 -12 -131.5 -36s-69.833 -56.833 -92.5 -98.5s-34 -89.5 -34 -143.5
s11.667 -102.333 35 -145s55.166 -76.167 95.499 -100.5s85.5 -36.5 135.5 -36.5zM313 478.002c30 0 57.501 -6.99805 82.501 -20.998s45 -33.167 60 -57.5s22.833 -52.5 23.5 -84.5h-343c4 33.333 14.5 62.166 31.5 86.499s38.167 43.166 63.5 56.499s52.666 20 81.999 20z
M195.001 640.004h66l-87 150h-93zM355.001 640.004h66l-87 150h-93z" />
    <glyph glyph-name="uni0206" unicode="&#x206;" horiz-adv-x="612" 
d="M88 0h480v75h-400v261h380v75h-380v259h400v75h-480v-745zM170 849l72 -0.000976562c0 28.667 7.5 50.834 22.5 66.501s36.167 23.5 63.5 23.5s48.5 -7.83301 63.5 -23.5s22.5 -37.834 22.5 -66.501h71c0 44.667 -13.5 80.834 -40.5 108.501s-65.833 41.5 -116.5 41.5
s-89.667 -14 -117 -42s-41 -64 -41 -108z" />
    <glyph glyph-name="uni0207" unicode="&#x207;" horiz-adv-x="615" 
d="M321 -12c36.667 0 70.167 6.16895 100.5 18.502s56.5 28.666 78.5 48.999s38.333 42.5 49 66.5l-64 34c-16.667 -28 -38.334 -51.333 -65.001 -70s-59.667 -28 -99 -28c-32 0 -62 7.66699 -90 23s-50.833 36.833 -68.5 64.5s-27.167 60.834 -28.5 99.501h422
c1.33301 8.66699 2.33301 17.167 3 25.5s1 15.833 1 22.5c0 32 -5.66699 63.167 -17 93.5s-27.666 57.666 -48.999 81.999s-47.166 43.666 -77.499 57.999s-64.833 21.5 -103.5 21.5c-48.667 0 -92.5 -12 -131.5 -36s-69.833 -56.833 -92.5 -98.5s-34 -89.5 -34 -143.5
s11.667 -102.333 35 -145s55.166 -76.167 95.499 -100.5s85.5 -36.5 135.5 -36.5zM313 478.002c30 0 57.501 -6.99805 82.501 -20.998s45 -33.167 60 -57.5s22.833 -52.5 23.5 -84.5h-343c4 33.333 14.5 62.166 31.5 86.499s38.167 43.166 63.5 56.499s52.666 20 81.999 20z
M150.001 640.004l72 -0.000976562c0 28.667 7.5 50.834 22.5 66.501s36.167 23.5 63.5 23.5s48.5 -7.83301 63.5 -23.5s22.5 -37.834 22.5 -66.501h71c0 44.667 -13.5 80.834 -40.5 108.501s-65.833 41.5 -116.5 41.5s-89.667 -14 -117 -42s-41 -64 -41 -108z" />
    <glyph glyph-name="uni0208" unicode="&#x208;" horiz-adv-x="256" 
d="M88 0h80v745h-80v-745zM15 849h66l-87 150h-93zM175 849h66l-87 150h-93z" />
    <glyph glyph-name="uni0209" unicode="&#x209;" horiz-adv-x="199" 
d="M62 0h75v536h-75v-536zM-14 640h66l-87 150h-93zM146 640h66l-87 150h-93z" />
    <glyph glyph-name="uni020A" unicode="&#x20a;" horiz-adv-x="256" 
d="M88 0h80v745h-80v-745zM-30 849l72 -0.000976562c0 28.667 7.5 50.834 22.5 66.501s36.167 23.5 63.5 23.5s48.5 -7.83301 63.5 -23.5s22.5 -37.834 22.5 -66.501h71c0 44.667 -13.5 80.834 -40.5 108.501s-65.833 41.5 -116.5 41.5s-89.667 -14 -117 -42
s-41 -64 -41 -108z" />
    <glyph glyph-name="uni020B" unicode="&#x20b;" horiz-adv-x="199" 
d="M62 0h75v536h-75v-536zM-59 640l72 -0.000976562c0 28.667 7.5 50.834 22.5 66.501s36.167 23.5 63.5 23.5s48.5 -7.83301 63.5 -23.5s22.5 -37.834 22.5 -66.501h71c0 44.667 -13.5 80.834 -40.5 108.501s-65.833 41.5 -116.5 41.5s-89.667 -14 -117 -42
s-41 -64 -41 -108z" />
    <glyph glyph-name="uni020C" unicode="&#x20c;" horiz-adv-x="878" 
d="M439 -12c52 0 100.5 9.5 145.5 28.5s84.5 45.667 118.5 80s60.667 75 80 122s29 98.5 29 154.5s-9.66699 107.333 -29 154s-46 87.167 -80 121.5s-73.5 61 -118.5 80s-93.5 28.5 -145.5 28.5s-100.5 -9.33301 -145.5 -28s-84.5 -45.167 -118.5 -79.5
s-60.667 -75 -80 -122s-29 -98.5 -29 -154.5s9.66699 -107.5 29 -154.5s46 -87.667 80 -122s73.5 -61 118.5 -80s93.5 -28.5 145.5 -28.5zM439 63c-57.333 0 -108 14 -152 42s-78.5 65.5 -103.5 112.5s-37.5 98.833 -37.5 155.5c0 42 7.16699 81.667 21.5 119
s34.5 70.333 60.5 99s56.833 51 92.5 67s75.167 24 118.5 24s82.833 -8 118.5 -24s66.5 -38.333 92.5 -67s46.167 -61.667 60.5 -99s21.5 -77 21.5 -119c0 -56.667 -12.5 -108.5 -37.5 -155.5s-59.5 -84.5 -103.5 -112.5s-94.667 -42 -152 -42zM326 849h66l-87 150h-93z
M486 849h66l-87 150h-93z" />
    <glyph glyph-name="uni020D" unicode="&#x20d;" horiz-adv-x="655" 
d="M328 -12c50 0 95.501 11.999 136.501 35.999s73.833 57.167 98.5 99.5s37 90.833 37 145.5c0 54 -11.833 102 -35.5 144s-56 75 -97 99s-87.5 36 -139.5 36s-98.5 -12.167 -139.5 -36.5s-73.5 -57.5 -97.5 -99.5s-36 -89.667 -36 -143c0 -54 12.167 -102.167 36.5 -144.5
s57.166 -75.666 98.499 -99.999s87.333 -36.5 138 -36.5zM328.001 62.999c-36 0 -68.5 9 -97.5 27s-52.167 42.667 -69.5 74s-26 66.333 -26 105s8.66699 73.334 26 104.001s40.5 55 69.5 73s61.5 27 97.5 27s68.5 -9 97.5 -27s52 -42.333 69 -73
s25.5 -65.334 25.5 -104.001s-8.5 -73.667 -25.5 -105s-40 -56 -69 -74s-61.5 -27 -97.5 -27zM215.001 639.999h66l-87 150h-93zM375.001 639.999h66l-87 150h-93z" />
    <glyph glyph-name="uni020E" unicode="&#x20e;" horiz-adv-x="878" 
d="M439 -12c52 0 100.5 9.5 145.5 28.5s84.5 45.667 118.5 80s60.667 75 80 122s29 98.5 29 154.5s-9.66699 107.333 -29 154s-46 87.167 -80 121.5s-73.5 61 -118.5 80s-93.5 28.5 -145.5 28.5s-100.5 -9.33301 -145.5 -28s-84.5 -45.167 -118.5 -79.5
s-60.667 -75 -80 -122s-29 -98.5 -29 -154.5s9.66699 -107.5 29 -154.5s46 -87.667 80 -122s73.5 -61 118.5 -80s93.5 -28.5 145.5 -28.5zM439 63c-57.333 0 -108 14 -152 42s-78.5 65.5 -103.5 112.5s-37.5 98.833 -37.5 155.5c0 42 7.16699 81.667 21.5 119
s34.5 70.333 60.5 99s56.833 51 92.5 67s75.167 24 118.5 24s82.833 -8 118.5 -24s66.5 -38.333 92.5 -67s46.167 -61.667 60.5 -99s21.5 -77 21.5 -119c0 -56.667 -12.5 -108.5 -37.5 -155.5s-59.5 -84.5 -103.5 -112.5s-94.667 -42 -152 -42zM281 849l72 -0.000976562
c0 28.667 7.5 50.834 22.5 66.501s36.167 23.5 63.5 23.5s48.5 -7.83301 63.5 -23.5s22.5 -37.834 22.5 -66.501h71c0 44.667 -13.5 80.834 -40.5 108.501s-65.833 41.5 -116.5 41.5s-89.667 -14 -117 -42s-41 -64 -41 -108z" />
    <glyph glyph-name="uni020F" unicode="&#x20f;" horiz-adv-x="655" 
d="M328 -12c50 0 95.501 11.999 136.501 35.999s73.833 57.167 98.5 99.5s37 90.833 37 145.5c0 54 -11.833 102 -35.5 144s-56 75 -97 99s-87.5 36 -139.5 36s-98.5 -12.167 -139.5 -36.5s-73.5 -57.5 -97.5 -99.5s-36 -89.667 -36 -143c0 -54 12.167 -102.167 36.5 -144.5
s57.166 -75.666 98.499 -99.999s87.333 -36.5 138 -36.5zM328.001 62.999c-36 0 -68.5 9 -97.5 27s-52.167 42.667 -69.5 74s-26 66.333 -26 105s8.66699 73.334 26 104.001s40.5 55 69.5 73s61.5 27 97.5 27s68.5 -9 97.5 -27s52 -42.333 69 -73
s25.5 -65.334 25.5 -104.001s-8.5 -73.667 -25.5 -105s-40 -56 -69 -74s-61.5 -27 -97.5 -27zM170.001 639.999l72 -0.000976562c0 28.667 7.5 50.834 22.5 66.501s36.167 23.5 63.5 23.5s48.5 -7.83301 63.5 -23.5s22.5 -37.834 22.5 -66.501h71
c0 44.667 -13.5 80.834 -40.5 108.501s-65.833 41.5 -116.5 41.5s-89.667 -14 -117 -42s-41 -64 -41 -108z" />
    <glyph glyph-name="uni0210" unicode="&#x210;" horiz-adv-x="641" 
d="M88 0l80.001 0.00195312v290h182l164 -290h94l-174 303c47.333 15.333 84.833 41.666 112.5 78.999s41.5 82.333 41.5 135c0 45.333 -10.167 85.166 -30.5 119.499s-48.833 61 -85.5 80s-79.334 28.5 -128.001 28.5h-256v-745zM168.001 365.002v304.999h180
c48 0 86.667 -13.5 116 -40.5s44 -64.167 44 -111.5s-14.667 -84.666 -44 -111.999s-68 -41 -116 -41h-180zM202.001 849.001h66l-87 150h-93zM362.001 849.001h66l-87 150h-93z" />
    <glyph glyph-name="uni0211" unicode="&#x211;" horiz-adv-x="338" 
d="M77 0h75.001v330c0 44 11.667 78 35 102s54.333 36 93 36h47v75h-34c-32.667 0 -60.834 -5.66699 -84.501 -17s-42.5 -27.333 -56.5 -48v58h-75v-536zM89.001 640h66l-87 150h-93zM249.001 640h66l-87 150h-93z" />
    <glyph glyph-name="uni0212" unicode="&#x212;" horiz-adv-x="641" 
d="M88 0l80.001 0.00195312v290h182l164 -290h94l-174 303c47.333 15.333 84.833 41.666 112.5 78.999s41.5 82.333 41.5 135c0 45.333 -10.167 85.166 -30.5 119.499s-48.833 61 -85.5 80s-79.334 28.5 -128.001 28.5h-256v-745zM168.001 365.002v304.999h180
c48 0 86.667 -13.5 116 -40.5s44 -64.167 44 -111.5s-14.667 -84.666 -44 -111.999s-68 -41 -116 -41h-180zM157.001 849.001l72 -0.000976562c0 28.667 7.5 50.834 22.5 66.501s36.167 23.5 63.5 23.5s48.5 -7.83301 63.5 -23.5s22.5 -37.834 22.5 -66.501h71
c0 44.667 -13.5 80.834 -40.5 108.501s-65.833 41.5 -116.5 41.5s-89.667 -14 -117 -42s-41 -64 -41 -108z" />
    <glyph glyph-name="uni0213" unicode="&#x213;" horiz-adv-x="338" 
d="M77 0h75.001v330c0 44 11.667 78 35 102s54.333 36 93 36h47v75h-34c-32.667 0 -60.834 -5.66699 -84.501 -17s-42.5 -27.333 -56.5 -48v58h-75v-536zM44.001 640l72 -0.000976562c0 28.667 7.5 50.834 22.5 66.501s36.167 23.5 63.5 23.5s48.5 -7.83301 63.5 -23.5
s22.5 -37.834 22.5 -66.501h71c0 44.667 -13.5 80.834 -40.5 108.501s-65.833 41.5 -116.5 41.5s-89.667 -14 -117 -42s-41 -64 -41 -108z" />
    <glyph glyph-name="uni0214" unicode="&#x214;" horiz-adv-x="700" 
d="M350 -12c53.333 0 99.833 11 139.5 33s70.5 52.167 92.5 90.5s33 82.166 33 131.499v502h-80v-502c0 -54 -17 -97.5 -51 -130.5s-78.667 -49.5 -134 -49.5c-54.667 0 -99.167 16.5 -133.5 49.5s-51.5 76.5 -51.5 130.5v502h-80v-502c0 -49.333 11 -93.166 33 -131.499
s53 -68.5 93 -90.5s86.333 -33 139 -33zM237 849h66l-87 150h-93zM397 849h66l-87 150h-93z" />
    <glyph glyph-name="uni0215" unicode="&#x215;" 
d="M267 -12c33.333 0 63.3311 7.00195 89.998 21.002s48 33 64 57v-66h75v536h-75v-319c0 -48 -13.167 -85.667 -39.5 -113s-60.166 -41 -101.499 -41c-40.667 0 -74 13.167 -100 39.5s-39 61.166 -39 104.499v329h-75v-338c0 -41.333 8.83301 -77.833 26.5 -109.5
s41.834 -56.334 72.501 -74.001s64.667 -26.5 102 -26.5zM173.998 640.002h66l-87 150h-93zM333.998 640.002h66l-87 150h-93z" />
    <glyph glyph-name="uni0216" unicode="&#x216;" horiz-adv-x="700" 
d="M350 -12c53.333 0 99.833 11 139.5 33s70.5 52.167 92.5 90.5s33 82.166 33 131.499v502h-80v-502c0 -54 -17 -97.5 -51 -130.5s-78.667 -49.5 -134 -49.5c-54.667 0 -99.167 16.5 -133.5 49.5s-51.5 76.5 -51.5 130.5v502h-80v-502c0 -49.333 11 -93.166 33 -131.499
s53 -68.5 93 -90.5s86.333 -33 139 -33zM192 849l72 -0.000976562c0 28.667 7.5 50.834 22.5 66.501s36.167 23.5 63.5 23.5s48.5 -7.83301 63.5 -23.5s22.5 -37.834 22.5 -66.501h71c0 44.667 -13.5 80.834 -40.5 108.501s-65.833 41.5 -116.5 41.5s-89.667 -14 -117 -42
s-41 -64 -41 -108z" />
    <glyph glyph-name="uni0217" unicode="&#x217;" 
d="M267 -12c33.333 0 63.3311 7.00195 89.998 21.002s48 33 64 57v-66h75v536h-75v-319c0 -48 -13.167 -85.667 -39.5 -113s-60.166 -41 -101.499 -41c-40.667 0 -74 13.167 -100 39.5s-39 61.166 -39 104.499v329h-75v-338c0 -41.333 8.83301 -77.833 26.5 -109.5
s41.834 -56.334 72.501 -74.001s64.667 -26.5 102 -26.5zM128.998 640.002l72 -0.000976562c0 28.667 7.5 50.834 22.5 66.501s36.167 23.5 63.5 23.5s48.5 -7.83301 63.5 -23.5s22.5 -37.834 22.5 -66.501h71c0 44.667 -13.5 80.834 -40.5 108.501
s-65.833 41.5 -116.5 41.5s-89.667 -14 -117 -42s-41 -64 -41 -108z" />
    <glyph glyph-name="uni0218" unicode="&#x218;" horiz-adv-x="646" 
d="M339 -12c47.333 0 89.1709 8.66504 125.504 25.998s64.666 41.166 84.999 71.499s30.5 65.5 30.5 105.5c0 49.333 -15 90.333 -45 123s-74.333 57.667 -133 75l-118 35c-40 12 -69.667 30.167 -89 54.5s-29 51.833 -29 82.5c0 38 13.333 68.167 40 90.5
s61.334 33.5 104.001 33.5c45.333 0 84.833 -11.333 118.5 -34s58.5 -56 74.5 -100l70 28c-10.667 32.667 -28.334 62.334 -53.001 89.001s-54.834 48.167 -90.501 64.5s-75.834 24.5 -120.501 24.5c-42.667 0 -80.834 -8.66699 -114.501 -26s-60.167 -41.166 -79.5 -71.499
s-29 -65.166 -29 -104.499c0 -46 14.167 -87 42.5 -123s68.833 -61.667 121.5 -77l134 -40c37.333 -10.667 66 -26 86 -46s30 -48.333 30 -85c0 -37.333 -14.833 -67.333 -44.5 -90s-68.5 -34 -116.5 -34c-50.667 0 -94.334 13.167 -131.001 39.5s-63.667 64.833 -81 115.5
l-72 -27c11.333 -36.667 30.333 -70.167 57 -100.5s59.334 -54.5 98.001 -72.5s81.667 -27 129 -27zM250.005 -240.002h69l65 170h-90z" />
    <glyph glyph-name="uni0219" unicode="&#x219;" horiz-adv-x="509" 
d="M263 -12c37.333 0 70.3291 6.49902 98.9961 19.499s51.167 31.167 67.5 54.5s24.5 49.666 24.5 78.999c0 36 -12.167 67.333 -36.5 94s-58.166 46.334 -101.499 59.001l-89 26c-9.33301 2.66699 -20.166 6.66699 -32.499 12s-23.166 13.333 -32.499 24s-14 25 -14 43
c0 23.333 9 42.666 27 57.999s42 23 72 23c30.667 0 58.5 -8.5 83.5 -25.5s44.167 -40.5 57.5 -70.5l64 30c-15.333 42 -41.5 74.833 -78.5 98.5s-78.167 35.5 -123.5 35.5c-33.333 0 -63.666 -6.33301 -90.999 -19s-49 -30.667 -65 -54s-24 -50.666 -24 -81.999
c0 -33.333 11 -62.666 33 -87.999s57.667 -45 107 -59l77 -22c10.667 -2.66699 23 -7 37 -13s26.333 -14.5 37 -25.5s16 -25.833 16 -44.5c0 -25.333 -11 -45.833 -33 -61.5s-49 -23.5 -81 -23.5c-33.333 0 -63.833 9.66699 -91.5 29s-49.167 45.333 -64.5 78l-63 -30
c17.333 -44.667 45.333 -80 84 -106s83.667 -39 135 -39zM165.996 -240.001h69l65 170h-90z" />
    <glyph glyph-name="uni021A" unicode="&#x21a;" horiz-adv-x="512" 
d="M217 0h80v670h204v75h-490v-75h206v-670zM167 -240h69l65 170h-90z" />
    <glyph glyph-name="uni021B" unicode="&#x21b;" horiz-adv-x="388" 
d="M282 -6c6 0 13.998 0.500977 23.998 1.50098s19 2.5 27 4.5v67c-5.33301 -0.666992 -11.666 -1.33398 -18.999 -2.00098s-13.666 -1 -18.999 -1c-33.333 0 -56.333 8.66699 -69 26s-19 39.333 -19 66v305h118v75h-118v124h-75v-45c0 -22.667 -6.66699 -41.5 -20 -56.5
s-31.333 -22.5 -54 -22.5h-25v-75h99v-305c0 -52 13 -92 39 -120s63 -42 111 -42zM184.998 -239.999h69l65 170h-90z" />
    <glyph glyph-name="uni022A" unicode="&#x22a;" horiz-adv-x="878" 
d="M439 -12c52 0 100.5 9.5 145.5 28.5s84.5 45.667 118.5 80s60.667 75 80 122s29 98.5 29 154.5s-9.66699 107.333 -29 154s-46 87.167 -80 121.5s-73.5 61 -118.5 80s-93.5 28.5 -145.5 28.5s-100.5 -9.33301 -145.5 -28s-84.5 -45.167 -118.5 -79.5
s-60.667 -75 -80 -122s-29 -98.5 -29 -154.5s9.66699 -107.5 29 -154.5s46 -87.667 80 -122s73.5 -61 118.5 -80s93.5 -28.5 145.5 -28.5zM439 63c-57.333 0 -108 14 -152 42s-78.5 65.5 -103.5 112.5s-37.5 98.833 -37.5 155.5c0 42 7.16699 81.667 21.5 119
s34.5 70.333 60.5 99s56.833 51 92.5 67s75.167 24 118.5 24s82.833 -8 118.5 -24s66.5 -38.333 92.5 -67s46.167 -61.667 60.5 -99s21.5 -77 21.5 -119c0 -56.667 -12.5 -108.5 -37.5 -155.5s-59.5 -84.5 -103.5 -112.5s-94.667 -42 -152 -42zM304 1039h270v70h-270v-70z
M299 849h100v100h-100v-100zM479 849h100v100h-100v-100z" />
    <glyph glyph-name="uni022B" unicode="&#x22b;" horiz-adv-x="655" 
d="M328 -12c50 0 95.501 11.999 136.501 35.999s73.833 57.167 98.5 99.5s37 90.833 37 145.5c0 54 -11.833 102 -35.5 144s-56 75 -97 99s-87.5 36 -139.5 36s-98.5 -12.167 -139.5 -36.5s-73.5 -57.5 -97.5 -99.5s-36 -89.667 -36 -143c0 -54 12.167 -102.167 36.5 -144.5
s57.166 -75.666 98.499 -99.999s87.333 -36.5 138 -36.5zM328.001 62.999c-36 0 -68.5 9 -97.5 27s-52.167 42.667 -69.5 74s-26 66.333 -26 105s8.66699 73.334 26 104.001s40.5 55 69.5 73s61.5 27 97.5 27s68.5 -9 97.5 -27s52 -42.333 69 -73
s25.5 -65.334 25.5 -104.001s-8.5 -73.667 -25.5 -105s-40 -56 -69 -74s-61.5 -27 -97.5 -27zM193.001 829.999h270v70h-270v-70zM188.001 639.999h100v100h-100v-100zM368.001 639.999h100v100h-100v-100z" />
    <glyph glyph-name="uni022C" unicode="&#x22c;" horiz-adv-x="878" 
d="M439 -12c52 0 100.5 9.5 145.5 28.5s84.5 45.667 118.5 80s60.667 75 80 122s29 98.5 29 154.5s-9.66699 107.333 -29 154s-46 87.167 -80 121.5s-73.5 61 -118.5 80s-93.5 28.5 -145.5 28.5s-100.5 -9.33301 -145.5 -28s-84.5 -45.167 -118.5 -79.5
s-60.667 -75 -80 -122s-29 -98.5 -29 -154.5s9.66699 -107.5 29 -154.5s46 -87.667 80 -122s73.5 -61 118.5 -80s93.5 -28.5 145.5 -28.5zM439 63c-57.333 0 -108 14 -152 42s-78.5 65.5 -103.5 112.5s-37.5 98.833 -37.5 155.5c0 42 7.16699 81.667 21.5 119
s34.5 70.333 60.5 99s56.833 51 92.5 67s75.167 24 118.5 24s82.833 -8 118.5 -24s66.5 -38.333 92.5 -67s46.167 -61.667 60.5 -99s21.5 -77 21.5 -119c0 -56.667 -12.5 -108.5 -37.5 -155.5s-59.5 -84.5 -103.5 -112.5s-94.667 -42 -152 -42zM304 1029h270v70h-270v-70z
M498 849c30.667 0 54.999 11.332 72.999 33.999s27 52.334 27 89.001h-61c0 -39.333 -13 -59 -39 -59c-11.333 0 -20.833 3.16699 -28.5 9.5s-15.167 13.666 -22.5 21.999s-16.333 15.666 -27 21.999s-24.667 9.5 -42 9.5c-30 0 -53.833 -10.5 -71.5 -31.5
s-26.5 -51.5 -26.5 -91.5h62c0 22 3.33301 37.333 10 46s15.334 13 26.001 13c11.333 0 20.833 -3.16699 28.5 -9.5s15.167 -13.666 22.5 -21.999s16.333 -15.666 27 -21.999s24.667 -9.5 42 -9.5z" />
    <glyph glyph-name="uni022D" unicode="&#x22d;" horiz-adv-x="655" 
d="M328 -12c50 0 95.501 11.999 136.501 35.999s73.833 57.167 98.5 99.5s37 90.833 37 145.5c0 54 -11.833 102 -35.5 144s-56 75 -97 99s-87.5 36 -139.5 36s-98.5 -12.167 -139.5 -36.5s-73.5 -57.5 -97.5 -99.5s-36 -89.667 -36 -143c0 -54 12.167 -102.167 36.5 -144.5
s57.166 -75.666 98.499 -99.999s87.333 -36.5 138 -36.5zM328.001 62.999c-36 0 -68.5 9 -97.5 27s-52.167 42.667 -69.5 74s-26 66.333 -26 105s8.66699 73.334 26 104.001s40.5 55 69.5 73s61.5 27 97.5 27s68.5 -9 97.5 -27s52 -42.333 69 -73
s25.5 -65.334 25.5 -104.001s-8.5 -73.667 -25.5 -105s-40 -56 -69 -74s-61.5 -27 -97.5 -27zM193.001 819.999h270v70h-270v-70zM387.001 639.999c30.667 0 54.999 11.332 72.999 33.999s27 52.334 27 89.001h-61c0 -39.333 -13 -59 -39 -59
c-11.333 0 -20.833 3.16699 -28.5 9.5s-15.167 13.666 -22.5 21.999s-16.333 15.666 -27 21.999s-24.667 9.5 -42 9.5c-30 0 -53.833 -10.5 -71.5 -31.5s-26.5 -51.5 -26.5 -91.5h62c0 22 3.33301 37.333 10 46s15.334 13 26.001 13c11.333 0 20.833 -3.16699 28.5 -9.5
s15.167 -13.666 22.5 -21.999s16.333 -15.666 27 -21.999s24.667 -9.5 42 -9.5z" />
    <glyph glyph-name="uni0230" unicode="&#x230;" horiz-adv-x="878" 
d="M439 -12c52 0 100.5 9.5 145.5 28.5s84.5 45.667 118.5 80s60.667 75 80 122s29 98.5 29 154.5s-9.66699 107.333 -29 154s-46 87.167 -80 121.5s-73.5 61 -118.5 80s-93.5 28.5 -145.5 28.5s-100.5 -9.33301 -145.5 -28s-84.5 -45.167 -118.5 -79.5
s-60.667 -75 -80 -122s-29 -98.5 -29 -154.5s9.66699 -107.5 29 -154.5s46 -87.667 80 -122s73.5 -61 118.5 -80s93.5 -28.5 145.5 -28.5zM439 63c-57.333 0 -108 14 -152 42s-78.5 65.5 -103.5 112.5s-37.5 98.833 -37.5 155.5c0 42 7.16699 81.667 21.5 119
s34.5 70.333 60.5 99s56.833 51 92.5 67s75.167 24 118.5 24s82.833 -8 118.5 -24s66.5 -38.333 92.5 -67s46.167 -61.667 60.5 -99s21.5 -77 21.5 -119c0 -56.667 -12.5 -108.5 -37.5 -155.5s-59.5 -84.5 -103.5 -112.5s-94.667 -42 -152 -42zM304 1039h270v70h-270v-70z
M389 849h100v100h-100v-100z" />
    <glyph glyph-name="uni0231" unicode="&#x231;" horiz-adv-x="655" 
d="M328 -12c50 0 95.501 11.999 136.501 35.999s73.833 57.167 98.5 99.5s37 90.833 37 145.5c0 54 -11.833 102 -35.5 144s-56 75 -97 99s-87.5 36 -139.5 36s-98.5 -12.167 -139.5 -36.5s-73.5 -57.5 -97.5 -99.5s-36 -89.667 -36 -143c0 -54 12.167 -102.167 36.5 -144.5
s57.166 -75.666 98.499 -99.999s87.333 -36.5 138 -36.5zM328.001 62.999c-36 0 -68.5 9 -97.5 27s-52.167 42.667 -69.5 74s-26 66.333 -26 105s8.66699 73.334 26 104.001s40.5 55 69.5 73s61.5 27 97.5 27s68.5 -9 97.5 -27s52 -42.333 69 -73
s25.5 -65.334 25.5 -104.001s-8.5 -73.667 -25.5 -105s-40 -56 -69 -74s-61.5 -27 -97.5 -27zM193.001 829.999h270v70h-270v-70zM278.001 639.999h100v100h-100v-100z" />
    <glyph glyph-name="uni0232" unicode="&#x232;" horiz-adv-x="623" 
d="M272 0h80v346l260 399h-89l-211 -323l-212 323h-89l261 -399v-346zM177 869h270v70h-270v-70z" />
    <glyph glyph-name="uni0233" unicode="&#x233;" horiz-adv-x="536" 
d="M88 -220c35.333 0 65.333 7.16797 90 21.501s45.167 33.166 61.5 56.499s29.833 48 40.5 74l245 604h-83l-175 -442l-175 442h-81l214 -536l-19 -46c-16.667 -38.667 -33.667 -64.834 -51 -78.501s-42.333 -20.5 -75 -20.5c-10.667 0 -21.167 0.833008 -31.5 2.5
s-18.833 2.83398 -25.5 3.50098v-70c10.667 -4 21.5 -6.83301 32.5 -8.5s21.833 -2.5 32.5 -2.5zM133 660.001h270v70h-270v-70z" />
    <glyph glyph-name="uni0237" unicode="&#x237;" horiz-adv-x="229" 
d="M-23 -220c32 0 61.168 6.5 87.501 19.5s47.5 32.167 63.5 57.5s24 56.333 24 93v586h-75v-586c0 -33.333 -9.5 -58.333 -28.5 -75s-42.167 -25 -69.5 -25c-14 0 -28 1 -42 3v-69c5.33301 -1.33301 12.166 -2.33301 20.499 -3s14.833 -1 19.5 -1z" />
    <glyph glyph-name="uni0259" unicode="&#x259;" horiz-adv-x="615" 
d="M302 -12c49.333 0 93.334 12 132.001 36s69.334 57 92.001 99s34 89.667 34 143c0 54.667 -11.833 103.167 -35.5 145.5s-55.5 75.666 -95.5 99.999s-85 36.5 -135 36.5c-36 0 -69.333 -6.16699 -100 -18.5s-56.834 -28.5 -78.501 -48.5s-38.167 -42.333 -49.5 -67
l64 -34c17.333 28 39.333 51.333 66 70s59.334 28 98.001 28c32 0 62 -7.66699 90 -23s50.833 -36.833 68.5 -64.5s27.167 -60.834 28.5 -99.501h-422c-1.33301 -8.66699 -2.33301 -17.167 -3 -25.5s-1 -15.833 -1 -22.5c0 -32 5.66699 -63.167 17 -93.5
s27.666 -57.666 48.999 -81.999s47.166 -43.666 77.499 -57.999s64.833 -21.5 103.5 -21.5zM302.001 58c-30 0 -57.501 6.99805 -82.501 20.998s-45 33.167 -60 57.5s-22.833 52.5 -23.5 84.5h343c-4 -33.333 -14.5 -62.166 -31.5 -86.499s-38.167 -43.166 -63.5 -56.499
s-52.666 -20 -81.999 -20z" />
    <glyph glyph-name="circumflex" unicode="&#x2c6;" horiz-adv-x="480" 
d="M103 640h88l74 91l75 -91h88l-121 150h-84z" />
    <glyph glyph-name="caron" unicode="&#x2c7;" horiz-adv-x="480" 
d="M223 640h84l121 150h-88l-75 -91l-74 91h-88z" />
    <glyph glyph-name="breve" unicode="&#x2d8;" horiz-adv-x="476" 
d="M261 640c50.667 0 89.5 13.832 116.5 41.499s40.5 63.834 40.5 108.501h-71c0 -28.667 -7.5 -50.834 -22.5 -66.501s-36.167 -23.5 -63.5 -23.5s-48.5 7.83301 -63.5 23.5s-22.5 37.834 -22.5 66.501h-72c0 -44 13.667 -80 41 -108s66.333 -42 117 -42z" />
    <glyph glyph-name="dotaccent" unicode="&#x2d9;" horiz-adv-x="269" 
d="M103 640h100v100h-100v-100z" />
    <glyph glyph-name="ring" unicode="&#x2da;" horiz-adv-x="386" 
d="M213 620c29.333 0 55 9.66699 77 29s33 45.333 33 78c0 33.333 -11 59.666 -33 78.999s-47.667 29 -77 29c-30 0 -55.833 -9.66699 -77.5 -29s-32.5 -45.666 -32.5 -78.999s11 -59.5 33 -78.5s47.667 -28.5 77 -28.5zM213 674c-14.667 0 -27 4.83301 -37 14.5
s-15 22.5 -15 38.5c0 16.667 5.16699 29.667 15.5 39s22.5 14 36.5 14c14.667 0 27 -4.83301 37 -14.5s15 -22.5 15 -38.5s-5 -28.833 -15 -38.5s-22.333 -14.5 -37 -14.5z" />
    <glyph glyph-name="ogonek" unicode="&#x2db;" horiz-adv-x="382" 
d="M220 -230c19.333 0 38.499 3.33496 57.499 10.002s34.5 15.667 46.5 27l-21 53c-21.333 -20 -45.666 -30 -72.999 -30c-16.667 0 -30 5 -40 15s-15 21.333 -15 34c0 20.667 4.66699 39.5 14 56.5s21 31.167 35 42.5s27.667 18.666 41 21.999v20h-31
c-22.667 -6.66699 -44 -17.167 -64 -31.5s-36.167 -31.333 -48.5 -51s-18.5 -41.834 -18.5 -66.501c0 -30 10.5 -54.333 31.5 -73s49.5 -28 85.5 -28z" />
    <glyph glyph-name="tilde" unicode="&#x2dc;" horiz-adv-x="480" 
d="M321 640c30.667 0 54.999 11.332 72.999 33.999s27 52.334 27 89.001h-61c0 -39.333 -13 -59 -39 -59c-11.333 0 -20.833 3.16699 -28.5 9.5s-15.167 13.666 -22.5 21.999s-16.333 15.666 -27 21.999s-24.667 9.5 -42 9.5c-30 0 -53.833 -10.5 -71.5 -31.5
s-26.5 -51.5 -26.5 -91.5h62c0 22 3.33301 37.333 10 46s15.334 13 26.001 13c11.333 0 20.833 -3.16699 28.5 -9.5s15.167 -13.666 22.5 -21.999s16.333 -15.666 27 -21.999s24.667 -9.5 42 -9.5z" />
    <glyph glyph-name="hungarumlaut" unicode="&#x2dd;" horiz-adv-x="489" 
d="M103 640h66l84 150h-93zM263 640h66l84 150h-93z" />
    <glyph glyph-name="gravecomb" unicode="&#x300;" horiz-adv-x="0" 
d="M217 640h76l-87 150h-103z" />
    <glyph glyph-name="acutecomb" unicode="&#x301;" horiz-adv-x="0" 
d="M103 640h76l114 150h-103z" />
    <glyph glyph-name="uni0302" unicode="&#x302;" horiz-adv-x="0" 
d="M103 640h88l74 91l75 -91h88l-121 150h-84z" />
    <glyph glyph-name="tildecomb" unicode="&#x303;" horiz-adv-x="0" 
d="M321 640c30.667 0 54.999 11.332 72.999 33.999s27 52.334 27 89.001h-61c0 -39.333 -13 -59 -39 -59c-11.333 0 -20.833 3.16699 -28.5 9.5s-15.167 13.666 -22.5 21.999s-16.333 15.666 -27 21.999s-24.667 9.5 -42 9.5c-30 0 -53.833 -10.5 -71.5 -31.5
s-26.5 -51.5 -26.5 -91.5h62c0 22 3.33301 37.333 10 46s15.334 13 26.001 13c11.333 0 20.833 -3.16699 28.5 -9.5s15.167 -13.666 22.5 -21.999s16.333 -15.666 27 -21.999s24.667 -9.5 42 -9.5z" />
    <glyph glyph-name="uni0304" unicode="&#x304;" horiz-adv-x="0" 
d="M103 660h270v70h-270v-70z" />
    <glyph glyph-name="uni0306" unicode="&#x306;" horiz-adv-x="0" 
d="M261 640c50.667 0 89.5 13.832 116.5 41.499s40.5 63.834 40.5 108.501h-71c0 -28.667 -7.5 -50.834 -22.5 -66.501s-36.167 -23.5 -63.5 -23.5s-48.5 7.83301 -63.5 23.5s-22.5 37.834 -22.5 66.501h-72c0 -44 13.667 -80 41 -108s66.333 -42 117 -42z" />
    <glyph glyph-name="uni0307" unicode="&#x307;" horiz-adv-x="0" 
d="M103 640h100v100h-100v-100z" />
    <glyph glyph-name="uni0308" unicode="&#x308;" horiz-adv-x="0" 
d="M103 640h100v100h-100v-100zM283 640h100v100h-100v-100z" />
    <glyph glyph-name="hookabovecomb" unicode="&#x309;" horiz-adv-x="0" 
d="M202 600c25.333 9.33301 46 23.5 62 42.5s24 39.833 24 62.5c0 28 -10.333 50.833 -31 68.5s-47.667 26.5 -81 26.5c-10.667 0 -22.167 -1.16699 -34.5 -3.5s-25.166 -7.16602 -38.499 -14.499l12 -51c12 5.33301 21.667 8.66602 29 9.99902s15 2 23 2
c15.333 0 27.666 -4.16699 36.999 -12.5s14 -18.166 14 -29.499c0 -26.667 -16.333 -45.334 -49 -56.001z" />
    <glyph glyph-name="uni030A" unicode="&#x30a;" horiz-adv-x="0" 
d="M213 620c29.333 0 55 9.66699 77 29s33 45.333 33 78c0 33.333 -11 59.666 -33 78.999s-47.667 29 -77 29c-30 0 -55.833 -9.66699 -77.5 -29s-32.5 -45.666 -32.5 -78.999s11 -59.5 33 -78.5s47.667 -28.5 77 -28.5zM213 674c-14.667 0 -27 4.83301 -37 14.5
s-15 22.5 -15 38.5c0 16.667 5.16699 29.667 15.5 39s22.5 14 36.5 14c14.667 0 27 -4.83301 37 -14.5s15 -22.5 15 -38.5s-5 -28.833 -15 -38.5s-22.333 -14.5 -37 -14.5z" />
    <glyph glyph-name="uni030B" unicode="&#x30b;" horiz-adv-x="0" 
d="M103 640h66l84 150h-93zM263 640h66l84 150h-93z" />
    <glyph glyph-name="uni030C" unicode="&#x30c;" horiz-adv-x="0" 
d="M223 640h84l121 150h-88l-75 -91l-74 91h-88z" />
    <glyph glyph-name="uni030F" unicode="&#x30f;" horiz-adv-x="0" 
d="M217 640h66l-87 150h-93zM377 640h66l-87 150h-93z" />
    <glyph glyph-name="uni0311" unicode="&#x311;" horiz-adv-x="0" 
d="M103 640l72 -0.000976562c0 28.667 7.5 50.834 22.5 66.501s36.167 23.5 63.5 23.5s48.5 -7.83301 63.5 -23.5s22.5 -37.834 22.5 -66.501h71c0 44.667 -13.5 80.834 -40.5 108.501s-65.833 41.5 -116.5 41.5s-89.667 -14 -117 -42s-41 -64 -41 -108z" />
    <glyph glyph-name="uni0312" unicode="&#x312;" horiz-adv-x="0" 
d="M103 600h90l44 170h-69z" />
    </font>
</defs>
</svg>
